%TF.GenerationSoftware,KiCad,Pcbnew,9.0.3*%
%TF.CreationDate,2026-03-01T13:08:57+01:00*%
%TF.ProjectId,HAT_RPI_PnP,4841545f-5250-4495-9f50-6e502e6b6963,rev?*%
%TF.SameCoordinates,Original*%
%TF.FileFunction,Copper,L2,Bot*%
%TF.FilePolarity,Positive*%
%FSLAX46Y46*%
G04 Gerber Fmt 4.6, Leading zero omitted, Abs format (unit mm)*
G04 Created by KiCad (PCBNEW 9.0.3) date 2026-03-01 13:08:57*
%MOMM*%
%LPD*%
G01*
G04 APERTURE LIST*
G04 Aperture macros list*
%AMRoundRect*
0 Rectangle with rounded corners*
0 $1 Rounding radius*
0 $2 $3 $4 $5 $6 $7 $8 $9 X,Y pos of 4 corners*
0 Add a 4 corners polygon primitive as box body*
4,1,4,$2,$3,$4,$5,$6,$7,$8,$9,$2,$3,0*
0 Add four circle primitives for the rounded corners*
1,1,$1+$1,$2,$3*
1,1,$1+$1,$4,$5*
1,1,$1+$1,$6,$7*
1,1,$1+$1,$8,$9*
0 Add four rect primitives between the rounded corners*
20,1,$1+$1,$2,$3,$4,$5,0*
20,1,$1+$1,$4,$5,$6,$7,0*
20,1,$1+$1,$6,$7,$8,$9,0*
20,1,$1+$1,$8,$9,$2,$3,0*%
G04 Aperture macros list end*
%TA.AperFunction,ComponentPad*%
%ADD10RoundRect,0.250001X0.949999X-0.949999X0.949999X0.949999X-0.949999X0.949999X-0.949999X-0.949999X0*%
%TD*%
%TA.AperFunction,ComponentPad*%
%ADD11C,2.400000*%
%TD*%
%TA.AperFunction,ComponentPad*%
%ADD12RoundRect,0.250000X0.625000X-0.350000X0.625000X0.350000X-0.625000X0.350000X-0.625000X-0.350000X0*%
%TD*%
%TA.AperFunction,ComponentPad*%
%ADD13O,1.750000X1.200000*%
%TD*%
%TA.AperFunction,ComponentPad*%
%ADD14C,2.300000*%
%TD*%
%TA.AperFunction,ComponentPad*%
%ADD15RoundRect,0.250001X-0.899999X0.899999X-0.899999X-0.899999X0.899999X-0.899999X0.899999X0.899999X0*%
%TD*%
%TA.AperFunction,ComponentPad*%
%ADD16RoundRect,0.250001X-0.899999X-0.899999X0.899999X-0.899999X0.899999X0.899999X-0.899999X0.899999X0*%
%TD*%
%TA.AperFunction,ComponentPad*%
%ADD17C,0.600000*%
%TD*%
%TA.AperFunction,SMDPad,CuDef*%
%ADD18R,2.950000X4.500000*%
%TD*%
%TA.AperFunction,ComponentPad*%
%ADD19RoundRect,0.250001X-0.949999X0.949999X-0.949999X-0.949999X0.949999X-0.949999X0.949999X0.949999X0*%
%TD*%
%TA.AperFunction,ComponentPad*%
%ADD20C,1.700000*%
%TD*%
%TA.AperFunction,ComponentPad*%
%ADD21R,1.700000X1.700000*%
%TD*%
%TA.AperFunction,ViaPad*%
%ADD22C,0.600000*%
%TD*%
%TA.AperFunction,Conductor*%
%ADD23C,0.250000*%
%TD*%
%TA.AperFunction,Conductor*%
%ADD24C,0.600000*%
%TD*%
%TA.AperFunction,Conductor*%
%ADD25C,0.200000*%
%TD*%
%TA.AperFunction,Conductor*%
%ADD26C,0.300000*%
%TD*%
%TA.AperFunction,Conductor*%
%ADD27C,0.400000*%
%TD*%
%TA.AperFunction,Conductor*%
%ADD28C,1.000000*%
%TD*%
G04 APERTURE END LIST*
D10*
%TO.P,J5,1,Pin_1*%
%TO.N,+24V*%
X65267500Y-133500000D03*
D11*
%TO.P,J5,2,Pin_2*%
%TO.N,Net-(D4-COM)*%
X65267500Y-130000000D03*
%TO.P,J5,3,Pin_3*%
%TO.N,GND*%
X65267500Y-126500000D03*
%TD*%
D10*
%TO.P,J2,1,Pin_1*%
%TO.N,+24V*%
X65267500Y-146500000D03*
D11*
%TO.P,J2,2,Pin_2*%
%TO.N,Net-(D1-COM)*%
X65267500Y-143000000D03*
%TO.P,J2,3,Pin_3*%
%TO.N,GND*%
X65267500Y-139500000D03*
%TD*%
D12*
%TO.P,J10,1,Pin_1*%
%TO.N,Net-(J10-Pin_1)*%
X63500000Y-88000000D03*
D13*
%TO.P,J10,2,Pin_2*%
%TO.N,Net-(J10-Pin_2)*%
X63500000Y-86000000D03*
%TO.P,J10,3,Pin_3*%
%TO.N,Net-(J10-Pin_3)*%
X63500000Y-84000000D03*
%TO.P,J10,4,Pin_4*%
%TO.N,Net-(J10-Pin_4)*%
X63500000Y-82000000D03*
%TO.P,J10,5,Pin_5*%
%TO.N,Net-(J10-Pin_5)*%
X63500000Y-80000000D03*
%TO.P,J10,6,Pin_6*%
%TO.N,Net-(J10-Pin_6)*%
X63500000Y-78000000D03*
%TO.P,J10,7,Pin_7*%
%TO.N,Net-(J10-Pin_7)*%
X63500000Y-76000000D03*
%TO.P,J10,8,Pin_8*%
%TO.N,unconnected-(J10-Pin_8-Pad8)*%
X63500000Y-74000000D03*
%TD*%
D12*
%TO.P,J6,1,Pin_1*%
%TO.N,Net-(J6-Pin_1)*%
X63500000Y-68500000D03*
D13*
%TO.P,J6,2,Pin_2*%
%TO.N,GND_ISO*%
X63500000Y-66500000D03*
%TO.P,J6,3,Pin_3*%
%TO.N,Net-(J6-Pin_3)*%
X63500000Y-64500000D03*
%TO.P,J6,4,Pin_4*%
%TO.N,GND_ISO*%
X63500000Y-62500000D03*
%TO.P,J6,5,Pin_5*%
%TO.N,Net-(J6-Pin_5)*%
X63500000Y-60500000D03*
%TO.P,J6,6,Pin_6*%
%TO.N,GND_ISO*%
X63500000Y-58500000D03*
%TO.P,J6,7,Pin_7*%
%TO.N,Net-(J6-Pin_7)*%
X63500000Y-56500000D03*
%TO.P,J6,8,Pin_8*%
%TO.N,GND_ISO*%
X63500000Y-54500000D03*
%TD*%
D10*
%TO.P,J4,1,Pin_1*%
%TO.N,+24V*%
X65267500Y-120500000D03*
D11*
%TO.P,J4,2,Pin_2*%
%TO.N,Net-(D3-COM)*%
X65267500Y-117000000D03*
%TO.P,J4,3,Pin_3*%
%TO.N,GND*%
X65267500Y-113500000D03*
%TD*%
D14*
%TO.P,J9,2,Pin_2*%
%TO.N,GND*%
X111750000Y-72500000D03*
D15*
%TO.P,J9,1,Pin_1*%
%TO.N,+VIN*%
X111750000Y-69000000D03*
%TD*%
D16*
%TO.P,J8,1,Pin_1*%
%TO.N,+24V*%
X98750000Y-52417500D03*
D14*
%TO.P,J8,2,Pin_2*%
%TO.N,Net-(D11-A)*%
X102250000Y-52417500D03*
%TD*%
D12*
%TO.P,J11,1,Pin_1*%
%TO.N,Net-(J11-Pin_1)*%
X63500000Y-107500000D03*
D13*
%TO.P,J11,2,Pin_2*%
%TO.N,Net-(J11-Pin_2)*%
X63500000Y-105500000D03*
%TO.P,J11,3,Pin_3*%
%TO.N,Net-(J11-Pin_3)*%
X63500000Y-103500000D03*
%TO.P,J11,4,Pin_4*%
%TO.N,Net-(J11-Pin_4)*%
X63500000Y-101500000D03*
%TO.P,J11,5,Pin_5*%
%TO.N,Net-(J11-Pin_5)*%
X63500000Y-99500000D03*
%TO.P,J11,6,Pin_6*%
%TO.N,Net-(J11-Pin_6)*%
X63500000Y-97500000D03*
%TO.P,J11,7,Pin_7*%
%TO.N,Net-(J11-Pin_7)*%
X63500000Y-95500000D03*
%TO.P,J11,8,Pin_8*%
%TO.N,Net-(J11-Pin_8)*%
X63500000Y-93500000D03*
%TD*%
D16*
%TO.P,J7,1,Pin_1*%
%TO.N,+24V*%
X90250000Y-52417500D03*
D14*
%TO.P,J7,2,Pin_2*%
%TO.N,Net-(D10-A)*%
X93750000Y-52417500D03*
%TD*%
D16*
%TO.P,J13,1,Pin_1*%
%TO.N,+24V*%
X107750000Y-52417500D03*
D14*
%TO.P,J13,2,Pin_2*%
%TO.N,Net-(D12-A)*%
X111250000Y-52417500D03*
%TD*%
D17*
%TO.P,U7,9,GNDPAD*%
%TO.N,GND*%
X104000000Y-101350000D03*
X104000000Y-100250000D03*
X104000000Y-98950000D03*
X104000000Y-97750000D03*
D18*
X103400000Y-99550000D03*
D17*
X102800000Y-101350000D03*
X102800000Y-100250000D03*
X102800000Y-98950000D03*
X102800000Y-97750000D03*
%TD*%
D10*
%TO.P,J3,1,Pin_1*%
%TO.N,+24V*%
X65217500Y-159500000D03*
D11*
%TO.P,J3,2,Pin_2*%
%TO.N,Net-(D2-COM)*%
X65217500Y-156000000D03*
%TO.P,J3,3,Pin_3*%
%TO.N,GND*%
X65217500Y-152500000D03*
%TD*%
%TO.P,J12,3,Pin_3*%
%TO.N,+5V*%
X111250000Y-85250000D03*
%TO.P,J12,2,Pin_2*%
%TO.N,+24V*%
X111250000Y-81750000D03*
D19*
%TO.P,J12,1,Pin_1*%
%TO.N,GND*%
X111250000Y-78250000D03*
%TD*%
D20*
%TO.P,J14,40,Pin_40*%
%TO.N,/AUX1*%
X113540000Y-159000000D03*
%TO.P,J14,39,Pin_39*%
%TO.N,GND*%
X111000000Y-159000000D03*
%TO.P,J14,38,Pin_38*%
%TO.N,/AUX2*%
X113540000Y-156460000D03*
%TO.P,J14,37,Pin_37*%
%TO.N,/ENDSTOP2*%
X111000000Y-156460000D03*
%TO.P,J14,36,Pin_36*%
%TO.N,/AUX3*%
X113540000Y-153920000D03*
%TO.P,J14,35,Pin_35*%
%TO.N,/ENDSTOP1*%
X111000000Y-153920000D03*
%TO.P,J14,34,Pin_34*%
%TO.N,GND*%
X113540000Y-151380000D03*
%TO.P,J14,33,Pin_33*%
%TO.N,/ENDSTOP4*%
X111000000Y-151380000D03*
%TO.P,J14,32,Pin_32*%
%TO.N,/AUX4*%
X113540000Y-148840000D03*
%TO.P,J14,31,Pin_31*%
%TO.N,/ENDSTOP3*%
X111000000Y-148840000D03*
%TO.P,J14,30,Pin_30*%
%TO.N,GND*%
X113540000Y-146300000D03*
%TO.P,J14,29,Pin_29*%
%TO.N,/DIR_A*%
X111000000Y-146300000D03*
%TO.P,J14,28,Pin_28*%
%TO.N,/AUX5*%
X113540000Y-143760000D03*
%TO.P,J14,27,Pin_27*%
%TO.N,/STEP_A*%
X111000000Y-143760000D03*
%TO.P,J14,26,Pin_26*%
%TO.N,/AUX6*%
X113540000Y-141220000D03*
%TO.P,J14,25,Pin_25*%
%TO.N,GND*%
X111000000Y-141220000D03*
%TO.P,J14,24,Pin_24*%
%TO.N,unconnected-(J14-Pin_24-Pad24)*%
X113540000Y-138680000D03*
%TO.P,J14,23,Pin_23*%
%TO.N,/DIR_B*%
X111000000Y-138680000D03*
%TO.P,J14,22,Pin_22*%
%TO.N,unconnected-(J14-Pin_22-Pad22)*%
X113540000Y-136140000D03*
%TO.P,J14,21,Pin_21*%
%TO.N,/STEP_B*%
X111000000Y-136140000D03*
%TO.P,J14,20,Pin_20*%
%TO.N,GND*%
X113540000Y-133600000D03*
%TO.P,J14,19,Pin_19*%
%TO.N,/ENABLE*%
X111000000Y-133600000D03*
%TO.P,J14,18,Pin_18*%
%TO.N,/ISO_IN1*%
X113540000Y-131060000D03*
%TO.P,J14,17,Pin_17*%
%TO.N,/DIR_C*%
X111000000Y-131060000D03*
%TO.P,J14,16,Pin_16*%
%TO.N,/ISO_IN3*%
X113540000Y-128520000D03*
%TO.P,J14,15,Pin_15*%
%TO.N,/STEP_C*%
X111000000Y-128520000D03*
%TO.P,J14,14,Pin_14*%
%TO.N,GND*%
X113540000Y-125980000D03*
%TO.P,J14,13,Pin_13*%
%TO.N,/ISO_IN2*%
X111000000Y-125980000D03*
%TO.P,J14,12,Pin_12*%
%TO.N,/OUT1*%
X113540000Y-123440000D03*
%TO.P,J14,11,Pin_11*%
%TO.N,/ISO_IN4*%
X111000000Y-123440000D03*
%TO.P,J14,10,Pin_10*%
%TO.N,/OUT2*%
X113540000Y-120900000D03*
%TO.P,J14,9,Pin_9*%
%TO.N,GND*%
X111000000Y-120900000D03*
%TO.P,J14,8,Pin_8*%
%TO.N,/OUT3*%
X113540000Y-118360000D03*
%TO.P,J14,7,Pin_7*%
%TO.N,unconnected-(J14-Pin_7-Pad7)*%
X111000000Y-118360000D03*
%TO.P,J14,6,Pin_6*%
%TO.N,GND*%
X113540000Y-115820000D03*
%TO.P,J14,5,Pin_5*%
%TO.N,unconnected-(J14-Pin_5-Pad5)*%
X111000000Y-115820000D03*
%TO.P,J14,4,Pin_4*%
%TO.N,+5V*%
X113540000Y-113280000D03*
%TO.P,J14,3,Pin_3*%
%TO.N,unconnected-(J14-Pin_3-Pad3)*%
X111000000Y-113280000D03*
%TO.P,J14,2,Pin_2*%
%TO.N,+5V*%
X113540000Y-110740000D03*
D21*
%TO.P,J14,1,Pin_1*%
%TO.N,+3.3V*%
X111000000Y-110740000D03*
%TD*%
D22*
%TO.N,GND*%
X107400000Y-108700000D03*
X107300000Y-130200000D03*
X107400000Y-131700000D03*
X107400000Y-132900000D03*
X107300000Y-134300000D03*
X107300000Y-135500000D03*
X107400000Y-137300000D03*
X107400000Y-139400000D03*
X107400000Y-143100000D03*
X112300000Y-153100000D03*
X114400000Y-150200000D03*
X114600000Y-160100000D03*
X114500000Y-157800000D03*
X114400000Y-155100000D03*
X114400000Y-152700000D03*
X109800000Y-129800000D03*
X109900000Y-132300000D03*
X109900000Y-134900000D03*
X109800000Y-137400000D03*
X109800000Y-139900000D03*
X109900000Y-142600000D03*
X114400000Y-142400000D03*
X114400000Y-140000000D03*
X114400000Y-137400000D03*
X114400000Y-134900000D03*
X114400000Y-132300000D03*
X114400000Y-129800000D03*
X114400000Y-127300000D03*
X114400000Y-124700000D03*
X114400000Y-122200000D03*
X114400000Y-119600000D03*
X109800000Y-114600000D03*
X110000000Y-109000000D03*
X69800000Y-105300000D03*
X70000000Y-87800000D03*
X109000000Y-79200000D03*
X109100000Y-71700000D03*
X114600000Y-71600000D03*
X114600000Y-79500000D03*
X113000000Y-76200000D03*
X113100000Y-74700000D03*
X111300000Y-75400000D03*
X109600000Y-76200000D03*
X109700000Y-74500000D03*
X83600000Y-55600000D03*
X83300000Y-58500000D03*
X83700000Y-62200000D03*
X83300000Y-65100000D03*
X83600000Y-69400000D03*
X83700000Y-76300000D03*
X79300000Y-76100000D03*
X79300000Y-72000000D03*
X79200000Y-68000000D03*
X79200000Y-65300000D03*
X79100000Y-61400000D03*
X79100000Y-58800000D03*
X79200000Y-55000000D03*
X79300000Y-52000000D03*
%TO.N,Net-(U9-DIR)*%
X75000000Y-103000000D03*
%TO.N,Net-(U8-DIR)*%
X75200000Y-87000000D03*
X71075000Y-87500000D03*
%TO.N,Net-(U9-DIR)*%
X71212500Y-103700000D03*
%TO.N,Net-(D9-K)*%
X106000000Y-96700000D03*
X97700000Y-99200000D03*
%TO.N,+3.3V*%
X84900000Y-76400000D03*
X98000000Y-118600000D03*
%TO.N,GND*%
X75400000Y-88900000D03*
X74000000Y-90300000D03*
X74300000Y-85000000D03*
X72300000Y-85000000D03*
X73700000Y-83800000D03*
X74700000Y-81900000D03*
X72400000Y-81800000D03*
X74800000Y-105700000D03*
X74400000Y-100800000D03*
X72300000Y-100700000D03*
X74500000Y-98500000D03*
X72300000Y-98500000D03*
X72000000Y-102300000D03*
X73900000Y-104500000D03*
X72800000Y-103400000D03*
X69700000Y-103900000D03*
X69700000Y-106600000D03*
X76900000Y-106500000D03*
X77000000Y-103800000D03*
X73400000Y-95400000D03*
X76400000Y-96400000D03*
X75000000Y-97100000D03*
X77000000Y-95400000D03*
X69800000Y-95400000D03*
X102200000Y-62825000D03*
X93700000Y-62825000D03*
X111200000Y-62635000D03*
X105400000Y-103600000D03*
X111500000Y-102000000D03*
X110600000Y-102000000D03*
X109700000Y-102000000D03*
X108700000Y-102000000D03*
X107800000Y-102000000D03*
X107400000Y-103500000D03*
X103500000Y-103600000D03*
X104000000Y-102500000D03*
X102600000Y-102500000D03*
X100500000Y-96600000D03*
X98400000Y-96000000D03*
X98200000Y-94200000D03*
X98200000Y-92000000D03*
X98200000Y-89200000D03*
X98200000Y-88000000D03*
X98200000Y-85600000D03*
X98100000Y-83000000D03*
X98200000Y-80600000D03*
X98200000Y-77900000D03*
X98200000Y-75200000D03*
X98300000Y-72800000D03*
X101800000Y-70800000D03*
X98300000Y-71000000D03*
X101700000Y-74600000D03*
X101700000Y-72000000D03*
X100600000Y-73700000D03*
X100600000Y-72700000D03*
X101300000Y-76000000D03*
X100300000Y-76000000D03*
X99300000Y-76000000D03*
X101500000Y-79000000D03*
X100400000Y-79000000D03*
X99400000Y-79000000D03*
X101600000Y-87600000D03*
X100600000Y-87600000D03*
X99400000Y-87600000D03*
X101400000Y-84500000D03*
X100400000Y-84500000D03*
X99500000Y-84500000D03*
X101300000Y-96100000D03*
X101300000Y-95300000D03*
X101300000Y-94500000D03*
X101300000Y-93700000D03*
X103700000Y-92900000D03*
X102900000Y-92400000D03*
X102900000Y-91500000D03*
X102900000Y-90600000D03*
X102900000Y-89700000D03*
X111300000Y-90900000D03*
X111500000Y-90100000D03*
X111000000Y-89300000D03*
%TO.N,+5V*%
X106600000Y-88000000D03*
X105700000Y-88000000D03*
X105300000Y-88800000D03*
X106200000Y-88800000D03*
X107000000Y-91300000D03*
X107000000Y-90400000D03*
X107000000Y-89600000D03*
X107000000Y-88800000D03*
X98600000Y-100700000D03*
%TO.N,+3.3V*%
X98000000Y-122300000D03*
X96800000Y-126200000D03*
%TO.N,/ENDSTOP3*%
X99300000Y-142800000D03*
%TO.N,/ENDSTOP4*%
X98200000Y-142800000D03*
%TO.N,/ENDSTOP2*%
X97975000Y-150175000D03*
%TO.N,/ENDSTOP1*%
X98200000Y-145000000D03*
%TO.N,GND*%
X93841695Y-128306654D03*
X94486695Y-126451654D03*
X94486695Y-123251654D03*
X91386695Y-128626654D03*
X82000000Y-132600000D03*
X81200000Y-131325000D03*
X82545000Y-117775000D03*
X81550000Y-116800000D03*
X72600000Y-111400000D03*
X66600000Y-114600000D03*
X72000000Y-113200000D03*
X68000000Y-113000000D03*
X69400000Y-111400000D03*
X76800000Y-115200000D03*
X77200000Y-113400000D03*
X75000000Y-114600000D03*
X70800000Y-114600000D03*
X74000000Y-113200000D03*
X66600000Y-111400000D03*
X70600000Y-113000000D03*
X69400000Y-114600000D03*
X75600000Y-111400000D03*
X72600000Y-125000000D03*
X66600000Y-128200000D03*
X72000000Y-126800000D03*
X68000000Y-126600000D03*
X69400000Y-125000000D03*
X76800000Y-128800000D03*
X77200000Y-127000000D03*
X75000000Y-128200000D03*
X70800000Y-128200000D03*
X74000000Y-126800000D03*
X66600000Y-125000000D03*
X70600000Y-126600000D03*
X69400000Y-128200000D03*
X75600000Y-125000000D03*
X72600000Y-137400000D03*
X66600000Y-140600000D03*
X72000000Y-139200000D03*
X68000000Y-139000000D03*
X69400000Y-137400000D03*
X76800000Y-141200000D03*
X77200000Y-139400000D03*
X75000000Y-140600000D03*
X70800000Y-140600000D03*
X74000000Y-139200000D03*
X66600000Y-137400000D03*
X70600000Y-139000000D03*
X69400000Y-140600000D03*
X75600000Y-137400000D03*
X70600000Y-152400000D03*
X68000000Y-152400000D03*
X72600000Y-150800000D03*
X66600000Y-150800000D03*
X66600000Y-154000000D03*
X69400000Y-154000000D03*
X69400000Y-150800000D03*
X75600000Y-150800000D03*
X77200000Y-152800000D03*
X75000000Y-154000000D03*
X70800000Y-154000000D03*
X74000000Y-152600000D03*
X72000000Y-152600000D03*
X76800000Y-154600000D03*
X82595000Y-143800000D03*
X81600000Y-142825000D03*
X81800000Y-154200000D03*
X80825000Y-155175000D03*
X94500000Y-148400000D03*
X94500000Y-151600000D03*
X93855000Y-153455000D03*
X91400000Y-153775000D03*
%TO.N,+3.3V*%
X84600000Y-51400000D03*
X84600000Y-55950000D03*
X84600000Y-62600000D03*
X85000000Y-69600000D03*
%TO.N,GND*%
X77200000Y-87800000D03*
X77200000Y-90400000D03*
X70000000Y-90400000D03*
X73400000Y-79200000D03*
X77200000Y-79200000D03*
X70000000Y-79200000D03*
X72600000Y-87200000D03*
X73600000Y-88200000D03*
X72000000Y-86200000D03*
X75200000Y-81000000D03*
X76400000Y-80200000D03*
X82800000Y-74800000D03*
X80800000Y-74800000D03*
X80400000Y-69600000D03*
X80400000Y-71600000D03*
X82800000Y-61200000D03*
X80600000Y-61200000D03*
X82800000Y-67800000D03*
X80600000Y-67800000D03*
X80200000Y-64600000D03*
X80200000Y-62400000D03*
X80000000Y-56000000D03*
X80000000Y-58000000D03*
X82800000Y-54800000D03*
X80400000Y-54800000D03*
X110400000Y-62635000D03*
X101300000Y-62825000D03*
X92800000Y-62825000D03*
%TD*%
D23*
%TO.N,/ENDSTOP4*%
X98200000Y-143700000D02*
X98200000Y-142800000D01*
X105400000Y-150900000D02*
X98200000Y-143700000D01*
X105400000Y-151000000D02*
X105400000Y-150900000D01*
%TO.N,/ENDSTOP1*%
X98200000Y-146900000D02*
X105220000Y-153920000D01*
X98200000Y-145000000D02*
X98200000Y-146900000D01*
X105220000Y-153920000D02*
X111000000Y-153920000D01*
D24*
%TO.N,+5V*%
X100000000Y-88800000D02*
X105300000Y-88800000D01*
X96500000Y-92300000D02*
X100000000Y-88800000D01*
X96500000Y-99800000D02*
X96500000Y-92300000D01*
X97400000Y-100700000D02*
X96500000Y-99800000D01*
X98600000Y-100700000D02*
X97400000Y-100700000D01*
D25*
%TO.N,Net-(U9-DIR)*%
X72349943Y-102800000D02*
X74800000Y-102800000D01*
X72248943Y-102901000D02*
X72349943Y-102800000D01*
X71899000Y-102901000D02*
X72248943Y-102901000D01*
X71212500Y-103587500D02*
X71899000Y-102901000D01*
X71212500Y-103700000D02*
X71212500Y-103587500D01*
X74800000Y-102800000D02*
X75000000Y-103000000D01*
%TO.N,Net-(U8-DIR)*%
X73149057Y-87801000D02*
X73950057Y-87000000D01*
X73950057Y-87000000D02*
X75200000Y-87000000D01*
X71376000Y-87801000D02*
X73149057Y-87801000D01*
X71075000Y-87500000D02*
X71376000Y-87801000D01*
D26*
%TO.N,+3.3V*%
X97800000Y-122500000D02*
X98000000Y-122300000D01*
X97800000Y-125200000D02*
X97800000Y-122500000D01*
X96800000Y-126200000D02*
X97800000Y-125200000D01*
D27*
%TO.N,Net-(D9-K)*%
X99200000Y-99200000D02*
X101700000Y-96700000D01*
X97700000Y-99200000D02*
X99200000Y-99200000D01*
X101700000Y-96700000D02*
X106000000Y-96700000D01*
%TO.N,+3.3V*%
X84900000Y-69700000D02*
X85000000Y-69600000D01*
X84900000Y-76400000D02*
X84900000Y-69700000D01*
D28*
X98000000Y-118600000D02*
X98000000Y-122300000D01*
X98000000Y-114300000D02*
X98000000Y-118600000D01*
X111000000Y-110740000D02*
X101560000Y-110740000D01*
X101560000Y-110740000D02*
X98000000Y-114300000D01*
D24*
%TO.N,+5V*%
X105300000Y-88800000D02*
X106200000Y-88800000D01*
X106200000Y-88800000D02*
X107000000Y-88800000D01*
D27*
%TO.N,+3.3V*%
X84600000Y-69200000D02*
X85000000Y-69600000D01*
X84600000Y-51400000D02*
X84600000Y-69200000D01*
D23*
%TO.N,/ENDSTOP2*%
X97975000Y-150175000D02*
X104260000Y-156460000D01*
X104260000Y-156460000D02*
X111000000Y-156460000D01*
D25*
%TO.N,/ENDSTOP4*%
X110620000Y-151000000D02*
X105400000Y-151000000D01*
X111000000Y-151380000D02*
X110620000Y-151000000D01*
D23*
%TO.N,/ENDSTOP3*%
X105340000Y-148840000D02*
X111000000Y-148840000D01*
X99300000Y-142800000D02*
X105340000Y-148840000D01*
%TD*%
%TA.AperFunction,Conductor*%
%TO.N,+5V*%
G36*
X114942539Y-83519685D02*
G01*
X114988294Y-83572489D01*
X114999500Y-83624000D01*
X114999500Y-114276000D01*
X114979815Y-114343039D01*
X114927011Y-114388794D01*
X114875500Y-114400000D01*
X114162524Y-114400000D01*
X114095485Y-114380315D01*
X114049730Y-114327511D01*
X114039786Y-114258353D01*
X114068811Y-114194797D01*
X114093633Y-114172898D01*
X114127456Y-114150298D01*
X113725177Y-113748019D01*
X113732993Y-113745925D01*
X113847007Y-113680099D01*
X113940099Y-113587007D01*
X114005925Y-113472993D01*
X114008019Y-113465177D01*
X114410298Y-113867456D01*
X114470499Y-113777359D01*
X114549649Y-113586274D01*
X114549651Y-113586266D01*
X114589999Y-113383420D01*
X114590000Y-113383417D01*
X114590000Y-113176583D01*
X114589999Y-113176579D01*
X114549651Y-112973733D01*
X114549649Y-112973725D01*
X114470499Y-112782640D01*
X114410298Y-112692542D01*
X114008018Y-113094821D01*
X114005925Y-113087007D01*
X113940099Y-112972993D01*
X113847007Y-112879901D01*
X113732993Y-112814075D01*
X113725177Y-112811980D01*
X114127455Y-112409701D01*
X114127455Y-112409700D01*
X114037367Y-112349505D01*
X114037358Y-112349500D01*
X113846274Y-112270350D01*
X113846266Y-112270348D01*
X113643420Y-112230000D01*
X113436579Y-112230000D01*
X113233733Y-112270348D01*
X113233725Y-112270350D01*
X113042639Y-112349500D01*
X112952543Y-112409700D01*
X112952543Y-112409701D01*
X113354822Y-112811980D01*
X113347007Y-112814075D01*
X113232993Y-112879901D01*
X113139901Y-112972993D01*
X113074075Y-113087007D01*
X113071980Y-113094822D01*
X112669701Y-112692543D01*
X112669700Y-112692543D01*
X112609500Y-112782639D01*
X112530350Y-112973725D01*
X112530348Y-112973733D01*
X112490000Y-113176579D01*
X112490000Y-113383420D01*
X112530348Y-113586266D01*
X112530350Y-113586274D01*
X112609500Y-113777358D01*
X112609505Y-113777367D01*
X112669701Y-113867455D01*
X113071980Y-113465176D01*
X113074075Y-113472993D01*
X113139901Y-113587007D01*
X113232993Y-113680099D01*
X113347007Y-113745925D01*
X113354822Y-113748019D01*
X112952542Y-114150298D01*
X112986366Y-114172898D01*
X113031171Y-114226510D01*
X113039878Y-114295835D01*
X113009724Y-114358863D01*
X112950281Y-114395582D01*
X112917475Y-114400000D01*
X112551362Y-114400000D01*
X112484323Y-114380315D01*
X112463681Y-114363681D01*
X112236319Y-114136319D01*
X112202834Y-114074996D01*
X112200000Y-114048638D01*
X112200000Y-110636579D01*
X112490000Y-110636579D01*
X112490000Y-110843420D01*
X112530348Y-111046266D01*
X112530350Y-111046274D01*
X112609500Y-111237358D01*
X112609505Y-111237367D01*
X112669701Y-111327455D01*
X113071980Y-110925176D01*
X113074075Y-110932993D01*
X113139901Y-111047007D01*
X113232993Y-111140099D01*
X113347007Y-111205925D01*
X113354822Y-111208019D01*
X112952542Y-111610298D01*
X113042640Y-111670499D01*
X113233725Y-111749649D01*
X113233733Y-111749651D01*
X113436579Y-111789999D01*
X113436583Y-111790000D01*
X113643417Y-111790000D01*
X113643420Y-111789999D01*
X113846266Y-111749651D01*
X113846274Y-111749649D01*
X114037359Y-111670499D01*
X114127456Y-111610298D01*
X113725177Y-111208019D01*
X113732993Y-111205925D01*
X113847007Y-111140099D01*
X113940099Y-111047007D01*
X114005925Y-110932993D01*
X114008019Y-110925177D01*
X114410298Y-111327456D01*
X114470499Y-111237359D01*
X114549649Y-111046274D01*
X114549651Y-111046266D01*
X114589999Y-110843420D01*
X114590000Y-110843417D01*
X114590000Y-110636583D01*
X114589999Y-110636579D01*
X114549651Y-110433733D01*
X114549649Y-110433725D01*
X114470499Y-110242640D01*
X114410298Y-110152542D01*
X114008018Y-110554821D01*
X114005925Y-110547007D01*
X113940099Y-110432993D01*
X113847007Y-110339901D01*
X113732993Y-110274075D01*
X113725177Y-110271980D01*
X114127455Y-109869701D01*
X114127455Y-109869700D01*
X114037367Y-109809505D01*
X114037358Y-109809500D01*
X113846274Y-109730350D01*
X113846266Y-109730348D01*
X113643420Y-109690000D01*
X113436579Y-109690000D01*
X113233733Y-109730348D01*
X113233725Y-109730350D01*
X113042639Y-109809500D01*
X112952543Y-109869700D01*
X112952543Y-109869701D01*
X113354822Y-110271980D01*
X113347007Y-110274075D01*
X113232993Y-110339901D01*
X113139901Y-110432993D01*
X113074075Y-110547007D01*
X113071980Y-110554822D01*
X112669701Y-110152543D01*
X112669700Y-110152543D01*
X112609500Y-110242639D01*
X112530350Y-110433725D01*
X112530348Y-110433733D01*
X112490000Y-110636579D01*
X112200000Y-110636579D01*
X112200000Y-107974500D01*
X112219685Y-107907461D01*
X112272489Y-107861706D01*
X112324000Y-107850500D01*
X112371289Y-107850500D01*
X112419388Y-107844167D01*
X112611789Y-107818838D01*
X112846100Y-107756054D01*
X113070212Y-107663224D01*
X113280289Y-107541936D01*
X113472738Y-107394265D01*
X113644265Y-107222738D01*
X113791936Y-107030289D01*
X113913224Y-106820212D01*
X114006054Y-106596100D01*
X114068838Y-106361789D01*
X114100500Y-106121288D01*
X114100500Y-105878712D01*
X114068838Y-105638211D01*
X114006054Y-105403900D01*
X113913224Y-105179788D01*
X113791936Y-104969711D01*
X113644265Y-104777262D01*
X113644260Y-104777256D01*
X113472743Y-104605739D01*
X113472736Y-104605733D01*
X113280293Y-104458067D01*
X113280292Y-104458066D01*
X113280289Y-104458064D01*
X113070212Y-104336776D01*
X113070205Y-104336773D01*
X112846104Y-104243947D01*
X112611785Y-104181161D01*
X112371289Y-104149500D01*
X112371288Y-104149500D01*
X112324000Y-104149500D01*
X112256961Y-104129815D01*
X112211206Y-104077011D01*
X112200000Y-104025500D01*
X112200000Y-89370273D01*
X108558536Y-87106660D01*
X108511993Y-87054550D01*
X108500000Y-87001349D01*
X108500000Y-85139818D01*
X109850000Y-85139818D01*
X109850000Y-85360181D01*
X109884473Y-85577835D01*
X109952567Y-85787410D01*
X110052613Y-85983760D01*
X110128688Y-86088467D01*
X110128689Y-86088468D01*
X110707242Y-85509914D01*
X110769881Y-85618408D01*
X110881592Y-85730119D01*
X110990083Y-85792757D01*
X110411530Y-86371310D01*
X110516239Y-86447386D01*
X110712589Y-86547432D01*
X110922164Y-86615526D01*
X111139819Y-86650000D01*
X111360181Y-86650000D01*
X111577835Y-86615526D01*
X111787410Y-86547432D01*
X111983752Y-86447390D01*
X111983758Y-86447386D01*
X112088467Y-86371310D01*
X112088468Y-86371309D01*
X111509916Y-85792757D01*
X111618408Y-85730119D01*
X111730119Y-85618408D01*
X111792757Y-85509915D01*
X112371309Y-86088468D01*
X112371310Y-86088467D01*
X112447386Y-85983758D01*
X112447390Y-85983752D01*
X112547432Y-85787410D01*
X112615526Y-85577835D01*
X112650000Y-85360181D01*
X112650000Y-85139818D01*
X112615526Y-84922164D01*
X112547432Y-84712589D01*
X112447386Y-84516239D01*
X112371310Y-84411531D01*
X112371310Y-84411530D01*
X111792757Y-84990083D01*
X111730119Y-84881592D01*
X111618408Y-84769881D01*
X111509915Y-84707242D01*
X112088468Y-84128689D01*
X112088467Y-84128688D01*
X111983760Y-84052613D01*
X111787410Y-83952567D01*
X111577835Y-83884473D01*
X111360181Y-83850000D01*
X111139819Y-83850000D01*
X110922164Y-83884473D01*
X110712589Y-83952567D01*
X110516236Y-84052615D01*
X110411531Y-84128687D01*
X110411530Y-84128688D01*
X110990084Y-84707242D01*
X110881592Y-84769881D01*
X110769881Y-84881592D01*
X110707242Y-84990084D01*
X110128688Y-84411530D01*
X110128687Y-84411531D01*
X110052615Y-84516236D01*
X109952567Y-84712589D01*
X109884473Y-84922164D01*
X109850000Y-85139818D01*
X108500000Y-85139818D01*
X108500000Y-84351362D01*
X108508644Y-84321921D01*
X108515168Y-84291935D01*
X108518922Y-84286919D01*
X108519685Y-84284323D01*
X108536319Y-84263681D01*
X109263681Y-83536319D01*
X109325004Y-83502834D01*
X109351362Y-83500000D01*
X114875500Y-83500000D01*
X114942539Y-83519685D01*
G37*
%TD.AperFunction*%
%TD*%
%TA.AperFunction,Conductor*%
%TO.N,+5V*%
G36*
X107643039Y-87219685D02*
G01*
X107688794Y-87272489D01*
X107700000Y-87324000D01*
X107700000Y-91362456D01*
X107680315Y-91429495D01*
X107679174Y-91431239D01*
X107536811Y-91644783D01*
X107483246Y-91689644D01*
X107433637Y-91700000D01*
X105424000Y-91700000D01*
X105356961Y-91680315D01*
X105311206Y-91627511D01*
X105300000Y-91576000D01*
X105300000Y-89399999D01*
X104755217Y-89036811D01*
X104710356Y-88983246D01*
X104700000Y-88933637D01*
X104700000Y-87324000D01*
X104719685Y-87256961D01*
X104772489Y-87211206D01*
X104824000Y-87200000D01*
X107576000Y-87200000D01*
X107643039Y-87219685D01*
G37*
%TD.AperFunction*%
%TD*%
%TA.AperFunction,Conductor*%
%TO.N,GND*%
G36*
X114942539Y-47020185D02*
G01*
X114988294Y-47072989D01*
X114999500Y-47124500D01*
X114999500Y-83170500D01*
X114979815Y-83237539D01*
X114927011Y-83283294D01*
X114875500Y-83294500D01*
X111811540Y-83294500D01*
X111744501Y-83274815D01*
X111698746Y-83222011D01*
X111688802Y-83152853D01*
X111717827Y-83089297D01*
X111773222Y-83052569D01*
X111787603Y-83047896D01*
X111787606Y-83047895D01*
X111984022Y-82947815D01*
X112162365Y-82818242D01*
X112318242Y-82662365D01*
X112447815Y-82484022D01*
X112547895Y-82287606D01*
X112616015Y-82077951D01*
X112650500Y-81860222D01*
X112650500Y-81639778D01*
X112616015Y-81422049D01*
X112573306Y-81290602D01*
X112547896Y-81212396D01*
X112547895Y-81212393D01*
X112513237Y-81144375D01*
X112447815Y-81015978D01*
X112431260Y-80993192D01*
X112318247Y-80837641D01*
X112318243Y-80837636D01*
X112162363Y-80681756D01*
X112162358Y-80681752D01*
X111984025Y-80552187D01*
X111984024Y-80552186D01*
X111984022Y-80552185D01*
X111921096Y-80520122D01*
X111787606Y-80452104D01*
X111787603Y-80452103D01*
X111577952Y-80383985D01*
X111469086Y-80366742D01*
X111360222Y-80349500D01*
X111139778Y-80349500D01*
X111067201Y-80360995D01*
X110922047Y-80383985D01*
X110712396Y-80452103D01*
X110712393Y-80452104D01*
X110515974Y-80552187D01*
X110337641Y-80681752D01*
X110337636Y-80681756D01*
X110181756Y-80837636D01*
X110181752Y-80837641D01*
X110052187Y-81015974D01*
X109952104Y-81212393D01*
X109952103Y-81212396D01*
X109883985Y-81422047D01*
X109849500Y-81639778D01*
X109849500Y-81860221D01*
X109883985Y-82077952D01*
X109952103Y-82287603D01*
X109952104Y-82287606D01*
X110052187Y-82484025D01*
X110181752Y-82662358D01*
X110181756Y-82662363D01*
X110337636Y-82818243D01*
X110337641Y-82818247D01*
X110493192Y-82931260D01*
X110515978Y-82947815D01*
X110644375Y-83013237D01*
X110712393Y-83047895D01*
X110712396Y-83047896D01*
X110726778Y-83052569D01*
X110784454Y-83092006D01*
X110811652Y-83156365D01*
X110799737Y-83225211D01*
X110752493Y-83276687D01*
X110688460Y-83294500D01*
X109351361Y-83294500D01*
X109329381Y-83295678D01*
X109303034Y-83298511D01*
X109303032Y-83298512D01*
X109226521Y-83322470D01*
X109226516Y-83322471D01*
X109165188Y-83355960D01*
X109118384Y-83390998D01*
X109118363Y-83391016D01*
X108391013Y-84118365D01*
X108391004Y-84118374D01*
X108380837Y-84129692D01*
X108380791Y-84129745D01*
X108376307Y-84134738D01*
X108371578Y-84140606D01*
X108371547Y-84140643D01*
X108359670Y-84155383D01*
X108356332Y-84160476D01*
X108356100Y-84160324D01*
X108351355Y-84167848D01*
X108350646Y-84168795D01*
X108350641Y-84168803D01*
X108338258Y-84195919D01*
X108336873Y-84198951D01*
X108322525Y-84226375D01*
X108321762Y-84228971D01*
X108322999Y-84229334D01*
X108315549Y-84245652D01*
X108315550Y-84245652D01*
X108314367Y-84248242D01*
X108314367Y-84248243D01*
X108310376Y-84266583D01*
X108308311Y-84274733D01*
X108307416Y-84277821D01*
X108307393Y-84277856D01*
X108307317Y-84278114D01*
X108307297Y-84278226D01*
X108302823Y-84293466D01*
X108302823Y-84293467D01*
X108302823Y-84293470D01*
X108294500Y-84351362D01*
X108294500Y-85155991D01*
X108294500Y-87001349D01*
X108299531Y-87046540D01*
X108308224Y-87085104D01*
X108311525Y-87099744D01*
X108314509Y-87111386D01*
X108358725Y-87191441D01*
X108392115Y-87228825D01*
X108405270Y-87243553D01*
X108450046Y-87281188D01*
X111935965Y-89448110D01*
X111982507Y-89500219D01*
X111994500Y-89553420D01*
X111994500Y-104025500D01*
X111996575Y-104044804D01*
X111984170Y-104113562D01*
X111936559Y-104164699D01*
X111892134Y-104180075D01*
X111892193Y-104180370D01*
X111890057Y-104180794D01*
X111889478Y-104180995D01*
X111888211Y-104181162D01*
X111653895Y-104243947D01*
X111429794Y-104336773D01*
X111429785Y-104336777D01*
X111219706Y-104458067D01*
X111027263Y-104605733D01*
X111027256Y-104605739D01*
X110855739Y-104777256D01*
X110855733Y-104777263D01*
X110708067Y-104969706D01*
X110586777Y-105179785D01*
X110586773Y-105179794D01*
X110493947Y-105403895D01*
X110431161Y-105638214D01*
X110399500Y-105878711D01*
X110399500Y-106121288D01*
X110431161Y-106361785D01*
X110493947Y-106596104D01*
X110556536Y-106747206D01*
X110586776Y-106820212D01*
X110708064Y-107030289D01*
X110708066Y-107030292D01*
X110708067Y-107030293D01*
X110855733Y-107222736D01*
X110855739Y-107222743D01*
X111027256Y-107394260D01*
X111027262Y-107394265D01*
X111219711Y-107541936D01*
X111429788Y-107663224D01*
X111653900Y-107756054D01*
X111888211Y-107818838D01*
X111890064Y-107819081D01*
X111890576Y-107819308D01*
X111892193Y-107819630D01*
X111892121Y-107819991D01*
X111953963Y-107847338D01*
X111992442Y-107905657D01*
X111996632Y-107959666D01*
X111994500Y-107974493D01*
X111994500Y-109565500D01*
X111974815Y-109632539D01*
X111922011Y-109678294D01*
X111870500Y-109689500D01*
X110130247Y-109689500D01*
X110071770Y-109701131D01*
X110071769Y-109701132D01*
X110005447Y-109745447D01*
X109961132Y-109811769D01*
X109961131Y-109811770D01*
X109949500Y-109870247D01*
X109949500Y-109915500D01*
X109929815Y-109982539D01*
X109877011Y-110028294D01*
X109825500Y-110039500D01*
X101491003Y-110039500D01*
X101382590Y-110061065D01*
X101382589Y-110061065D01*
X101355671Y-110066420D01*
X101228190Y-110119224D01*
X101113454Y-110195887D01*
X97455887Y-113853454D01*
X97379223Y-113968192D01*
X97326421Y-114095668D01*
X97326421Y-114095669D01*
X97326420Y-114095672D01*
X97310943Y-114173482D01*
X97310943Y-114173483D01*
X97303492Y-114210941D01*
X97299500Y-114231007D01*
X97299500Y-118531007D01*
X97299500Y-122368993D01*
X97299500Y-122368995D01*
X97299499Y-122368995D01*
X97326418Y-122504322D01*
X97326421Y-122504332D01*
X97379222Y-122631806D01*
X97379223Y-122631807D01*
X97379225Y-122631811D01*
X97428602Y-122705708D01*
X97449480Y-122772385D01*
X97449500Y-122774599D01*
X97449500Y-125003456D01*
X97429815Y-125070495D01*
X97413181Y-125091137D01*
X96841137Y-125663181D01*
X96779814Y-125696666D01*
X96753456Y-125699500D01*
X96734108Y-125699500D01*
X96606812Y-125733608D01*
X96492686Y-125799500D01*
X96492683Y-125799502D01*
X96399502Y-125892683D01*
X96399500Y-125892686D01*
X96333608Y-126006812D01*
X96300174Y-126131592D01*
X96299500Y-126134108D01*
X96299500Y-126265892D01*
X96305158Y-126287007D01*
X96333608Y-126393187D01*
X96364057Y-126445925D01*
X96399500Y-126507314D01*
X96492686Y-126600500D01*
X96606814Y-126666392D01*
X96734108Y-126700500D01*
X96734110Y-126700500D01*
X96865890Y-126700500D01*
X96865892Y-126700500D01*
X96993186Y-126666392D01*
X97107314Y-126600500D01*
X97200500Y-126507314D01*
X97266392Y-126393186D01*
X97300500Y-126265892D01*
X97300500Y-126246544D01*
X97320185Y-126179505D01*
X97336819Y-126158863D01*
X97619152Y-125876530D01*
X109949500Y-125876530D01*
X109949500Y-126083469D01*
X109989868Y-126286412D01*
X109989870Y-126286420D01*
X110068959Y-126477358D01*
X110069059Y-126477598D01*
X110088916Y-126507316D01*
X110184024Y-126649657D01*
X110330342Y-126795975D01*
X110330345Y-126795977D01*
X110502402Y-126910941D01*
X110693580Y-126990130D01*
X110894016Y-127029999D01*
X110896530Y-127030499D01*
X110896534Y-127030500D01*
X110896535Y-127030500D01*
X111103466Y-127030500D01*
X111103467Y-127030499D01*
X111306420Y-126990130D01*
X111497598Y-126910941D01*
X111669655Y-126795977D01*
X111682790Y-126782842D01*
X111749227Y-126716406D01*
X111815974Y-126649658D01*
X111815975Y-126649657D01*
X111815977Y-126649655D01*
X111930941Y-126477598D01*
X112010130Y-126286420D01*
X112050500Y-126083465D01*
X112050500Y-125876579D01*
X112490000Y-125876579D01*
X112490000Y-126083420D01*
X112530348Y-126286266D01*
X112530350Y-126286274D01*
X112609500Y-126477358D01*
X112609505Y-126477367D01*
X112669701Y-126567455D01*
X113071980Y-126165176D01*
X113074075Y-126172993D01*
X113139901Y-126287007D01*
X113232993Y-126380099D01*
X113347007Y-126445925D01*
X113354822Y-126448019D01*
X112952542Y-126850298D01*
X113042640Y-126910499D01*
X113233725Y-126989649D01*
X113233733Y-126989651D01*
X113436579Y-127029999D01*
X113436583Y-127030000D01*
X113643417Y-127030000D01*
X113643420Y-127029999D01*
X113846266Y-126989651D01*
X113846274Y-126989649D01*
X114037359Y-126910499D01*
X114127456Y-126850298D01*
X113725177Y-126448019D01*
X113732993Y-126445925D01*
X113847007Y-126380099D01*
X113940099Y-126287007D01*
X114005925Y-126172993D01*
X114008019Y-126165177D01*
X114410298Y-126567456D01*
X114470499Y-126477359D01*
X114549649Y-126286274D01*
X114549651Y-126286266D01*
X114589999Y-126083420D01*
X114590000Y-126083417D01*
X114590000Y-125876583D01*
X114589999Y-125876579D01*
X114549651Y-125673733D01*
X114549649Y-125673725D01*
X114470499Y-125482640D01*
X114410298Y-125392542D01*
X114008018Y-125794821D01*
X114005925Y-125787007D01*
X113940099Y-125672993D01*
X113847007Y-125579901D01*
X113732993Y-125514075D01*
X113725177Y-125511980D01*
X114127455Y-125109701D01*
X114127455Y-125109700D01*
X114037367Y-125049505D01*
X114037358Y-125049500D01*
X113846274Y-124970350D01*
X113846266Y-124970348D01*
X113643420Y-124930000D01*
X113436579Y-124930000D01*
X113233733Y-124970348D01*
X113233725Y-124970350D01*
X113042639Y-125049500D01*
X112952543Y-125109700D01*
X112952543Y-125109701D01*
X113354822Y-125511980D01*
X113347007Y-125514075D01*
X113232993Y-125579901D01*
X113139901Y-125672993D01*
X113074075Y-125787007D01*
X113071980Y-125794822D01*
X112669701Y-125392543D01*
X112669700Y-125392543D01*
X112609500Y-125482639D01*
X112530350Y-125673725D01*
X112530348Y-125673733D01*
X112490000Y-125876579D01*
X112050500Y-125876579D01*
X112050500Y-125876535D01*
X112010130Y-125673580D01*
X111930941Y-125482402D01*
X111815977Y-125310345D01*
X111815975Y-125310342D01*
X111669657Y-125164024D01*
X111573837Y-125100000D01*
X111497598Y-125049059D01*
X111306420Y-124969870D01*
X111306412Y-124969868D01*
X111103469Y-124929500D01*
X111103465Y-124929500D01*
X110896535Y-124929500D01*
X110896530Y-124929500D01*
X110693587Y-124969868D01*
X110693579Y-124969870D01*
X110502403Y-125049058D01*
X110330342Y-125164024D01*
X110184024Y-125310342D01*
X110069058Y-125482403D01*
X109989870Y-125673579D01*
X109989868Y-125673587D01*
X109949500Y-125876530D01*
X97619152Y-125876530D01*
X97712920Y-125782762D01*
X97834152Y-125661530D01*
X98080470Y-125415212D01*
X98126614Y-125335288D01*
X98133297Y-125310345D01*
X98150500Y-125246144D01*
X98150500Y-123336530D01*
X109949500Y-123336530D01*
X109949500Y-123543469D01*
X109989868Y-123746412D01*
X109989870Y-123746420D01*
X110069058Y-123937596D01*
X110184024Y-124109657D01*
X110330342Y-124255975D01*
X110330345Y-124255977D01*
X110502402Y-124370941D01*
X110693580Y-124450130D01*
X110896530Y-124490499D01*
X110896534Y-124490500D01*
X110896535Y-124490500D01*
X111103466Y-124490500D01*
X111103467Y-124490499D01*
X111306420Y-124450130D01*
X111497598Y-124370941D01*
X111669655Y-124255977D01*
X111815977Y-124109655D01*
X111930941Y-123937598D01*
X112010130Y-123746420D01*
X112050500Y-123543465D01*
X112050500Y-123336535D01*
X112050499Y-123336530D01*
X112489500Y-123336530D01*
X112489500Y-123543469D01*
X112529868Y-123746412D01*
X112529870Y-123746420D01*
X112609058Y-123937596D01*
X112724024Y-124109657D01*
X112870342Y-124255975D01*
X112870345Y-124255977D01*
X113042402Y-124370941D01*
X113233580Y-124450130D01*
X113436530Y-124490499D01*
X113436534Y-124490500D01*
X113436535Y-124490500D01*
X113643466Y-124490500D01*
X113643467Y-124490499D01*
X113846420Y-124450130D01*
X114037598Y-124370941D01*
X114209655Y-124255977D01*
X114355977Y-124109655D01*
X114470941Y-123937598D01*
X114550130Y-123746420D01*
X114590500Y-123543465D01*
X114590500Y-123336535D01*
X114550130Y-123133580D01*
X114470941Y-122942402D01*
X114355977Y-122770345D01*
X114355975Y-122770342D01*
X114209657Y-122624024D01*
X114123626Y-122566541D01*
X114037598Y-122509059D01*
X114026176Y-122504328D01*
X113846420Y-122429870D01*
X113846412Y-122429868D01*
X113643469Y-122389500D01*
X113643465Y-122389500D01*
X113436535Y-122389500D01*
X113436530Y-122389500D01*
X113233587Y-122429868D01*
X113233579Y-122429870D01*
X113042403Y-122509058D01*
X112870342Y-122624024D01*
X112724024Y-122770342D01*
X112609058Y-122942403D01*
X112529870Y-123133579D01*
X112529868Y-123133587D01*
X112489500Y-123336530D01*
X112050499Y-123336530D01*
X112010130Y-123133580D01*
X111930941Y-122942402D01*
X111815977Y-122770345D01*
X111815975Y-122770342D01*
X111669657Y-122624024D01*
X111583626Y-122566541D01*
X111497598Y-122509059D01*
X111486176Y-122504328D01*
X111306420Y-122429870D01*
X111306412Y-122429868D01*
X111103469Y-122389500D01*
X111103465Y-122389500D01*
X110896535Y-122389500D01*
X110896530Y-122389500D01*
X110693587Y-122429868D01*
X110693579Y-122429870D01*
X110502403Y-122509058D01*
X110330342Y-122624024D01*
X110184024Y-122770342D01*
X110069058Y-122942403D01*
X109989870Y-123133579D01*
X109989868Y-123133587D01*
X109949500Y-123336530D01*
X98150500Y-123336530D01*
X98150500Y-123078730D01*
X98170185Y-123011691D01*
X98222989Y-122965936D01*
X98227048Y-122964169D01*
X98331804Y-122920778D01*
X98331804Y-122920777D01*
X98331811Y-122920775D01*
X98446542Y-122844114D01*
X98544114Y-122746542D01*
X98620775Y-122631811D01*
X98624001Y-122624024D01*
X98671620Y-122509059D01*
X98673580Y-122504328D01*
X98700500Y-122368993D01*
X98700500Y-120796579D01*
X109950000Y-120796579D01*
X109950000Y-121003420D01*
X109990348Y-121206266D01*
X109990350Y-121206274D01*
X110069500Y-121397358D01*
X110069505Y-121397367D01*
X110129701Y-121487455D01*
X110531980Y-121085176D01*
X110534075Y-121092993D01*
X110599901Y-121207007D01*
X110692993Y-121300099D01*
X110807007Y-121365925D01*
X110814822Y-121368019D01*
X110412542Y-121770298D01*
X110502640Y-121830499D01*
X110693725Y-121909649D01*
X110693733Y-121909651D01*
X110896579Y-121949999D01*
X110896583Y-121950000D01*
X111103417Y-121950000D01*
X111103420Y-121949999D01*
X111306266Y-121909651D01*
X111306274Y-121909649D01*
X111497359Y-121830499D01*
X111587456Y-121770298D01*
X111185177Y-121368019D01*
X111192993Y-121365925D01*
X111307007Y-121300099D01*
X111400099Y-121207007D01*
X111465925Y-121092993D01*
X111468019Y-121085177D01*
X111870298Y-121487456D01*
X111930499Y-121397359D01*
X112009649Y-121206274D01*
X112009651Y-121206266D01*
X112049999Y-121003420D01*
X112050000Y-121003417D01*
X112050000Y-120796581D01*
X112049999Y-120796580D01*
X112049989Y-120796530D01*
X112489500Y-120796530D01*
X112489500Y-121003469D01*
X112529868Y-121206412D01*
X112529870Y-121206420D01*
X112609058Y-121397596D01*
X112724024Y-121569657D01*
X112870342Y-121715975D01*
X112870345Y-121715977D01*
X113042402Y-121830941D01*
X113233580Y-121910130D01*
X113434016Y-121949999D01*
X113436530Y-121950499D01*
X113436534Y-121950500D01*
X113436535Y-121950500D01*
X113643466Y-121950500D01*
X113643467Y-121950499D01*
X113846420Y-121910130D01*
X114037598Y-121830941D01*
X114209655Y-121715977D01*
X114355977Y-121569655D01*
X114470941Y-121397598D01*
X114550130Y-121206420D01*
X114590500Y-121003465D01*
X114590500Y-120796535D01*
X114550130Y-120593580D01*
X114470941Y-120402402D01*
X114355977Y-120230345D01*
X114355975Y-120230342D01*
X114209657Y-120084024D01*
X114038258Y-119969500D01*
X114037598Y-119969059D01*
X113846420Y-119889870D01*
X113846412Y-119889868D01*
X113643469Y-119849500D01*
X113643465Y-119849500D01*
X113436535Y-119849500D01*
X113436530Y-119849500D01*
X113233587Y-119889868D01*
X113233579Y-119889870D01*
X113042403Y-119969058D01*
X112870342Y-120084024D01*
X112724024Y-120230342D01*
X112609058Y-120402403D01*
X112529870Y-120593579D01*
X112529868Y-120593587D01*
X112489500Y-120796530D01*
X112049989Y-120796530D01*
X112009651Y-120593733D01*
X112009649Y-120593725D01*
X111930499Y-120402640D01*
X111870298Y-120312542D01*
X111468018Y-120714821D01*
X111465925Y-120707007D01*
X111400099Y-120592993D01*
X111307007Y-120499901D01*
X111192993Y-120434075D01*
X111185177Y-120431980D01*
X111587455Y-120029701D01*
X111587455Y-120029700D01*
X111497367Y-119969505D01*
X111497358Y-119969500D01*
X111306274Y-119890350D01*
X111306266Y-119890348D01*
X111103420Y-119850000D01*
X110896579Y-119850000D01*
X110693733Y-119890348D01*
X110693725Y-119890350D01*
X110502639Y-119969500D01*
X110412543Y-120029700D01*
X110412543Y-120029701D01*
X110814822Y-120431980D01*
X110807007Y-120434075D01*
X110692993Y-120499901D01*
X110599901Y-120592993D01*
X110534075Y-120707007D01*
X110531980Y-120714822D01*
X110129701Y-120312543D01*
X110129700Y-120312543D01*
X110069500Y-120402639D01*
X109990350Y-120593725D01*
X109990348Y-120593733D01*
X109950000Y-120796579D01*
X98700500Y-120796579D01*
X98700500Y-118531007D01*
X98700500Y-118256530D01*
X109949500Y-118256530D01*
X109949500Y-118463469D01*
X109989868Y-118666412D01*
X109989870Y-118666420D01*
X110069058Y-118857596D01*
X110184024Y-119029657D01*
X110330342Y-119175975D01*
X110330345Y-119175977D01*
X110502402Y-119290941D01*
X110693580Y-119370130D01*
X110896530Y-119410499D01*
X110896534Y-119410500D01*
X110896535Y-119410500D01*
X111103466Y-119410500D01*
X111103467Y-119410499D01*
X111306420Y-119370130D01*
X111497598Y-119290941D01*
X111669655Y-119175977D01*
X111815977Y-119029655D01*
X111930941Y-118857598D01*
X112010130Y-118666420D01*
X112050500Y-118463465D01*
X112050500Y-118256535D01*
X112050499Y-118256530D01*
X112489500Y-118256530D01*
X112489500Y-118463469D01*
X112529868Y-118666412D01*
X112529870Y-118666420D01*
X112609058Y-118857596D01*
X112724024Y-119029657D01*
X112870342Y-119175975D01*
X112870345Y-119175977D01*
X113042402Y-119290941D01*
X113233580Y-119370130D01*
X113436530Y-119410499D01*
X113436534Y-119410500D01*
X113436535Y-119410500D01*
X113643466Y-119410500D01*
X113643467Y-119410499D01*
X113846420Y-119370130D01*
X114037598Y-119290941D01*
X114209655Y-119175977D01*
X114355977Y-119029655D01*
X114470941Y-118857598D01*
X114550130Y-118666420D01*
X114590500Y-118463465D01*
X114590500Y-118256535D01*
X114550130Y-118053580D01*
X114470941Y-117862402D01*
X114355977Y-117690345D01*
X114355975Y-117690342D01*
X114209657Y-117544024D01*
X114123626Y-117486541D01*
X114037598Y-117429059D01*
X113846420Y-117349870D01*
X113846412Y-117349868D01*
X113643469Y-117309500D01*
X113643465Y-117309500D01*
X113436535Y-117309500D01*
X113436530Y-117309500D01*
X113233587Y-117349868D01*
X113233579Y-117349870D01*
X113042403Y-117429058D01*
X112870342Y-117544024D01*
X112724024Y-117690342D01*
X112609058Y-117862403D01*
X112529870Y-118053579D01*
X112529868Y-118053587D01*
X112489500Y-118256530D01*
X112050499Y-118256530D01*
X112010130Y-118053580D01*
X111930941Y-117862402D01*
X111815977Y-117690345D01*
X111815975Y-117690342D01*
X111669657Y-117544024D01*
X111583626Y-117486541D01*
X111497598Y-117429059D01*
X111306420Y-117349870D01*
X111306412Y-117349868D01*
X111103469Y-117309500D01*
X111103465Y-117309500D01*
X110896535Y-117309500D01*
X110896530Y-117309500D01*
X110693587Y-117349868D01*
X110693579Y-117349870D01*
X110502403Y-117429058D01*
X110330342Y-117544024D01*
X110184024Y-117690342D01*
X110069058Y-117862403D01*
X109989870Y-118053579D01*
X109989868Y-118053587D01*
X109949500Y-118256530D01*
X98700500Y-118256530D01*
X98700500Y-115716530D01*
X109949500Y-115716530D01*
X109949500Y-115923469D01*
X109989868Y-116126412D01*
X109989870Y-116126420D01*
X110069058Y-116317596D01*
X110184024Y-116489657D01*
X110330342Y-116635975D01*
X110330345Y-116635977D01*
X110502402Y-116750941D01*
X110693580Y-116830130D01*
X110894016Y-116869999D01*
X110896530Y-116870499D01*
X110896534Y-116870500D01*
X110896535Y-116870500D01*
X111103466Y-116870500D01*
X111103467Y-116870499D01*
X111306420Y-116830130D01*
X111497598Y-116750941D01*
X111669655Y-116635977D01*
X111669658Y-116635974D01*
X111749227Y-116556406D01*
X111815974Y-116489658D01*
X111815975Y-116489657D01*
X111815977Y-116489655D01*
X111930941Y-116317598D01*
X112010130Y-116126420D01*
X112050500Y-115923465D01*
X112050500Y-115716579D01*
X112490000Y-115716579D01*
X112490000Y-115923420D01*
X112530348Y-116126266D01*
X112530350Y-116126274D01*
X112609500Y-116317358D01*
X112609505Y-116317367D01*
X112669701Y-116407455D01*
X113071980Y-116005176D01*
X113074075Y-116012993D01*
X113139901Y-116127007D01*
X113232993Y-116220099D01*
X113347007Y-116285925D01*
X113354822Y-116288019D01*
X112952542Y-116690298D01*
X113042640Y-116750499D01*
X113233725Y-116829649D01*
X113233733Y-116829651D01*
X113436579Y-116869999D01*
X113436583Y-116870000D01*
X113643417Y-116870000D01*
X113643420Y-116869999D01*
X113846266Y-116829651D01*
X113846274Y-116829649D01*
X114037359Y-116750499D01*
X114127456Y-116690298D01*
X113725177Y-116288019D01*
X113732993Y-116285925D01*
X113847007Y-116220099D01*
X113940099Y-116127007D01*
X114005925Y-116012993D01*
X114008019Y-116005177D01*
X114410298Y-116407456D01*
X114470499Y-116317359D01*
X114549649Y-116126274D01*
X114549651Y-116126266D01*
X114589999Y-115923420D01*
X114590000Y-115923417D01*
X114590000Y-115716583D01*
X114589999Y-115716579D01*
X114549651Y-115513733D01*
X114549649Y-115513725D01*
X114470499Y-115322640D01*
X114410298Y-115232542D01*
X114008018Y-115634821D01*
X114005925Y-115627007D01*
X113940099Y-115512993D01*
X113847007Y-115419901D01*
X113732993Y-115354075D01*
X113725177Y-115351980D01*
X114127455Y-114949701D01*
X114127455Y-114949700D01*
X114037367Y-114889505D01*
X114037358Y-114889500D01*
X113846274Y-114810350D01*
X113846266Y-114810348D01*
X113643420Y-114770000D01*
X113436579Y-114770000D01*
X113233733Y-114810348D01*
X113233725Y-114810350D01*
X113042639Y-114889500D01*
X112952543Y-114949700D01*
X112952543Y-114949701D01*
X113354822Y-115351980D01*
X113347007Y-115354075D01*
X113232993Y-115419901D01*
X113139901Y-115512993D01*
X113074075Y-115627007D01*
X113071980Y-115634822D01*
X112669701Y-115232543D01*
X112669700Y-115232543D01*
X112609500Y-115322639D01*
X112530350Y-115513725D01*
X112530348Y-115513733D01*
X112490000Y-115716579D01*
X112050500Y-115716579D01*
X112050500Y-115716535D01*
X112010130Y-115513580D01*
X111930941Y-115322402D01*
X111815977Y-115150345D01*
X111815975Y-115150342D01*
X111669657Y-115004024D01*
X111498258Y-114889500D01*
X111497598Y-114889059D01*
X111306420Y-114809870D01*
X111306412Y-114809868D01*
X111103469Y-114769500D01*
X111103465Y-114769500D01*
X110896535Y-114769500D01*
X110896530Y-114769500D01*
X110693587Y-114809868D01*
X110693579Y-114809870D01*
X110502403Y-114889058D01*
X110330342Y-115004024D01*
X110184024Y-115150342D01*
X110069058Y-115322403D01*
X109989870Y-115513579D01*
X109989868Y-115513587D01*
X109949500Y-115716530D01*
X98700500Y-115716530D01*
X98700500Y-114641519D01*
X98720185Y-114574480D01*
X98736819Y-114553838D01*
X101813838Y-111476819D01*
X101875161Y-111443334D01*
X101901519Y-111440500D01*
X109825500Y-111440500D01*
X109892539Y-111460185D01*
X109938294Y-111512989D01*
X109949500Y-111564500D01*
X109949500Y-111609752D01*
X109961131Y-111668229D01*
X109961132Y-111668230D01*
X110005447Y-111734552D01*
X110071769Y-111778867D01*
X110071770Y-111778868D01*
X110130247Y-111790499D01*
X110130250Y-111790500D01*
X111870500Y-111790500D01*
X111937539Y-111810185D01*
X111983294Y-111862989D01*
X111994500Y-111914500D01*
X111994500Y-112489505D01*
X111974815Y-112556544D01*
X111922011Y-112602299D01*
X111852853Y-112612243D01*
X111789297Y-112583218D01*
X111782819Y-112577186D01*
X111669657Y-112464024D01*
X111583626Y-112406541D01*
X111497598Y-112349059D01*
X111306420Y-112269870D01*
X111306412Y-112269868D01*
X111103469Y-112229500D01*
X111103465Y-112229500D01*
X110896535Y-112229500D01*
X110896530Y-112229500D01*
X110693587Y-112269868D01*
X110693579Y-112269870D01*
X110502403Y-112349058D01*
X110330342Y-112464024D01*
X110184024Y-112610342D01*
X110069058Y-112782403D01*
X109989870Y-112973579D01*
X109989868Y-112973587D01*
X109949500Y-113176530D01*
X109949500Y-113383469D01*
X109989868Y-113586412D01*
X109989870Y-113586420D01*
X110069058Y-113777596D01*
X110184024Y-113949657D01*
X110330342Y-114095975D01*
X110330345Y-114095977D01*
X110502402Y-114210941D01*
X110693580Y-114290130D01*
X110854647Y-114322168D01*
X110896530Y-114330499D01*
X110896534Y-114330500D01*
X110896535Y-114330500D01*
X111103466Y-114330500D01*
X111103467Y-114330499D01*
X111306420Y-114290130D01*
X111497598Y-114210941D01*
X111669655Y-114095977D01*
X111783763Y-113981868D01*
X111845084Y-113948385D01*
X111914776Y-113953369D01*
X111970710Y-113995240D01*
X111995127Y-114060704D01*
X111995265Y-114062905D01*
X111995679Y-114070622D01*
X111998511Y-114096965D01*
X111998512Y-114096967D01*
X111999462Y-114100000D01*
X112022471Y-114173482D01*
X112055956Y-114234805D01*
X112055958Y-114234808D01*
X112055960Y-114234811D01*
X112090998Y-114281615D01*
X112091002Y-114281619D01*
X112091009Y-114281629D01*
X112091016Y-114281636D01*
X112318365Y-114508986D01*
X112318366Y-114508987D01*
X112334716Y-114523674D01*
X112334730Y-114523686D01*
X112334738Y-114523693D01*
X112343136Y-114530460D01*
X112355379Y-114540327D01*
X112426424Y-114577490D01*
X112493456Y-114597173D01*
X112493458Y-114597173D01*
X112493464Y-114597175D01*
X112551362Y-114605500D01*
X112551366Y-114605500D01*
X112917476Y-114605500D01*
X112922115Y-114605188D01*
X112944902Y-114603661D01*
X112944906Y-114603660D01*
X112944912Y-114603660D01*
X112944922Y-114603659D01*
X112961553Y-114601418D01*
X112977708Y-114599243D01*
X113058279Y-114570415D01*
X113117722Y-114533696D01*
X113138262Y-114519201D01*
X113195101Y-114447551D01*
X113225255Y-114384523D01*
X113225260Y-114384508D01*
X113225641Y-114383714D01*
X113272330Y-114331735D01*
X113339710Y-114313249D01*
X113361683Y-114315611D01*
X113421740Y-114327557D01*
X113436534Y-114330500D01*
X113436535Y-114330500D01*
X113643466Y-114330500D01*
X113661430Y-114326926D01*
X113716656Y-114315941D01*
X113786246Y-114322168D01*
X113841424Y-114365030D01*
X113850279Y-114379243D01*
X113851413Y-114381372D01*
X113851414Y-114381373D01*
X113852661Y-114383714D01*
X113894423Y-114462083D01*
X113894425Y-114462086D01*
X113940184Y-114514895D01*
X113948786Y-114523674D01*
X113957770Y-114532843D01*
X113957771Y-114532844D01*
X113957773Y-114532845D01*
X114037040Y-114577184D01*
X114037587Y-114577490D01*
X114104626Y-114597175D01*
X114162524Y-114605500D01*
X114162528Y-114605500D01*
X114875500Y-114605500D01*
X114942539Y-114625185D01*
X114988294Y-114677989D01*
X114999500Y-114729500D01*
X114999500Y-166075500D01*
X114979815Y-166142539D01*
X114927011Y-166188294D01*
X114875500Y-166199500D01*
X59624000Y-166199500D01*
X59556961Y-166179815D01*
X59511206Y-166127011D01*
X59500000Y-166075500D01*
X59500000Y-163878711D01*
X61399500Y-163878711D01*
X61399500Y-164121288D01*
X61431161Y-164361785D01*
X61493947Y-164596104D01*
X61586773Y-164820205D01*
X61586776Y-164820212D01*
X61708064Y-165030289D01*
X61708066Y-165030292D01*
X61708067Y-165030293D01*
X61855733Y-165222736D01*
X61855739Y-165222743D01*
X62027256Y-165394260D01*
X62027262Y-165394265D01*
X62219711Y-165541936D01*
X62429788Y-165663224D01*
X62653900Y-165756054D01*
X62888211Y-165818838D01*
X63068586Y-165842584D01*
X63128711Y-165850500D01*
X63128712Y-165850500D01*
X63371289Y-165850500D01*
X63419388Y-165844167D01*
X63611789Y-165818838D01*
X63846100Y-165756054D01*
X64070212Y-165663224D01*
X64280289Y-165541936D01*
X64472738Y-165394265D01*
X64644265Y-165222738D01*
X64791936Y-165030289D01*
X64913224Y-164820212D01*
X65006054Y-164596100D01*
X65068838Y-164361789D01*
X65100500Y-164121288D01*
X65100500Y-163878712D01*
X65100500Y-163878711D01*
X110399500Y-163878711D01*
X110399500Y-164121288D01*
X110431161Y-164361785D01*
X110493947Y-164596104D01*
X110586773Y-164820205D01*
X110586776Y-164820212D01*
X110708064Y-165030289D01*
X110708066Y-165030292D01*
X110708067Y-165030293D01*
X110855733Y-165222736D01*
X110855739Y-165222743D01*
X111027256Y-165394260D01*
X111027262Y-165394265D01*
X111219711Y-165541936D01*
X111429788Y-165663224D01*
X111653900Y-165756054D01*
X111888211Y-165818838D01*
X112068586Y-165842584D01*
X112128711Y-165850500D01*
X112128712Y-165850500D01*
X112371289Y-165850500D01*
X112419388Y-165844167D01*
X112611789Y-165818838D01*
X112846100Y-165756054D01*
X113070212Y-165663224D01*
X113280289Y-165541936D01*
X113472738Y-165394265D01*
X113644265Y-165222738D01*
X113791936Y-165030289D01*
X113913224Y-164820212D01*
X114006054Y-164596100D01*
X114068838Y-164361789D01*
X114100500Y-164121288D01*
X114100500Y-163878712D01*
X114068838Y-163638211D01*
X114006054Y-163403900D01*
X113913224Y-163179788D01*
X113791936Y-162969711D01*
X113644265Y-162777262D01*
X113644260Y-162777256D01*
X113472743Y-162605739D01*
X113472736Y-162605733D01*
X113280293Y-162458067D01*
X113280292Y-162458066D01*
X113280289Y-162458064D01*
X113070212Y-162336776D01*
X113070205Y-162336773D01*
X112846104Y-162243947D01*
X112611785Y-162181161D01*
X112371289Y-162149500D01*
X112371288Y-162149500D01*
X112128712Y-162149500D01*
X112128711Y-162149500D01*
X111888214Y-162181161D01*
X111653895Y-162243947D01*
X111429794Y-162336773D01*
X111429785Y-162336777D01*
X111219706Y-162458067D01*
X111027263Y-162605733D01*
X111027256Y-162605739D01*
X110855739Y-162777256D01*
X110855733Y-162777263D01*
X110708067Y-162969706D01*
X110586777Y-163179785D01*
X110586773Y-163179794D01*
X110493947Y-163403895D01*
X110431161Y-163638214D01*
X110399500Y-163878711D01*
X65100500Y-163878711D01*
X65068838Y-163638211D01*
X65006054Y-163403900D01*
X64913224Y-163179788D01*
X64791936Y-162969711D01*
X64644265Y-162777262D01*
X64644260Y-162777256D01*
X64472743Y-162605739D01*
X64472736Y-162605733D01*
X64280293Y-162458067D01*
X64280292Y-162458066D01*
X64280289Y-162458064D01*
X64070212Y-162336776D01*
X64070205Y-162336773D01*
X63846104Y-162243947D01*
X63611785Y-162181161D01*
X63371289Y-162149500D01*
X63371288Y-162149500D01*
X63128712Y-162149500D01*
X63128711Y-162149500D01*
X62888214Y-162181161D01*
X62653895Y-162243947D01*
X62429794Y-162336773D01*
X62429785Y-162336777D01*
X62219706Y-162458067D01*
X62027263Y-162605733D01*
X62027256Y-162605739D01*
X61855739Y-162777256D01*
X61855733Y-162777263D01*
X61708067Y-162969706D01*
X61586777Y-163179785D01*
X61586773Y-163179794D01*
X61493947Y-163403895D01*
X61431161Y-163638214D01*
X61399500Y-163878711D01*
X59500000Y-163878711D01*
X59500000Y-158495731D01*
X63817000Y-158495731D01*
X63817000Y-160504258D01*
X63819854Y-160534698D01*
X63819854Y-160534699D01*
X63864706Y-160662881D01*
X63864707Y-160662882D01*
X63945350Y-160772150D01*
X64054618Y-160852793D01*
X64182802Y-160897646D01*
X64182801Y-160897646D01*
X64186771Y-160898018D01*
X64213235Y-160900500D01*
X66221764Y-160900499D01*
X66252198Y-160897646D01*
X66380382Y-160852793D01*
X66489650Y-160772150D01*
X66570293Y-160662882D01*
X66615146Y-160534698D01*
X66618000Y-160504265D01*
X66617999Y-159500000D01*
X66617999Y-158896579D01*
X109950000Y-158896579D01*
X109950000Y-159103420D01*
X109990348Y-159306266D01*
X109990350Y-159306274D01*
X110069500Y-159497358D01*
X110069505Y-159497367D01*
X110129701Y-159587455D01*
X110531980Y-159185176D01*
X110534075Y-159192993D01*
X110599901Y-159307007D01*
X110692993Y-159400099D01*
X110807007Y-159465925D01*
X110814822Y-159468019D01*
X110412542Y-159870298D01*
X110502640Y-159930499D01*
X110693725Y-160009649D01*
X110693733Y-160009651D01*
X110896579Y-160049999D01*
X110896583Y-160050000D01*
X111103417Y-160050000D01*
X111103420Y-160049999D01*
X111306266Y-160009651D01*
X111306274Y-160009649D01*
X111497359Y-159930499D01*
X111587456Y-159870298D01*
X111185177Y-159468019D01*
X111192993Y-159465925D01*
X111307007Y-159400099D01*
X111400099Y-159307007D01*
X111465925Y-159192993D01*
X111468019Y-159185177D01*
X111870298Y-159587456D01*
X111930499Y-159497359D01*
X112009649Y-159306274D01*
X112009651Y-159306266D01*
X112049999Y-159103420D01*
X112050000Y-159103417D01*
X112050000Y-158896581D01*
X112049999Y-158896580D01*
X112049989Y-158896530D01*
X112489500Y-158896530D01*
X112489500Y-159103469D01*
X112529868Y-159306412D01*
X112529870Y-159306420D01*
X112609058Y-159497596D01*
X112724024Y-159669657D01*
X112870342Y-159815975D01*
X112870345Y-159815977D01*
X113042402Y-159930941D01*
X113233580Y-160010130D01*
X113434016Y-160049999D01*
X113436530Y-160050499D01*
X113436534Y-160050500D01*
X113436535Y-160050500D01*
X113643466Y-160050500D01*
X113643467Y-160050499D01*
X113846420Y-160010130D01*
X114037598Y-159930941D01*
X114209655Y-159815977D01*
X114355977Y-159669655D01*
X114470941Y-159497598D01*
X114550130Y-159306420D01*
X114590500Y-159103465D01*
X114590500Y-158896535D01*
X114550130Y-158693580D01*
X114470941Y-158502402D01*
X114355977Y-158330345D01*
X114355975Y-158330342D01*
X114209657Y-158184024D01*
X114038258Y-158069500D01*
X114037598Y-158069059D01*
X113846420Y-157989870D01*
X113846412Y-157989868D01*
X113643469Y-157949500D01*
X113643465Y-157949500D01*
X113436535Y-157949500D01*
X113436530Y-157949500D01*
X113233587Y-157989868D01*
X113233579Y-157989870D01*
X113042403Y-158069058D01*
X112870342Y-158184024D01*
X112724024Y-158330342D01*
X112609058Y-158502403D01*
X112529870Y-158693579D01*
X112529868Y-158693587D01*
X112489500Y-158896530D01*
X112049989Y-158896530D01*
X112009651Y-158693733D01*
X112009649Y-158693725D01*
X111930499Y-158502640D01*
X111870298Y-158412542D01*
X111468018Y-158814821D01*
X111465925Y-158807007D01*
X111400099Y-158692993D01*
X111307007Y-158599901D01*
X111192993Y-158534075D01*
X111185177Y-158531980D01*
X111587455Y-158129701D01*
X111587455Y-158129700D01*
X111497367Y-158069505D01*
X111497358Y-158069500D01*
X111306274Y-157990350D01*
X111306266Y-157990348D01*
X111103420Y-157950000D01*
X110896579Y-157950000D01*
X110693733Y-157990348D01*
X110693725Y-157990350D01*
X110502639Y-158069500D01*
X110412543Y-158129700D01*
X110412543Y-158129701D01*
X110814822Y-158531980D01*
X110807007Y-158534075D01*
X110692993Y-158599901D01*
X110599901Y-158692993D01*
X110534075Y-158807007D01*
X110531980Y-158814822D01*
X110129701Y-158412543D01*
X110129700Y-158412543D01*
X110069500Y-158502639D01*
X109990350Y-158693725D01*
X109990348Y-158693733D01*
X109950000Y-158896579D01*
X66617999Y-158896579D01*
X66617999Y-158890492D01*
X66617999Y-158495741D01*
X66617999Y-158495736D01*
X66615146Y-158465302D01*
X66570293Y-158337118D01*
X66570291Y-158337115D01*
X66505664Y-158249548D01*
X66505662Y-158249546D01*
X66489650Y-158227850D01*
X66380382Y-158147207D01*
X66380381Y-158147206D01*
X66252195Y-158102353D01*
X66252198Y-158102353D01*
X66221768Y-158099500D01*
X64213241Y-158099500D01*
X64182801Y-158102354D01*
X64182800Y-158102354D01*
X64054618Y-158147206D01*
X63945350Y-158227850D01*
X63864706Y-158337118D01*
X63819853Y-158465302D01*
X63817000Y-158495731D01*
X59500000Y-158495731D01*
X59500000Y-155889778D01*
X63817000Y-155889778D01*
X63817000Y-156110222D01*
X63820833Y-156134421D01*
X63851485Y-156327952D01*
X63919603Y-156537603D01*
X63919604Y-156537606D01*
X63987622Y-156671096D01*
X64012777Y-156720465D01*
X64019687Y-156734025D01*
X64149252Y-156912358D01*
X64149256Y-156912363D01*
X64305136Y-157068243D01*
X64305141Y-157068247D01*
X64389663Y-157129655D01*
X64483478Y-157197815D01*
X64611875Y-157263237D01*
X64679893Y-157297895D01*
X64679896Y-157297896D01*
X64784721Y-157331955D01*
X64889549Y-157366015D01*
X65107278Y-157400500D01*
X65107279Y-157400500D01*
X65327721Y-157400500D01*
X65327722Y-157400500D01*
X65545451Y-157366015D01*
X65755106Y-157297895D01*
X65951522Y-157197815D01*
X66129865Y-157068242D01*
X66285742Y-156912365D01*
X66415315Y-156734022D01*
X66515395Y-156537606D01*
X66583515Y-156327951D01*
X66618000Y-156110222D01*
X66618000Y-155889778D01*
X66583515Y-155672049D01*
X66549455Y-155567221D01*
X66515396Y-155462396D01*
X66515395Y-155462393D01*
X66480737Y-155394375D01*
X66415315Y-155265978D01*
X66398760Y-155243192D01*
X66285747Y-155087641D01*
X66285743Y-155087636D01*
X66129863Y-154931756D01*
X66129858Y-154931752D01*
X65951525Y-154802187D01*
X65951524Y-154802186D01*
X65951522Y-154802185D01*
X65888596Y-154770122D01*
X65755106Y-154702104D01*
X65755103Y-154702103D01*
X65545452Y-154633985D01*
X65436586Y-154616742D01*
X65327722Y-154599500D01*
X65107278Y-154599500D01*
X65034701Y-154610995D01*
X64889547Y-154633985D01*
X64679896Y-154702103D01*
X64679893Y-154702104D01*
X64483474Y-154802187D01*
X64305141Y-154931752D01*
X64305136Y-154931756D01*
X64149256Y-155087636D01*
X64149252Y-155087641D01*
X64019687Y-155265974D01*
X63919604Y-155462393D01*
X63919603Y-155462396D01*
X63851485Y-155672047D01*
X63851485Y-155672049D01*
X63817000Y-155889778D01*
X59500000Y-155889778D01*
X59500000Y-152389818D01*
X63817500Y-152389818D01*
X63817500Y-152610181D01*
X63851973Y-152827835D01*
X63920067Y-153037410D01*
X64020113Y-153233760D01*
X64096188Y-153338467D01*
X64096189Y-153338468D01*
X64674742Y-152759914D01*
X64737381Y-152868408D01*
X64849092Y-152980119D01*
X64957583Y-153042757D01*
X64379030Y-153621310D01*
X64483739Y-153697386D01*
X64680089Y-153797432D01*
X64889664Y-153865526D01*
X65107319Y-153900000D01*
X65327681Y-153900000D01*
X65545335Y-153865526D01*
X65754910Y-153797432D01*
X65951252Y-153697390D01*
X65951258Y-153697386D01*
X66055967Y-153621310D01*
X66055968Y-153621309D01*
X65477416Y-153042757D01*
X65585908Y-152980119D01*
X65697619Y-152868408D01*
X65760257Y-152759915D01*
X66338809Y-153338468D01*
X66338810Y-153338467D01*
X66414886Y-153233758D01*
X66414890Y-153233752D01*
X66514932Y-153037410D01*
X66583026Y-152827835D01*
X66617500Y-152610181D01*
X66617500Y-152389818D01*
X66583026Y-152172164D01*
X66514932Y-151962589D01*
X66414886Y-151766239D01*
X66338810Y-151661531D01*
X66338810Y-151661530D01*
X65760257Y-152240083D01*
X65697619Y-152131592D01*
X65585908Y-152019881D01*
X65477415Y-151957242D01*
X66055968Y-151378689D01*
X66055967Y-151378688D01*
X65951260Y-151302613D01*
X65754910Y-151202567D01*
X65545335Y-151134473D01*
X65327681Y-151100000D01*
X65107319Y-151100000D01*
X64889664Y-151134473D01*
X64680089Y-151202567D01*
X64483736Y-151302615D01*
X64379031Y-151378687D01*
X64379030Y-151378688D01*
X64957584Y-151957242D01*
X64849092Y-152019881D01*
X64737381Y-152131592D01*
X64674742Y-152240084D01*
X64096188Y-151661530D01*
X64096187Y-151661531D01*
X64020115Y-151766236D01*
X63920067Y-151962589D01*
X63851973Y-152172164D01*
X63817500Y-152389818D01*
X59500000Y-152389818D01*
X59500000Y-150109108D01*
X97474500Y-150109108D01*
X97474500Y-150240891D01*
X97508608Y-150368187D01*
X97509579Y-150369868D01*
X97574500Y-150482314D01*
X97667686Y-150575500D01*
X97766521Y-150632563D01*
X97778597Y-150639535D01*
X97781814Y-150641392D01*
X97909108Y-150675500D01*
X97963811Y-150675500D01*
X98030850Y-150695185D01*
X98051492Y-150711819D01*
X104060138Y-156720465D01*
X104134361Y-156763318D01*
X104217147Y-156785500D01*
X109914919Y-156785500D01*
X109981958Y-156805185D01*
X110027713Y-156857989D01*
X110029480Y-156862047D01*
X110069057Y-156957596D01*
X110184024Y-157129657D01*
X110330342Y-157275975D01*
X110330345Y-157275977D01*
X110502402Y-157390941D01*
X110693580Y-157470130D01*
X110896530Y-157510499D01*
X110896534Y-157510500D01*
X110896535Y-157510500D01*
X111103466Y-157510500D01*
X111103467Y-157510499D01*
X111306420Y-157470130D01*
X111497598Y-157390941D01*
X111669655Y-157275977D01*
X111815977Y-157129655D01*
X111930941Y-156957598D01*
X112010130Y-156766420D01*
X112050500Y-156563465D01*
X112050500Y-156356535D01*
X112050499Y-156356530D01*
X112489500Y-156356530D01*
X112489500Y-156563469D01*
X112529868Y-156766412D01*
X112529870Y-156766420D01*
X112609058Y-156957596D01*
X112724024Y-157129657D01*
X112870342Y-157275975D01*
X112870345Y-157275977D01*
X113042402Y-157390941D01*
X113233580Y-157470130D01*
X113436530Y-157510499D01*
X113436534Y-157510500D01*
X113436535Y-157510500D01*
X113643466Y-157510500D01*
X113643467Y-157510499D01*
X113846420Y-157470130D01*
X114037598Y-157390941D01*
X114209655Y-157275977D01*
X114355977Y-157129655D01*
X114470941Y-156957598D01*
X114550130Y-156766420D01*
X114590500Y-156563465D01*
X114590500Y-156356535D01*
X114550130Y-156153580D01*
X114470941Y-155962402D01*
X114355977Y-155790345D01*
X114355975Y-155790342D01*
X114209657Y-155644024D01*
X114123626Y-155586541D01*
X114037598Y-155529059D01*
X113846420Y-155449870D01*
X113846412Y-155449868D01*
X113643469Y-155409500D01*
X113643465Y-155409500D01*
X113436535Y-155409500D01*
X113436530Y-155409500D01*
X113233587Y-155449868D01*
X113233579Y-155449870D01*
X113042403Y-155529058D01*
X112870342Y-155644024D01*
X112724024Y-155790342D01*
X112609058Y-155962403D01*
X112529870Y-156153579D01*
X112529868Y-156153587D01*
X112489500Y-156356530D01*
X112050499Y-156356530D01*
X112010130Y-156153580D01*
X111930941Y-155962402D01*
X111815977Y-155790345D01*
X111815975Y-155790342D01*
X111669657Y-155644024D01*
X111583626Y-155586541D01*
X111497598Y-155529059D01*
X111306420Y-155449870D01*
X111306412Y-155449868D01*
X111103469Y-155409500D01*
X111103465Y-155409500D01*
X110896535Y-155409500D01*
X110896530Y-155409500D01*
X110693587Y-155449868D01*
X110693579Y-155449870D01*
X110502403Y-155529058D01*
X110330342Y-155644024D01*
X110184024Y-155790342D01*
X110069057Y-155962403D01*
X110029480Y-156057953D01*
X109985639Y-156112356D01*
X109919345Y-156134421D01*
X109914919Y-156134500D01*
X104446189Y-156134500D01*
X104379150Y-156114815D01*
X104358508Y-156098181D01*
X98511819Y-150251492D01*
X98478334Y-150190169D01*
X98475500Y-150163811D01*
X98475500Y-150109110D01*
X98475500Y-150109108D01*
X98441392Y-149981814D01*
X98375500Y-149867686D01*
X98282314Y-149774500D01*
X98225250Y-149741554D01*
X98168187Y-149708608D01*
X98104539Y-149691554D01*
X98040892Y-149674500D01*
X97909108Y-149674500D01*
X97781812Y-149708608D01*
X97667686Y-149774500D01*
X97667683Y-149774502D01*
X97574502Y-149867683D01*
X97574500Y-149867686D01*
X97508608Y-149981812D01*
X97474500Y-150109108D01*
X59500000Y-150109108D01*
X59500000Y-145495731D01*
X63867000Y-145495731D01*
X63867000Y-147504258D01*
X63869854Y-147534698D01*
X63869854Y-147534699D01*
X63914706Y-147662881D01*
X63914707Y-147662882D01*
X63995350Y-147772150D01*
X64104618Y-147852793D01*
X64232802Y-147897646D01*
X64232801Y-147897646D01*
X64236771Y-147898018D01*
X64263235Y-147900500D01*
X66271764Y-147900499D01*
X66302198Y-147897646D01*
X66430382Y-147852793D01*
X66539650Y-147772150D01*
X66620293Y-147662882D01*
X66665146Y-147534698D01*
X66668000Y-147504265D01*
X66667999Y-145495736D01*
X66665146Y-145465302D01*
X66620293Y-145337118D01*
X66539650Y-145227850D01*
X66430382Y-145147207D01*
X66430381Y-145147206D01*
X66302195Y-145102353D01*
X66302198Y-145102353D01*
X66271768Y-145099500D01*
X64263241Y-145099500D01*
X64232801Y-145102354D01*
X64232800Y-145102354D01*
X64104618Y-145147206D01*
X63995350Y-145227850D01*
X63914706Y-145337118D01*
X63869853Y-145465302D01*
X63867000Y-145495731D01*
X59500000Y-145495731D01*
X59500000Y-142889778D01*
X63867000Y-142889778D01*
X63867000Y-143110221D01*
X63901485Y-143327952D01*
X63969603Y-143537603D01*
X63969604Y-143537606D01*
X64069687Y-143734025D01*
X64199252Y-143912358D01*
X64199256Y-143912363D01*
X64355136Y-144068243D01*
X64355141Y-144068247D01*
X64510692Y-144181260D01*
X64533478Y-144197815D01*
X64650804Y-144257596D01*
X64729893Y-144297895D01*
X64729896Y-144297896D01*
X64834721Y-144331955D01*
X64939549Y-144366015D01*
X65157278Y-144400500D01*
X65157279Y-144400500D01*
X65377721Y-144400500D01*
X65377722Y-144400500D01*
X65595451Y-144366015D01*
X65805106Y-144297895D01*
X66001522Y-144197815D01*
X66179865Y-144068242D01*
X66335742Y-143912365D01*
X66465315Y-143734022D01*
X66565395Y-143537606D01*
X66633515Y-143327951D01*
X66668000Y-143110222D01*
X66668000Y-142889778D01*
X66643344Y-142734108D01*
X97699500Y-142734108D01*
X97699500Y-142865891D01*
X97733608Y-142993187D01*
X97757387Y-143034372D01*
X97799500Y-143107314D01*
X97799502Y-143107316D01*
X97838181Y-143145995D01*
X97871666Y-143207318D01*
X97874500Y-143233676D01*
X97874500Y-143742852D01*
X97896682Y-143825640D01*
X97918108Y-143862750D01*
X97939535Y-143899862D01*
X97939536Y-143899863D01*
X97939537Y-143899864D01*
X98327492Y-144287819D01*
X98360977Y-144349142D01*
X98355993Y-144418834D01*
X98314121Y-144474767D01*
X98248657Y-144499184D01*
X98239811Y-144499500D01*
X98134108Y-144499500D01*
X98006812Y-144533608D01*
X97892686Y-144599500D01*
X97892683Y-144599502D01*
X97799502Y-144692683D01*
X97799500Y-144692686D01*
X97733608Y-144806812D01*
X97717622Y-144866475D01*
X97699500Y-144934108D01*
X97699500Y-145065892D01*
X97709270Y-145102353D01*
X97733608Y-145193187D01*
X97753621Y-145227850D01*
X97799500Y-145307314D01*
X97799502Y-145307316D01*
X97838181Y-145345995D01*
X97871666Y-145407318D01*
X97874500Y-145433676D01*
X97874500Y-146857147D01*
X97874500Y-146942853D01*
X97881682Y-146969657D01*
X97896682Y-147025640D01*
X97902898Y-147036406D01*
X97939535Y-147099862D01*
X105020138Y-154180465D01*
X105094361Y-154223318D01*
X105177147Y-154245500D01*
X109914919Y-154245500D01*
X109981958Y-154265185D01*
X110027713Y-154317989D01*
X110029480Y-154322047D01*
X110069057Y-154417596D01*
X110184024Y-154589657D01*
X110330342Y-154735975D01*
X110330345Y-154735977D01*
X110502402Y-154850941D01*
X110693580Y-154930130D01*
X110896530Y-154970499D01*
X110896534Y-154970500D01*
X110896535Y-154970500D01*
X111103466Y-154970500D01*
X111103467Y-154970499D01*
X111306420Y-154930130D01*
X111497598Y-154850941D01*
X111669655Y-154735977D01*
X111815977Y-154589655D01*
X111930941Y-154417598D01*
X112010130Y-154226420D01*
X112050500Y-154023465D01*
X112050500Y-153816535D01*
X112050499Y-153816530D01*
X112489500Y-153816530D01*
X112489500Y-154023469D01*
X112529868Y-154226412D01*
X112529870Y-154226420D01*
X112609058Y-154417596D01*
X112724024Y-154589657D01*
X112870342Y-154735975D01*
X112870345Y-154735977D01*
X113042402Y-154850941D01*
X113233580Y-154930130D01*
X113436530Y-154970499D01*
X113436534Y-154970500D01*
X113436535Y-154970500D01*
X113643466Y-154970500D01*
X113643467Y-154970499D01*
X113846420Y-154930130D01*
X114037598Y-154850941D01*
X114209655Y-154735977D01*
X114355977Y-154589655D01*
X114470941Y-154417598D01*
X114550130Y-154226420D01*
X114590500Y-154023465D01*
X114590500Y-153816535D01*
X114550130Y-153613580D01*
X114470941Y-153422402D01*
X114355977Y-153250345D01*
X114355975Y-153250342D01*
X114209657Y-153104024D01*
X114109961Y-153037410D01*
X114037598Y-152989059D01*
X113846420Y-152909870D01*
X113846412Y-152909868D01*
X113643469Y-152869500D01*
X113643465Y-152869500D01*
X113436535Y-152869500D01*
X113436530Y-152869500D01*
X113233587Y-152909868D01*
X113233579Y-152909870D01*
X113042403Y-152989058D01*
X112870342Y-153104024D01*
X112724024Y-153250342D01*
X112609058Y-153422403D01*
X112529870Y-153613579D01*
X112529868Y-153613587D01*
X112489500Y-153816530D01*
X112050499Y-153816530D01*
X112010130Y-153613580D01*
X111930941Y-153422402D01*
X111815977Y-153250345D01*
X111815975Y-153250342D01*
X111669657Y-153104024D01*
X111569961Y-153037410D01*
X111497598Y-152989059D01*
X111306420Y-152909870D01*
X111306412Y-152909868D01*
X111103469Y-152869500D01*
X111103465Y-152869500D01*
X110896535Y-152869500D01*
X110896530Y-152869500D01*
X110693587Y-152909868D01*
X110693579Y-152909870D01*
X110502403Y-152989058D01*
X110330342Y-153104024D01*
X110184024Y-153250342D01*
X110069057Y-153422403D01*
X110029480Y-153517953D01*
X109985639Y-153572356D01*
X109919345Y-153594421D01*
X109914919Y-153594500D01*
X105406189Y-153594500D01*
X105339150Y-153574815D01*
X105318508Y-153558181D01*
X98561819Y-146801492D01*
X98528334Y-146740169D01*
X98525500Y-146713811D01*
X98525500Y-145433676D01*
X98545185Y-145366637D01*
X98561819Y-145345995D01*
X98570696Y-145337118D01*
X98600500Y-145307314D01*
X98666392Y-145193186D01*
X98700500Y-145065892D01*
X98700500Y-144960188D01*
X98720185Y-144893149D01*
X98772989Y-144847394D01*
X98842147Y-144837450D01*
X98905703Y-144866475D01*
X98912168Y-144872495D01*
X101543932Y-147504258D01*
X105048067Y-151008393D01*
X105080161Y-151063980D01*
X105096682Y-151125639D01*
X105096685Y-151125644D01*
X105139530Y-151199855D01*
X105139534Y-151199860D01*
X105139535Y-151199862D01*
X105200138Y-151260465D01*
X105200140Y-151260466D01*
X105200144Y-151260469D01*
X105227970Y-151276534D01*
X105274362Y-151303318D01*
X105357147Y-151325500D01*
X105357149Y-151325500D01*
X105442851Y-151325500D01*
X105442853Y-151325500D01*
X105520387Y-151304724D01*
X105552479Y-151300500D01*
X109825500Y-151300500D01*
X109892539Y-151320185D01*
X109938294Y-151372989D01*
X109949500Y-151424500D01*
X109949500Y-151483469D01*
X109989868Y-151686412D01*
X109989870Y-151686420D01*
X110068959Y-151877358D01*
X110069059Y-151877598D01*
X110111348Y-151940889D01*
X110184024Y-152049657D01*
X110330342Y-152195975D01*
X110330345Y-152195977D01*
X110502402Y-152310941D01*
X110693580Y-152390130D01*
X110894016Y-152429999D01*
X110896530Y-152430499D01*
X110896534Y-152430500D01*
X110896535Y-152430500D01*
X111103466Y-152430500D01*
X111103467Y-152430499D01*
X111306420Y-152390130D01*
X111497598Y-152310941D01*
X111669655Y-152195977D01*
X111693468Y-152172164D01*
X111749227Y-152116406D01*
X111815974Y-152049658D01*
X111815975Y-152049657D01*
X111815977Y-152049655D01*
X111930941Y-151877598D01*
X112010130Y-151686420D01*
X112050500Y-151483465D01*
X112050500Y-151276579D01*
X112490000Y-151276579D01*
X112490000Y-151483420D01*
X112530348Y-151686266D01*
X112530350Y-151686274D01*
X112609500Y-151877358D01*
X112609505Y-151877367D01*
X112669701Y-151967455D01*
X113071980Y-151565176D01*
X113074075Y-151572993D01*
X113139901Y-151687007D01*
X113232993Y-151780099D01*
X113347007Y-151845925D01*
X113354822Y-151848019D01*
X112952542Y-152250298D01*
X113042640Y-152310499D01*
X113233725Y-152389649D01*
X113233733Y-152389651D01*
X113436579Y-152429999D01*
X113436583Y-152430000D01*
X113643417Y-152430000D01*
X113643420Y-152429999D01*
X113846266Y-152389651D01*
X113846274Y-152389649D01*
X114037359Y-152310499D01*
X114127456Y-152250298D01*
X113725177Y-151848019D01*
X113732993Y-151845925D01*
X113847007Y-151780099D01*
X113940099Y-151687007D01*
X114005925Y-151572993D01*
X114008019Y-151565177D01*
X114410298Y-151967456D01*
X114470499Y-151877359D01*
X114549649Y-151686274D01*
X114549651Y-151686266D01*
X114589999Y-151483420D01*
X114590000Y-151483417D01*
X114590000Y-151276583D01*
X114589999Y-151276579D01*
X114549651Y-151073733D01*
X114549649Y-151073725D01*
X114470499Y-150882640D01*
X114410298Y-150792542D01*
X114008018Y-151194821D01*
X114005925Y-151187007D01*
X113940099Y-151072993D01*
X113847007Y-150979901D01*
X113732993Y-150914075D01*
X113725177Y-150911980D01*
X114127455Y-150509701D01*
X114127455Y-150509700D01*
X114037367Y-150449505D01*
X114037358Y-150449500D01*
X113846274Y-150370350D01*
X113846266Y-150370348D01*
X113643420Y-150330000D01*
X113436579Y-150330000D01*
X113233733Y-150370348D01*
X113233725Y-150370350D01*
X113042639Y-150449500D01*
X112952543Y-150509700D01*
X112952543Y-150509701D01*
X113354822Y-150911980D01*
X113347007Y-150914075D01*
X113232993Y-150979901D01*
X113139901Y-151072993D01*
X113074075Y-151187007D01*
X113071980Y-151194822D01*
X112669701Y-150792543D01*
X112669700Y-150792543D01*
X112609500Y-150882639D01*
X112530350Y-151073725D01*
X112530348Y-151073733D01*
X112490000Y-151276579D01*
X112050500Y-151276579D01*
X112050500Y-151276535D01*
X112010130Y-151073580D01*
X111930941Y-150882402D01*
X111815977Y-150710345D01*
X111815975Y-150710342D01*
X111669657Y-150564024D01*
X111498258Y-150449500D01*
X111497598Y-150449059D01*
X111306420Y-150369870D01*
X111306412Y-150369868D01*
X111103469Y-150329500D01*
X111103465Y-150329500D01*
X110896535Y-150329500D01*
X110896530Y-150329500D01*
X110693587Y-150369868D01*
X110693579Y-150369870D01*
X110502403Y-150449058D01*
X110411644Y-150509701D01*
X110330345Y-150564023D01*
X110231185Y-150663182D01*
X110169865Y-150696666D01*
X110143506Y-150699500D01*
X105711190Y-150699500D01*
X105681752Y-150690856D01*
X105651767Y-150684334D01*
X105646749Y-150680577D01*
X105644151Y-150679815D01*
X105623512Y-150663184D01*
X105609517Y-150649190D01*
X105599862Y-150639535D01*
X105599859Y-150639533D01*
X102130624Y-147170298D01*
X98561819Y-143601492D01*
X98528334Y-143540169D01*
X98525500Y-143513811D01*
X98525500Y-143233676D01*
X98545185Y-143166637D01*
X98561819Y-143145995D01*
X98600500Y-143107314D01*
X98642613Y-143034371D01*
X98693180Y-142986156D01*
X98761787Y-142972933D01*
X98826652Y-142998901D01*
X98857386Y-143034371D01*
X98899500Y-143107314D01*
X98992686Y-143200500D01*
X99106814Y-143266392D01*
X99234108Y-143300500D01*
X99288811Y-143300500D01*
X99355850Y-143320185D01*
X99376492Y-143336819D01*
X105140138Y-149100465D01*
X105214361Y-149143318D01*
X105297147Y-149165500D01*
X105382853Y-149165500D01*
X109914919Y-149165500D01*
X109981958Y-149185185D01*
X110027713Y-149237989D01*
X110029480Y-149242047D01*
X110069057Y-149337596D01*
X110184024Y-149509657D01*
X110330342Y-149655975D01*
X110330345Y-149655977D01*
X110502402Y-149770941D01*
X110693580Y-149850130D01*
X110896530Y-149890499D01*
X110896534Y-149890500D01*
X110896535Y-149890500D01*
X111103466Y-149890500D01*
X111103467Y-149890499D01*
X111306420Y-149850130D01*
X111497598Y-149770941D01*
X111669655Y-149655977D01*
X111815977Y-149509655D01*
X111930941Y-149337598D01*
X112010130Y-149146420D01*
X112050500Y-148943465D01*
X112050500Y-148736535D01*
X112050499Y-148736530D01*
X112489500Y-148736530D01*
X112489500Y-148943469D01*
X112529868Y-149146412D01*
X112529870Y-149146420D01*
X112609058Y-149337596D01*
X112724024Y-149509657D01*
X112870342Y-149655975D01*
X112870345Y-149655977D01*
X113042402Y-149770941D01*
X113233580Y-149850130D01*
X113436530Y-149890499D01*
X113436534Y-149890500D01*
X113436535Y-149890500D01*
X113643466Y-149890500D01*
X113643467Y-149890499D01*
X113846420Y-149850130D01*
X114037598Y-149770941D01*
X114209655Y-149655977D01*
X114355977Y-149509655D01*
X114470941Y-149337598D01*
X114550130Y-149146420D01*
X114590500Y-148943465D01*
X114590500Y-148736535D01*
X114550130Y-148533580D01*
X114470941Y-148342402D01*
X114355977Y-148170345D01*
X114355975Y-148170342D01*
X114209657Y-148024024D01*
X114123626Y-147966541D01*
X114037598Y-147909059D01*
X114016932Y-147900499D01*
X113846420Y-147829870D01*
X113846412Y-147829868D01*
X113643469Y-147789500D01*
X113643465Y-147789500D01*
X113436535Y-147789500D01*
X113436530Y-147789500D01*
X113233587Y-147829868D01*
X113233579Y-147829870D01*
X113042403Y-147909058D01*
X112870342Y-148024024D01*
X112724024Y-148170342D01*
X112609058Y-148342403D01*
X112529870Y-148533579D01*
X112529868Y-148533587D01*
X112489500Y-148736530D01*
X112050499Y-148736530D01*
X112010130Y-148533580D01*
X111930941Y-148342402D01*
X111815977Y-148170345D01*
X111815975Y-148170342D01*
X111669657Y-148024024D01*
X111583626Y-147966541D01*
X111497598Y-147909059D01*
X111476932Y-147900499D01*
X111306420Y-147829870D01*
X111306412Y-147829868D01*
X111103469Y-147789500D01*
X111103465Y-147789500D01*
X110896535Y-147789500D01*
X110896530Y-147789500D01*
X110693587Y-147829868D01*
X110693579Y-147829870D01*
X110502403Y-147909058D01*
X110330342Y-148024024D01*
X110184024Y-148170342D01*
X110069057Y-148342403D01*
X110029480Y-148437953D01*
X109985639Y-148492356D01*
X109919345Y-148514421D01*
X109914919Y-148514500D01*
X105526189Y-148514500D01*
X105459150Y-148494815D01*
X105438508Y-148478181D01*
X103156857Y-146196530D01*
X109949500Y-146196530D01*
X109949500Y-146403469D01*
X109989868Y-146606412D01*
X109989870Y-146606420D01*
X110069058Y-146797596D01*
X110184024Y-146969657D01*
X110330342Y-147115975D01*
X110330345Y-147115977D01*
X110502402Y-147230941D01*
X110693580Y-147310130D01*
X110894016Y-147349999D01*
X110896530Y-147350499D01*
X110896534Y-147350500D01*
X110896535Y-147350500D01*
X111103466Y-147350500D01*
X111103467Y-147350499D01*
X111306420Y-147310130D01*
X111497598Y-147230941D01*
X111669655Y-147115977D01*
X111685771Y-147099861D01*
X111749227Y-147036406D01*
X111815974Y-146969658D01*
X111815975Y-146969657D01*
X111815977Y-146969655D01*
X111930941Y-146797598D01*
X112010130Y-146606420D01*
X112050500Y-146403465D01*
X112050500Y-146196579D01*
X112490000Y-146196579D01*
X112490000Y-146403420D01*
X112530348Y-146606266D01*
X112530350Y-146606274D01*
X112609500Y-146797358D01*
X112609505Y-146797367D01*
X112669701Y-146887455D01*
X113071980Y-146485176D01*
X113074075Y-146492993D01*
X113139901Y-146607007D01*
X113232993Y-146700099D01*
X113347007Y-146765925D01*
X113354822Y-146768019D01*
X112952542Y-147170298D01*
X113042640Y-147230499D01*
X113233725Y-147309649D01*
X113233733Y-147309651D01*
X113436579Y-147349999D01*
X113436583Y-147350000D01*
X113643417Y-147350000D01*
X113643420Y-147349999D01*
X113846266Y-147309651D01*
X113846274Y-147309649D01*
X114037359Y-147230499D01*
X114127456Y-147170298D01*
X113725177Y-146768019D01*
X113732993Y-146765925D01*
X113847007Y-146700099D01*
X113940099Y-146607007D01*
X114005925Y-146492993D01*
X114008019Y-146485177D01*
X114410298Y-146887456D01*
X114470499Y-146797359D01*
X114549649Y-146606274D01*
X114549651Y-146606266D01*
X114589999Y-146403420D01*
X114590000Y-146403417D01*
X114590000Y-146196583D01*
X114589999Y-146196579D01*
X114549651Y-145993733D01*
X114549649Y-145993725D01*
X114470499Y-145802640D01*
X114410298Y-145712542D01*
X114008018Y-146114821D01*
X114005925Y-146107007D01*
X113940099Y-145992993D01*
X113847007Y-145899901D01*
X113732993Y-145834075D01*
X113725177Y-145831980D01*
X114127455Y-145429701D01*
X114127455Y-145429700D01*
X114037367Y-145369505D01*
X114037358Y-145369500D01*
X113846274Y-145290350D01*
X113846266Y-145290348D01*
X113643420Y-145250000D01*
X113436579Y-145250000D01*
X113233733Y-145290348D01*
X113233725Y-145290350D01*
X113042639Y-145369500D01*
X112952543Y-145429700D01*
X112952543Y-145429701D01*
X113354822Y-145831980D01*
X113347007Y-145834075D01*
X113232993Y-145899901D01*
X113139901Y-145992993D01*
X113074075Y-146107007D01*
X113071980Y-146114822D01*
X112669701Y-145712543D01*
X112669700Y-145712543D01*
X112609500Y-145802639D01*
X112530350Y-145993725D01*
X112530348Y-145993733D01*
X112490000Y-146196579D01*
X112050500Y-146196579D01*
X112050500Y-146196535D01*
X112010130Y-145993580D01*
X111930941Y-145802402D01*
X111815977Y-145630345D01*
X111815975Y-145630342D01*
X111669657Y-145484024D01*
X111554857Y-145407318D01*
X111497598Y-145369059D01*
X111306420Y-145289870D01*
X111306412Y-145289868D01*
X111103469Y-145249500D01*
X111103465Y-145249500D01*
X110896535Y-145249500D01*
X110896530Y-145249500D01*
X110693587Y-145289868D01*
X110693579Y-145289870D01*
X110502403Y-145369058D01*
X110330342Y-145484024D01*
X110184024Y-145630342D01*
X110069058Y-145802403D01*
X109989870Y-145993579D01*
X109989868Y-145993587D01*
X109949500Y-146196530D01*
X103156857Y-146196530D01*
X100616857Y-143656530D01*
X109949500Y-143656530D01*
X109949500Y-143863469D01*
X109989868Y-144066412D01*
X109989870Y-144066420D01*
X110069059Y-144257598D01*
X110095985Y-144297896D01*
X110184024Y-144429657D01*
X110330342Y-144575975D01*
X110330345Y-144575977D01*
X110502402Y-144690941D01*
X110693580Y-144770130D01*
X110877994Y-144806812D01*
X110896530Y-144810499D01*
X110896534Y-144810500D01*
X110896535Y-144810500D01*
X111103466Y-144810500D01*
X111103467Y-144810499D01*
X111306420Y-144770130D01*
X111497598Y-144690941D01*
X111669655Y-144575977D01*
X111815977Y-144429655D01*
X111930941Y-144257598D01*
X112010130Y-144066420D01*
X112050500Y-143863465D01*
X112050500Y-143656535D01*
X112050499Y-143656530D01*
X112489500Y-143656530D01*
X112489500Y-143863469D01*
X112529868Y-144066412D01*
X112529870Y-144066420D01*
X112609059Y-144257598D01*
X112635985Y-144297896D01*
X112724024Y-144429657D01*
X112870342Y-144575975D01*
X112870345Y-144575977D01*
X113042402Y-144690941D01*
X113233580Y-144770130D01*
X113417994Y-144806812D01*
X113436530Y-144810499D01*
X113436534Y-144810500D01*
X113436535Y-144810500D01*
X113643466Y-144810500D01*
X113643467Y-144810499D01*
X113846420Y-144770130D01*
X114037598Y-144690941D01*
X114209655Y-144575977D01*
X114355977Y-144429655D01*
X114470941Y-144257598D01*
X114550130Y-144066420D01*
X114590500Y-143863465D01*
X114590500Y-143656535D01*
X114550130Y-143453580D01*
X114470941Y-143262402D01*
X114355977Y-143090345D01*
X114355975Y-143090342D01*
X114209657Y-142944024D01*
X114054231Y-142840173D01*
X114037598Y-142829059D01*
X113940431Y-142788811D01*
X113846420Y-142749870D01*
X113846412Y-142749868D01*
X113643469Y-142709500D01*
X113643465Y-142709500D01*
X113436535Y-142709500D01*
X113436530Y-142709500D01*
X113233587Y-142749868D01*
X113233579Y-142749870D01*
X113042403Y-142829058D01*
X112870342Y-142944024D01*
X112724024Y-143090342D01*
X112609058Y-143262403D01*
X112529870Y-143453579D01*
X112529868Y-143453587D01*
X112489500Y-143656530D01*
X112050499Y-143656530D01*
X112010130Y-143453580D01*
X111930941Y-143262402D01*
X111815977Y-143090345D01*
X111815975Y-143090342D01*
X111669657Y-142944024D01*
X111514231Y-142840173D01*
X111497598Y-142829059D01*
X111400431Y-142788811D01*
X111306420Y-142749870D01*
X111306412Y-142749868D01*
X111103469Y-142709500D01*
X111103465Y-142709500D01*
X110896535Y-142709500D01*
X110896530Y-142709500D01*
X110693587Y-142749868D01*
X110693579Y-142749870D01*
X110502403Y-142829058D01*
X110330342Y-142944024D01*
X110184024Y-143090342D01*
X110069058Y-143262403D01*
X109989870Y-143453579D01*
X109989868Y-143453587D01*
X109949500Y-143656530D01*
X100616857Y-143656530D01*
X99836819Y-142876492D01*
X99803334Y-142815169D01*
X99800500Y-142788811D01*
X99800500Y-142734110D01*
X99800500Y-142734108D01*
X99766392Y-142606814D01*
X99700500Y-142492686D01*
X99607314Y-142399500D01*
X99550250Y-142366554D01*
X99493187Y-142333608D01*
X99429539Y-142316554D01*
X99365892Y-142299500D01*
X99234108Y-142299500D01*
X99106812Y-142333608D01*
X98992686Y-142399500D01*
X98992683Y-142399502D01*
X98899502Y-142492683D01*
X98899500Y-142492686D01*
X98857387Y-142565628D01*
X98806820Y-142613843D01*
X98738212Y-142627065D01*
X98673348Y-142601097D01*
X98642613Y-142565628D01*
X98600500Y-142492686D01*
X98507314Y-142399500D01*
X98450250Y-142366554D01*
X98393187Y-142333608D01*
X98329539Y-142316554D01*
X98265892Y-142299500D01*
X98134108Y-142299500D01*
X98006812Y-142333608D01*
X97892686Y-142399500D01*
X97892683Y-142399502D01*
X97799502Y-142492683D01*
X97799500Y-142492686D01*
X97733608Y-142606812D01*
X97699500Y-142734108D01*
X66643344Y-142734108D01*
X66633515Y-142672049D01*
X66633515Y-142672048D01*
X66565396Y-142462396D01*
X66565395Y-142462393D01*
X66530737Y-142394375D01*
X66465315Y-142265978D01*
X66438921Y-142229649D01*
X66357057Y-142116972D01*
X66357056Y-142116971D01*
X66335745Y-142087638D01*
X66179863Y-141931756D01*
X66179858Y-141931752D01*
X66001525Y-141802187D01*
X66001524Y-141802186D01*
X66001522Y-141802185D01*
X65938596Y-141770122D01*
X65805106Y-141702104D01*
X65805103Y-141702103D01*
X65595452Y-141633985D01*
X65486586Y-141616742D01*
X65377722Y-141599500D01*
X65157278Y-141599500D01*
X65084701Y-141610995D01*
X64939547Y-141633985D01*
X64729896Y-141702103D01*
X64729893Y-141702104D01*
X64533474Y-141802187D01*
X64355141Y-141931752D01*
X64355136Y-141931756D01*
X64199256Y-142087636D01*
X64199252Y-142087641D01*
X64069687Y-142265974D01*
X63969604Y-142462393D01*
X63969603Y-142462396D01*
X63901485Y-142672047D01*
X63867000Y-142889778D01*
X59500000Y-142889778D01*
X59500000Y-141116579D01*
X109950000Y-141116579D01*
X109950000Y-141323420D01*
X109990348Y-141526266D01*
X109990350Y-141526274D01*
X110069500Y-141717358D01*
X110069505Y-141717367D01*
X110129701Y-141807455D01*
X110531980Y-141405176D01*
X110534075Y-141412993D01*
X110599901Y-141527007D01*
X110692993Y-141620099D01*
X110807007Y-141685925D01*
X110814822Y-141688019D01*
X110412542Y-142090298D01*
X110502640Y-142150499D01*
X110693725Y-142229649D01*
X110693733Y-142229651D01*
X110896579Y-142269999D01*
X110896583Y-142270000D01*
X111103417Y-142270000D01*
X111103420Y-142269999D01*
X111306266Y-142229651D01*
X111306274Y-142229649D01*
X111497359Y-142150499D01*
X111587456Y-142090298D01*
X111185177Y-141688019D01*
X111192993Y-141685925D01*
X111307007Y-141620099D01*
X111400099Y-141527007D01*
X111465925Y-141412993D01*
X111468019Y-141405177D01*
X111870298Y-141807456D01*
X111930499Y-141717359D01*
X112009649Y-141526274D01*
X112009651Y-141526266D01*
X112049999Y-141323420D01*
X112050000Y-141323417D01*
X112050000Y-141116581D01*
X112049999Y-141116580D01*
X112049989Y-141116530D01*
X112489500Y-141116530D01*
X112489500Y-141323469D01*
X112529868Y-141526412D01*
X112529870Y-141526420D01*
X112609058Y-141717596D01*
X112724024Y-141889657D01*
X112870342Y-142035975D01*
X112870345Y-142035977D01*
X113042402Y-142150941D01*
X113233580Y-142230130D01*
X113413781Y-142265974D01*
X113436530Y-142270499D01*
X113436534Y-142270500D01*
X113436535Y-142270500D01*
X113643466Y-142270500D01*
X113643467Y-142270499D01*
X113846420Y-142230130D01*
X114037598Y-142150941D01*
X114209655Y-142035977D01*
X114355977Y-141889655D01*
X114470941Y-141717598D01*
X114550130Y-141526420D01*
X114590500Y-141323465D01*
X114590500Y-141116535D01*
X114550130Y-140913580D01*
X114470941Y-140722402D01*
X114355977Y-140550345D01*
X114355975Y-140550342D01*
X114209657Y-140404024D01*
X114111543Y-140338467D01*
X114037598Y-140289059D01*
X113904090Y-140233758D01*
X113846420Y-140209870D01*
X113846412Y-140209868D01*
X113643469Y-140169500D01*
X113643465Y-140169500D01*
X113436535Y-140169500D01*
X113436530Y-140169500D01*
X113233587Y-140209868D01*
X113233579Y-140209870D01*
X113042403Y-140289058D01*
X112870342Y-140404024D01*
X112724024Y-140550342D01*
X112609058Y-140722403D01*
X112529870Y-140913579D01*
X112529868Y-140913587D01*
X112489500Y-141116530D01*
X112049989Y-141116530D01*
X112009651Y-140913733D01*
X112009649Y-140913725D01*
X111930499Y-140722640D01*
X111870298Y-140632542D01*
X111468018Y-141034821D01*
X111465925Y-141027007D01*
X111400099Y-140912993D01*
X111307007Y-140819901D01*
X111192993Y-140754075D01*
X111185177Y-140751980D01*
X111587455Y-140349701D01*
X111587455Y-140349700D01*
X111497367Y-140289505D01*
X111497358Y-140289500D01*
X111306274Y-140210350D01*
X111306266Y-140210348D01*
X111103420Y-140170000D01*
X110896579Y-140170000D01*
X110693733Y-140210348D01*
X110693725Y-140210350D01*
X110502639Y-140289500D01*
X110412543Y-140349700D01*
X110412543Y-140349701D01*
X110814822Y-140751980D01*
X110807007Y-140754075D01*
X110692993Y-140819901D01*
X110599901Y-140912993D01*
X110534075Y-141027007D01*
X110531980Y-141034822D01*
X110129701Y-140632543D01*
X110129700Y-140632543D01*
X110069500Y-140722639D01*
X109990350Y-140913725D01*
X109990348Y-140913733D01*
X109950000Y-141116579D01*
X59500000Y-141116579D01*
X59500000Y-139389818D01*
X63867500Y-139389818D01*
X63867500Y-139610181D01*
X63901973Y-139827835D01*
X63970067Y-140037410D01*
X64070113Y-140233760D01*
X64146188Y-140338467D01*
X64146189Y-140338468D01*
X64724742Y-139759914D01*
X64787381Y-139868408D01*
X64899092Y-139980119D01*
X65007583Y-140042757D01*
X64429030Y-140621310D01*
X64533739Y-140697386D01*
X64730089Y-140797432D01*
X64939664Y-140865526D01*
X65157319Y-140900000D01*
X65377681Y-140900000D01*
X65595335Y-140865526D01*
X65804910Y-140797432D01*
X66001252Y-140697390D01*
X66001258Y-140697386D01*
X66105967Y-140621310D01*
X66105968Y-140621309D01*
X65527416Y-140042757D01*
X65635908Y-139980119D01*
X65747619Y-139868408D01*
X65810257Y-139759915D01*
X66388809Y-140338468D01*
X66388810Y-140338467D01*
X66400030Y-140323026D01*
X66464886Y-140233758D01*
X66464890Y-140233752D01*
X66564932Y-140037410D01*
X66633026Y-139827835D01*
X66667500Y-139610181D01*
X66667500Y-139389818D01*
X66633026Y-139172164D01*
X66564932Y-138962589D01*
X66464886Y-138766239D01*
X66388810Y-138661531D01*
X66388810Y-138661530D01*
X65810257Y-139240083D01*
X65747619Y-139131592D01*
X65635908Y-139019881D01*
X65527415Y-138957242D01*
X65908127Y-138576530D01*
X109949500Y-138576530D01*
X109949500Y-138783469D01*
X109989868Y-138986412D01*
X109989870Y-138986420D01*
X110069058Y-139177596D01*
X110184024Y-139349657D01*
X110330342Y-139495975D01*
X110330345Y-139495977D01*
X110502402Y-139610941D01*
X110693580Y-139690130D01*
X110896530Y-139730499D01*
X110896534Y-139730500D01*
X110896535Y-139730500D01*
X111103466Y-139730500D01*
X111103467Y-139730499D01*
X111306420Y-139690130D01*
X111497598Y-139610941D01*
X111669655Y-139495977D01*
X111815977Y-139349655D01*
X111930941Y-139177598D01*
X112010130Y-138986420D01*
X112050500Y-138783465D01*
X112050500Y-138576535D01*
X112050499Y-138576530D01*
X112489500Y-138576530D01*
X112489500Y-138783469D01*
X112529868Y-138986412D01*
X112529870Y-138986420D01*
X112609058Y-139177596D01*
X112724024Y-139349657D01*
X112870342Y-139495975D01*
X112870345Y-139495977D01*
X113042402Y-139610941D01*
X113233580Y-139690130D01*
X113436530Y-139730499D01*
X113436534Y-139730500D01*
X113436535Y-139730500D01*
X113643466Y-139730500D01*
X113643467Y-139730499D01*
X113846420Y-139690130D01*
X114037598Y-139610941D01*
X114209655Y-139495977D01*
X114355977Y-139349655D01*
X114470941Y-139177598D01*
X114550130Y-138986420D01*
X114590500Y-138783465D01*
X114590500Y-138576535D01*
X114550130Y-138373580D01*
X114470941Y-138182402D01*
X114355977Y-138010345D01*
X114355975Y-138010342D01*
X114209657Y-137864024D01*
X114123626Y-137806541D01*
X114037598Y-137749059D01*
X113846420Y-137669870D01*
X113846412Y-137669868D01*
X113643469Y-137629500D01*
X113643465Y-137629500D01*
X113436535Y-137629500D01*
X113436530Y-137629500D01*
X113233587Y-137669868D01*
X113233579Y-137669870D01*
X113042403Y-137749058D01*
X112870342Y-137864024D01*
X112724024Y-138010342D01*
X112609058Y-138182403D01*
X112529870Y-138373579D01*
X112529868Y-138373587D01*
X112489500Y-138576530D01*
X112050499Y-138576530D01*
X112010130Y-138373580D01*
X111930941Y-138182402D01*
X111815977Y-138010345D01*
X111815975Y-138010342D01*
X111669657Y-137864024D01*
X111583626Y-137806541D01*
X111497598Y-137749059D01*
X111306420Y-137669870D01*
X111306412Y-137669868D01*
X111103469Y-137629500D01*
X111103465Y-137629500D01*
X110896535Y-137629500D01*
X110896530Y-137629500D01*
X110693587Y-137669868D01*
X110693579Y-137669870D01*
X110502403Y-137749058D01*
X110330342Y-137864024D01*
X110184024Y-138010342D01*
X110069058Y-138182403D01*
X109989870Y-138373579D01*
X109989868Y-138373587D01*
X109949500Y-138576530D01*
X65908127Y-138576530D01*
X66105968Y-138378689D01*
X66105967Y-138378688D01*
X66001260Y-138302613D01*
X65804910Y-138202567D01*
X65595335Y-138134473D01*
X65377681Y-138100000D01*
X65157319Y-138100000D01*
X64939664Y-138134473D01*
X64730089Y-138202567D01*
X64533736Y-138302615D01*
X64429031Y-138378687D01*
X64429030Y-138378688D01*
X65007584Y-138957242D01*
X64899092Y-139019881D01*
X64787381Y-139131592D01*
X64724742Y-139240084D01*
X64146188Y-138661530D01*
X64146187Y-138661531D01*
X64070115Y-138766236D01*
X63970067Y-138962589D01*
X63901973Y-139172164D01*
X63867500Y-139389818D01*
X59500000Y-139389818D01*
X59500000Y-136036530D01*
X109949500Y-136036530D01*
X109949500Y-136243469D01*
X109989868Y-136446412D01*
X109989870Y-136446420D01*
X110069058Y-136637596D01*
X110184024Y-136809657D01*
X110330342Y-136955975D01*
X110330345Y-136955977D01*
X110502402Y-137070941D01*
X110693580Y-137150130D01*
X110896530Y-137190499D01*
X110896534Y-137190500D01*
X110896535Y-137190500D01*
X111103466Y-137190500D01*
X111103467Y-137190499D01*
X111306420Y-137150130D01*
X111497598Y-137070941D01*
X111669655Y-136955977D01*
X111815977Y-136809655D01*
X111930941Y-136637598D01*
X112010130Y-136446420D01*
X112050500Y-136243465D01*
X112050500Y-136036535D01*
X112050499Y-136036530D01*
X112489500Y-136036530D01*
X112489500Y-136243469D01*
X112529868Y-136446412D01*
X112529870Y-136446420D01*
X112609058Y-136637596D01*
X112724024Y-136809657D01*
X112870342Y-136955975D01*
X112870345Y-136955977D01*
X113042402Y-137070941D01*
X113233580Y-137150130D01*
X113436530Y-137190499D01*
X113436534Y-137190500D01*
X113436535Y-137190500D01*
X113643466Y-137190500D01*
X113643467Y-137190499D01*
X113846420Y-137150130D01*
X114037598Y-137070941D01*
X114209655Y-136955977D01*
X114355977Y-136809655D01*
X114470941Y-136637598D01*
X114550130Y-136446420D01*
X114590500Y-136243465D01*
X114590500Y-136036535D01*
X114550130Y-135833580D01*
X114470941Y-135642402D01*
X114355977Y-135470345D01*
X114355975Y-135470342D01*
X114209657Y-135324024D01*
X114123626Y-135266541D01*
X114037598Y-135209059D01*
X113846420Y-135129870D01*
X113846412Y-135129868D01*
X113643469Y-135089500D01*
X113643465Y-135089500D01*
X113436535Y-135089500D01*
X113436530Y-135089500D01*
X113233587Y-135129868D01*
X113233579Y-135129870D01*
X113042403Y-135209058D01*
X112870342Y-135324024D01*
X112724024Y-135470342D01*
X112609058Y-135642403D01*
X112529870Y-135833579D01*
X112529868Y-135833587D01*
X112489500Y-136036530D01*
X112050499Y-136036530D01*
X112010130Y-135833580D01*
X111930941Y-135642402D01*
X111815977Y-135470345D01*
X111815975Y-135470342D01*
X111669657Y-135324024D01*
X111583626Y-135266541D01*
X111497598Y-135209059D01*
X111306420Y-135129870D01*
X111306412Y-135129868D01*
X111103469Y-135089500D01*
X111103465Y-135089500D01*
X110896535Y-135089500D01*
X110896530Y-135089500D01*
X110693587Y-135129868D01*
X110693579Y-135129870D01*
X110502403Y-135209058D01*
X110330342Y-135324024D01*
X110184024Y-135470342D01*
X110069058Y-135642403D01*
X109989870Y-135833579D01*
X109989868Y-135833587D01*
X109949500Y-136036530D01*
X59500000Y-136036530D01*
X59500000Y-132495731D01*
X63867000Y-132495731D01*
X63867000Y-134504258D01*
X63869854Y-134534698D01*
X63869854Y-134534699D01*
X63914706Y-134662881D01*
X63914707Y-134662882D01*
X63995350Y-134772150D01*
X64104618Y-134852793D01*
X64232802Y-134897646D01*
X64232801Y-134897646D01*
X64236771Y-134898018D01*
X64263235Y-134900500D01*
X66271764Y-134900499D01*
X66302198Y-134897646D01*
X66430382Y-134852793D01*
X66539650Y-134772150D01*
X66620293Y-134662882D01*
X66665146Y-134534698D01*
X66668000Y-134504265D01*
X66667999Y-133496530D01*
X109949500Y-133496530D01*
X109949500Y-133703469D01*
X109989868Y-133906412D01*
X109989870Y-133906420D01*
X110069058Y-134097596D01*
X110184024Y-134269657D01*
X110330342Y-134415975D01*
X110330345Y-134415977D01*
X110502402Y-134530941D01*
X110693580Y-134610130D01*
X110894016Y-134649999D01*
X110896530Y-134650499D01*
X110896534Y-134650500D01*
X110896535Y-134650500D01*
X111103466Y-134650500D01*
X111103467Y-134650499D01*
X111306420Y-134610130D01*
X111497598Y-134530941D01*
X111669655Y-134415977D01*
X111669658Y-134415974D01*
X111749227Y-134336406D01*
X111815974Y-134269658D01*
X111815975Y-134269657D01*
X111815977Y-134269655D01*
X111930941Y-134097598D01*
X112010130Y-133906420D01*
X112050500Y-133703465D01*
X112050500Y-133496579D01*
X112490000Y-133496579D01*
X112490000Y-133703420D01*
X112530348Y-133906266D01*
X112530350Y-133906274D01*
X112609500Y-134097358D01*
X112609505Y-134097367D01*
X112669701Y-134187455D01*
X113071980Y-133785176D01*
X113074075Y-133792993D01*
X113139901Y-133907007D01*
X113232993Y-134000099D01*
X113347007Y-134065925D01*
X113354822Y-134068019D01*
X112952542Y-134470298D01*
X113042640Y-134530499D01*
X113233725Y-134609649D01*
X113233733Y-134609651D01*
X113436579Y-134649999D01*
X113436583Y-134650000D01*
X113643417Y-134650000D01*
X113643420Y-134649999D01*
X113846266Y-134609651D01*
X113846274Y-134609649D01*
X114037359Y-134530499D01*
X114127456Y-134470298D01*
X113725177Y-134068019D01*
X113732993Y-134065925D01*
X113847007Y-134000099D01*
X113940099Y-133907007D01*
X114005925Y-133792993D01*
X114008019Y-133785177D01*
X114410298Y-134187456D01*
X114470499Y-134097359D01*
X114549649Y-133906274D01*
X114549651Y-133906266D01*
X114589999Y-133703420D01*
X114590000Y-133703417D01*
X114590000Y-133496583D01*
X114589999Y-133496579D01*
X114549651Y-133293733D01*
X114549649Y-133293725D01*
X114470499Y-133102640D01*
X114410298Y-133012542D01*
X114008018Y-133414821D01*
X114005925Y-133407007D01*
X113940099Y-133292993D01*
X113847007Y-133199901D01*
X113732993Y-133134075D01*
X113725177Y-133131980D01*
X114127455Y-132729701D01*
X114127455Y-132729700D01*
X114037367Y-132669505D01*
X114037358Y-132669500D01*
X113846274Y-132590350D01*
X113846266Y-132590348D01*
X113643420Y-132550000D01*
X113436579Y-132550000D01*
X113233733Y-132590348D01*
X113233725Y-132590350D01*
X113042639Y-132669500D01*
X112952543Y-132729700D01*
X112952543Y-132729701D01*
X113354822Y-133131980D01*
X113347007Y-133134075D01*
X113232993Y-133199901D01*
X113139901Y-133292993D01*
X113074075Y-133407007D01*
X113071980Y-133414822D01*
X112669701Y-133012543D01*
X112669700Y-133012543D01*
X112609500Y-133102639D01*
X112530350Y-133293725D01*
X112530348Y-133293733D01*
X112490000Y-133496579D01*
X112050500Y-133496579D01*
X112050500Y-133496535D01*
X112010130Y-133293580D01*
X111930941Y-133102402D01*
X111815977Y-132930345D01*
X111815975Y-132930342D01*
X111669657Y-132784024D01*
X111498258Y-132669500D01*
X111497598Y-132669059D01*
X111306420Y-132589870D01*
X111306412Y-132589868D01*
X111103469Y-132549500D01*
X111103465Y-132549500D01*
X110896535Y-132549500D01*
X110896530Y-132549500D01*
X110693587Y-132589868D01*
X110693579Y-132589870D01*
X110502403Y-132669058D01*
X110330342Y-132784024D01*
X110184024Y-132930342D01*
X110069058Y-133102403D01*
X109989870Y-133293579D01*
X109989868Y-133293587D01*
X109949500Y-133496530D01*
X66667999Y-133496530D01*
X66667999Y-132495736D01*
X66665146Y-132465302D01*
X66620293Y-132337118D01*
X66539650Y-132227850D01*
X66430382Y-132147207D01*
X66430381Y-132147206D01*
X66302195Y-132102353D01*
X66302198Y-132102353D01*
X66271768Y-132099500D01*
X64263241Y-132099500D01*
X64232801Y-132102354D01*
X64232800Y-132102354D01*
X64104618Y-132147206D01*
X63995350Y-132227850D01*
X63914706Y-132337118D01*
X63869853Y-132465302D01*
X63867000Y-132495731D01*
X59500000Y-132495731D01*
X59500000Y-129889778D01*
X63867000Y-129889778D01*
X63867000Y-130110222D01*
X63884242Y-130219086D01*
X63901485Y-130327952D01*
X63969603Y-130537603D01*
X63969604Y-130537606D01*
X64037622Y-130671096D01*
X64069684Y-130734021D01*
X64069687Y-130734025D01*
X64199252Y-130912358D01*
X64199256Y-130912363D01*
X64355136Y-131068243D01*
X64355141Y-131068247D01*
X64510692Y-131181260D01*
X64533478Y-131197815D01*
X64661875Y-131263237D01*
X64729893Y-131297895D01*
X64729896Y-131297896D01*
X64834721Y-131331955D01*
X64939549Y-131366015D01*
X65157278Y-131400500D01*
X65157279Y-131400500D01*
X65377721Y-131400500D01*
X65377722Y-131400500D01*
X65595451Y-131366015D01*
X65805106Y-131297895D01*
X66001522Y-131197815D01*
X66179865Y-131068242D01*
X66291577Y-130956530D01*
X109949500Y-130956530D01*
X109949500Y-131163469D01*
X109989868Y-131366412D01*
X109989870Y-131366420D01*
X110069058Y-131557596D01*
X110184024Y-131729657D01*
X110330342Y-131875975D01*
X110330345Y-131875977D01*
X110502402Y-131990941D01*
X110693580Y-132070130D01*
X110841234Y-132099500D01*
X110896530Y-132110499D01*
X110896534Y-132110500D01*
X110896535Y-132110500D01*
X111103466Y-132110500D01*
X111103467Y-132110499D01*
X111306420Y-132070130D01*
X111497598Y-131990941D01*
X111669655Y-131875977D01*
X111815977Y-131729655D01*
X111930941Y-131557598D01*
X112010130Y-131366420D01*
X112050500Y-131163465D01*
X112050500Y-130956535D01*
X112050499Y-130956530D01*
X112489500Y-130956530D01*
X112489500Y-131163469D01*
X112529868Y-131366412D01*
X112529870Y-131366420D01*
X112609058Y-131557596D01*
X112724024Y-131729657D01*
X112870342Y-131875975D01*
X112870345Y-131875977D01*
X113042402Y-131990941D01*
X113233580Y-132070130D01*
X113381234Y-132099500D01*
X113436530Y-132110499D01*
X113436534Y-132110500D01*
X113436535Y-132110500D01*
X113643466Y-132110500D01*
X113643467Y-132110499D01*
X113846420Y-132070130D01*
X114037598Y-131990941D01*
X114209655Y-131875977D01*
X114355977Y-131729655D01*
X114470941Y-131557598D01*
X114550130Y-131366420D01*
X114590500Y-131163465D01*
X114590500Y-130956535D01*
X114550130Y-130753580D01*
X114470941Y-130562402D01*
X114355977Y-130390345D01*
X114355975Y-130390342D01*
X114209657Y-130244024D01*
X114123626Y-130186541D01*
X114037598Y-130129059D01*
X113992119Y-130110221D01*
X113846420Y-130049870D01*
X113846412Y-130049868D01*
X113643469Y-130009500D01*
X113643465Y-130009500D01*
X113436535Y-130009500D01*
X113436530Y-130009500D01*
X113233587Y-130049868D01*
X113233579Y-130049870D01*
X113042403Y-130129058D01*
X112870342Y-130244024D01*
X112724024Y-130390342D01*
X112609058Y-130562403D01*
X112529870Y-130753579D01*
X112529868Y-130753587D01*
X112489500Y-130956530D01*
X112050499Y-130956530D01*
X112010130Y-130753580D01*
X111930941Y-130562402D01*
X111815977Y-130390345D01*
X111815975Y-130390342D01*
X111669657Y-130244024D01*
X111583626Y-130186541D01*
X111497598Y-130129059D01*
X111452119Y-130110221D01*
X111306420Y-130049870D01*
X111306412Y-130049868D01*
X111103469Y-130009500D01*
X111103465Y-130009500D01*
X110896535Y-130009500D01*
X110896530Y-130009500D01*
X110693587Y-130049868D01*
X110693579Y-130049870D01*
X110502403Y-130129058D01*
X110330342Y-130244024D01*
X110184024Y-130390342D01*
X110069058Y-130562403D01*
X109989870Y-130753579D01*
X109989868Y-130753587D01*
X109949500Y-130956530D01*
X66291577Y-130956530D01*
X66335742Y-130912365D01*
X66346048Y-130898179D01*
X66361032Y-130877557D01*
X66451106Y-130753579D01*
X66465315Y-130734022D01*
X66565395Y-130537606D01*
X66633515Y-130327951D01*
X66668000Y-130110222D01*
X66668000Y-129889778D01*
X66633515Y-129672049D01*
X66587404Y-129530131D01*
X66565396Y-129462396D01*
X66565395Y-129462393D01*
X66530737Y-129394375D01*
X66465315Y-129265978D01*
X66409865Y-129189657D01*
X66335747Y-129087641D01*
X66335743Y-129087636D01*
X66179863Y-128931756D01*
X66179858Y-128931752D01*
X66001525Y-128802187D01*
X66001524Y-128802186D01*
X66001522Y-128802185D01*
X65938596Y-128770122D01*
X65805106Y-128702104D01*
X65805103Y-128702103D01*
X65595452Y-128633985D01*
X65486586Y-128616742D01*
X65377722Y-128599500D01*
X65157278Y-128599500D01*
X65084701Y-128610995D01*
X64939547Y-128633985D01*
X64729896Y-128702103D01*
X64729893Y-128702104D01*
X64533474Y-128802187D01*
X64355141Y-128931752D01*
X64355136Y-128931756D01*
X64199256Y-129087636D01*
X64199252Y-129087641D01*
X64069687Y-129265974D01*
X63969604Y-129462393D01*
X63969603Y-129462396D01*
X63901485Y-129672047D01*
X63901485Y-129672049D01*
X63867000Y-129889778D01*
X59500000Y-129889778D01*
X59500000Y-128416530D01*
X109949500Y-128416530D01*
X109949500Y-128623469D01*
X109989868Y-128826412D01*
X109989870Y-128826420D01*
X110069058Y-129017596D01*
X110184024Y-129189657D01*
X110330342Y-129335975D01*
X110330345Y-129335977D01*
X110502402Y-129450941D01*
X110693580Y-129530130D01*
X110896530Y-129570499D01*
X110896534Y-129570500D01*
X110896535Y-129570500D01*
X111103466Y-129570500D01*
X111103467Y-129570499D01*
X111306420Y-129530130D01*
X111497598Y-129450941D01*
X111669655Y-129335977D01*
X111815977Y-129189655D01*
X111930941Y-129017598D01*
X112010130Y-128826420D01*
X112050500Y-128623465D01*
X112050500Y-128416535D01*
X112050499Y-128416530D01*
X112489500Y-128416530D01*
X112489500Y-128623469D01*
X112529868Y-128826412D01*
X112529870Y-128826420D01*
X112609058Y-129017596D01*
X112724024Y-129189657D01*
X112870342Y-129335975D01*
X112870345Y-129335977D01*
X113042402Y-129450941D01*
X113233580Y-129530130D01*
X113436530Y-129570499D01*
X113436534Y-129570500D01*
X113436535Y-129570500D01*
X113643466Y-129570500D01*
X113643467Y-129570499D01*
X113846420Y-129530130D01*
X114037598Y-129450941D01*
X114209655Y-129335977D01*
X114355977Y-129189655D01*
X114470941Y-129017598D01*
X114550130Y-128826420D01*
X114590500Y-128623465D01*
X114590500Y-128416535D01*
X114550130Y-128213580D01*
X114470941Y-128022402D01*
X114355977Y-127850345D01*
X114355975Y-127850342D01*
X114209657Y-127704024D01*
X114085864Y-127621309D01*
X114037598Y-127589059D01*
X113846420Y-127509870D01*
X113846412Y-127509868D01*
X113643469Y-127469500D01*
X113643465Y-127469500D01*
X113436535Y-127469500D01*
X113436530Y-127469500D01*
X113233587Y-127509868D01*
X113233579Y-127509870D01*
X113042403Y-127589058D01*
X112870342Y-127704024D01*
X112724024Y-127850342D01*
X112609058Y-128022403D01*
X112529870Y-128213579D01*
X112529868Y-128213587D01*
X112489500Y-128416530D01*
X112050499Y-128416530D01*
X112010130Y-128213580D01*
X111930941Y-128022402D01*
X111815977Y-127850345D01*
X111815975Y-127850342D01*
X111669657Y-127704024D01*
X111545864Y-127621309D01*
X111497598Y-127589059D01*
X111306420Y-127509870D01*
X111306412Y-127509868D01*
X111103469Y-127469500D01*
X111103465Y-127469500D01*
X110896535Y-127469500D01*
X110896530Y-127469500D01*
X110693587Y-127509868D01*
X110693579Y-127509870D01*
X110502403Y-127589058D01*
X110330342Y-127704024D01*
X110184024Y-127850342D01*
X110069058Y-128022403D01*
X109989870Y-128213579D01*
X109989868Y-128213587D01*
X109949500Y-128416530D01*
X59500000Y-128416530D01*
X59500000Y-126389818D01*
X63867500Y-126389818D01*
X63867500Y-126610181D01*
X63901973Y-126827835D01*
X63970067Y-127037410D01*
X64070113Y-127233760D01*
X64146188Y-127338467D01*
X64146189Y-127338468D01*
X64724742Y-126759914D01*
X64787381Y-126868408D01*
X64899092Y-126980119D01*
X65007583Y-127042757D01*
X64429030Y-127621310D01*
X64533739Y-127697386D01*
X64730089Y-127797432D01*
X64939664Y-127865526D01*
X65157319Y-127900000D01*
X65377681Y-127900000D01*
X65595335Y-127865526D01*
X65804910Y-127797432D01*
X66001252Y-127697390D01*
X66001258Y-127697386D01*
X66105967Y-127621310D01*
X66105968Y-127621309D01*
X65527416Y-127042757D01*
X65635908Y-126980119D01*
X65747619Y-126868408D01*
X65810257Y-126759915D01*
X66388809Y-127338468D01*
X66388810Y-127338467D01*
X66464886Y-127233758D01*
X66464890Y-127233752D01*
X66564932Y-127037410D01*
X66633026Y-126827835D01*
X66667500Y-126610181D01*
X66667500Y-126389818D01*
X66633026Y-126172164D01*
X66564932Y-125962589D01*
X66464886Y-125766239D01*
X66388810Y-125661531D01*
X66388810Y-125661530D01*
X65810257Y-126240083D01*
X65747619Y-126131592D01*
X65635908Y-126019881D01*
X65527415Y-125957242D01*
X66105968Y-125378689D01*
X66105967Y-125378688D01*
X66001260Y-125302613D01*
X65804910Y-125202567D01*
X65595335Y-125134473D01*
X65377681Y-125100000D01*
X65157319Y-125100000D01*
X64939664Y-125134473D01*
X64730089Y-125202567D01*
X64533736Y-125302615D01*
X64429031Y-125378687D01*
X64429030Y-125378688D01*
X65007584Y-125957242D01*
X64899092Y-126019881D01*
X64787381Y-126131592D01*
X64724742Y-126240084D01*
X64146188Y-125661530D01*
X64146187Y-125661531D01*
X64070115Y-125766236D01*
X63970067Y-125962589D01*
X63901973Y-126172164D01*
X63867500Y-126389818D01*
X59500000Y-126389818D01*
X59500000Y-119495731D01*
X63867000Y-119495731D01*
X63867000Y-121504258D01*
X63869854Y-121534698D01*
X63869854Y-121534699D01*
X63914706Y-121662881D01*
X63914707Y-121662882D01*
X63995350Y-121772150D01*
X64104618Y-121852793D01*
X64232802Y-121897646D01*
X64232801Y-121897646D01*
X64236771Y-121898018D01*
X64263235Y-121900500D01*
X66271764Y-121900499D01*
X66302198Y-121897646D01*
X66430382Y-121852793D01*
X66539650Y-121772150D01*
X66620293Y-121662882D01*
X66665146Y-121534698D01*
X66668000Y-121504265D01*
X66667999Y-119495736D01*
X66665146Y-119465302D01*
X66620293Y-119337118D01*
X66539650Y-119227850D01*
X66430382Y-119147207D01*
X66430381Y-119147206D01*
X66302195Y-119102353D01*
X66302198Y-119102353D01*
X66271768Y-119099500D01*
X64263241Y-119099500D01*
X64232801Y-119102354D01*
X64232800Y-119102354D01*
X64104618Y-119147206D01*
X63995350Y-119227850D01*
X63914706Y-119337118D01*
X63869853Y-119465302D01*
X63867000Y-119495731D01*
X59500000Y-119495731D01*
X59500000Y-116889778D01*
X63867000Y-116889778D01*
X63867000Y-117110221D01*
X63901485Y-117327952D01*
X63969603Y-117537603D01*
X63969604Y-117537606D01*
X64069687Y-117734025D01*
X64199252Y-117912358D01*
X64199256Y-117912363D01*
X64355136Y-118068243D01*
X64355141Y-118068247D01*
X64510692Y-118181260D01*
X64533478Y-118197815D01*
X64648721Y-118256535D01*
X64729893Y-118297895D01*
X64729896Y-118297896D01*
X64834721Y-118331955D01*
X64939549Y-118366015D01*
X65157278Y-118400500D01*
X65157279Y-118400500D01*
X65377721Y-118400500D01*
X65377722Y-118400500D01*
X65595451Y-118366015D01*
X65805106Y-118297895D01*
X66001522Y-118197815D01*
X66179865Y-118068242D01*
X66335742Y-117912365D01*
X66465315Y-117734022D01*
X66565395Y-117537606D01*
X66633515Y-117327951D01*
X66668000Y-117110222D01*
X66668000Y-116889778D01*
X66633515Y-116672049D01*
X66595941Y-116556406D01*
X66565396Y-116462396D01*
X66565395Y-116462393D01*
X66530737Y-116394375D01*
X66465315Y-116265978D01*
X66431982Y-116220099D01*
X66335747Y-116087641D01*
X66335743Y-116087636D01*
X66179863Y-115931756D01*
X66179858Y-115931752D01*
X66001525Y-115802187D01*
X66001524Y-115802186D01*
X66001522Y-115802185D01*
X65938596Y-115770122D01*
X65805106Y-115702104D01*
X65805103Y-115702103D01*
X65595452Y-115633985D01*
X65486586Y-115616742D01*
X65377722Y-115599500D01*
X65157278Y-115599500D01*
X65084701Y-115610995D01*
X64939547Y-115633985D01*
X64729896Y-115702103D01*
X64729893Y-115702104D01*
X64533474Y-115802187D01*
X64355141Y-115931752D01*
X64355136Y-115931756D01*
X64199256Y-116087636D01*
X64199252Y-116087641D01*
X64069687Y-116265974D01*
X63969604Y-116462393D01*
X63969603Y-116462396D01*
X63901485Y-116672047D01*
X63867000Y-116889778D01*
X59500000Y-116889778D01*
X59500000Y-113389818D01*
X63867500Y-113389818D01*
X63867500Y-113610181D01*
X63901973Y-113827835D01*
X63970067Y-114037410D01*
X64070113Y-114233760D01*
X64146188Y-114338467D01*
X64146189Y-114338468D01*
X64724742Y-113759914D01*
X64787381Y-113868408D01*
X64899092Y-113980119D01*
X65007583Y-114042757D01*
X64429030Y-114621310D01*
X64533739Y-114697386D01*
X64730089Y-114797432D01*
X64939664Y-114865526D01*
X65157319Y-114900000D01*
X65377681Y-114900000D01*
X65595335Y-114865526D01*
X65804910Y-114797432D01*
X66001252Y-114697390D01*
X66001258Y-114697386D01*
X66105967Y-114621310D01*
X66105968Y-114621309D01*
X65527416Y-114042757D01*
X65635908Y-113980119D01*
X65747619Y-113868408D01*
X65810257Y-113759915D01*
X66388809Y-114338468D01*
X66388810Y-114338467D01*
X66464886Y-114233758D01*
X66464890Y-114233752D01*
X66564932Y-114037410D01*
X66633026Y-113827835D01*
X66667500Y-113610181D01*
X66667500Y-113389818D01*
X66633026Y-113172164D01*
X66564932Y-112962589D01*
X66464886Y-112766239D01*
X66388810Y-112661531D01*
X66388810Y-112661530D01*
X65810257Y-113240083D01*
X65747619Y-113131592D01*
X65635908Y-113019881D01*
X65527415Y-112957242D01*
X66105968Y-112378689D01*
X66105967Y-112378688D01*
X66001260Y-112302613D01*
X65804910Y-112202567D01*
X65595335Y-112134473D01*
X65377681Y-112100000D01*
X65157319Y-112100000D01*
X64939664Y-112134473D01*
X64730089Y-112202567D01*
X64533736Y-112302615D01*
X64429031Y-112378687D01*
X64429030Y-112378688D01*
X65007584Y-112957242D01*
X64899092Y-113019881D01*
X64787381Y-113131592D01*
X64724742Y-113240084D01*
X64146188Y-112661530D01*
X64146187Y-112661531D01*
X64070115Y-112766236D01*
X63970067Y-112962589D01*
X63901973Y-113172164D01*
X63867500Y-113389818D01*
X59500000Y-113389818D01*
X59500000Y-107095730D01*
X62424500Y-107095730D01*
X62424500Y-107904269D01*
X62427353Y-107934699D01*
X62427353Y-107934701D01*
X62472206Y-108062880D01*
X62472207Y-108062882D01*
X62552850Y-108172150D01*
X62662118Y-108252793D01*
X62704845Y-108267744D01*
X62790299Y-108297646D01*
X62820730Y-108300500D01*
X62820734Y-108300500D01*
X64179270Y-108300500D01*
X64209699Y-108297646D01*
X64209701Y-108297646D01*
X64273790Y-108275219D01*
X64337882Y-108252793D01*
X64447150Y-108172150D01*
X64527793Y-108062882D01*
X64563910Y-107959666D01*
X64572646Y-107934701D01*
X64572646Y-107934699D01*
X64575500Y-107904269D01*
X64575500Y-107095730D01*
X64572646Y-107065300D01*
X64572646Y-107065298D01*
X64527793Y-106937119D01*
X64527792Y-106937117D01*
X64447150Y-106827850D01*
X64337882Y-106747207D01*
X64337880Y-106747206D01*
X64209700Y-106702353D01*
X64179270Y-106699500D01*
X64179266Y-106699500D01*
X62820734Y-106699500D01*
X62820730Y-106699500D01*
X62790300Y-106702353D01*
X62790298Y-106702353D01*
X62662119Y-106747206D01*
X62662117Y-106747207D01*
X62552850Y-106827850D01*
X62472207Y-106937117D01*
X62472206Y-106937119D01*
X62427353Y-107065298D01*
X62427353Y-107065300D01*
X62424500Y-107095730D01*
X59500000Y-107095730D01*
X59500000Y-105421153D01*
X62424500Y-105421153D01*
X62424500Y-105578846D01*
X62455261Y-105733489D01*
X62455264Y-105733501D01*
X62515602Y-105879172D01*
X62515609Y-105879185D01*
X62603210Y-106010288D01*
X62603213Y-106010292D01*
X62714707Y-106121786D01*
X62714711Y-106121789D01*
X62845814Y-106209390D01*
X62845827Y-106209397D01*
X62991498Y-106269735D01*
X62991503Y-106269737D01*
X63146153Y-106300499D01*
X63146156Y-106300500D01*
X63146158Y-106300500D01*
X63853844Y-106300500D01*
X63853845Y-106300499D01*
X64008497Y-106269737D01*
X64154179Y-106209394D01*
X64285289Y-106121789D01*
X64396789Y-106010289D01*
X64484394Y-105879179D01*
X64484588Y-105878712D01*
X64544735Y-105733501D01*
X64544737Y-105733497D01*
X64575500Y-105578842D01*
X64575500Y-105421158D01*
X64575500Y-105421155D01*
X64575499Y-105421153D01*
X64544738Y-105266510D01*
X64544737Y-105266503D01*
X64544735Y-105266498D01*
X64484397Y-105120827D01*
X64484390Y-105120814D01*
X64396789Y-104989711D01*
X64396786Y-104989707D01*
X64285292Y-104878213D01*
X64285288Y-104878210D01*
X64154185Y-104790609D01*
X64154172Y-104790602D01*
X64008501Y-104730264D01*
X64008489Y-104730261D01*
X63853845Y-104699500D01*
X63853842Y-104699500D01*
X63146158Y-104699500D01*
X63146155Y-104699500D01*
X62991510Y-104730261D01*
X62991498Y-104730264D01*
X62845827Y-104790602D01*
X62845814Y-104790609D01*
X62714711Y-104878210D01*
X62714707Y-104878213D01*
X62603213Y-104989707D01*
X62603210Y-104989711D01*
X62515609Y-105120814D01*
X62515602Y-105120827D01*
X62455264Y-105266498D01*
X62455261Y-105266510D01*
X62424500Y-105421153D01*
X59500000Y-105421153D01*
X59500000Y-103421153D01*
X62424500Y-103421153D01*
X62424500Y-103578846D01*
X62455261Y-103733489D01*
X62455264Y-103733501D01*
X62515602Y-103879172D01*
X62515609Y-103879185D01*
X62603210Y-104010288D01*
X62603213Y-104010292D01*
X62714707Y-104121786D01*
X62714711Y-104121789D01*
X62845814Y-104209390D01*
X62845827Y-104209397D01*
X62991498Y-104269735D01*
X62991503Y-104269737D01*
X63146153Y-104300499D01*
X63146156Y-104300500D01*
X63146158Y-104300500D01*
X63853844Y-104300500D01*
X63853845Y-104300499D01*
X64008497Y-104269737D01*
X64154179Y-104209394D01*
X64285289Y-104121789D01*
X64396789Y-104010289D01*
X64484394Y-103879179D01*
X64544737Y-103733497D01*
X64557001Y-103671837D01*
X64564507Y-103634108D01*
X70712000Y-103634108D01*
X70712000Y-103765891D01*
X70746108Y-103893187D01*
X70779054Y-103950250D01*
X70812000Y-104007314D01*
X70905186Y-104100500D01*
X71004021Y-104157563D01*
X71016381Y-104164699D01*
X71019314Y-104166392D01*
X71146608Y-104200500D01*
X71146610Y-104200500D01*
X71278390Y-104200500D01*
X71278392Y-104200500D01*
X71405686Y-104166392D01*
X71519814Y-104100500D01*
X71613000Y-104007314D01*
X71678892Y-103893186D01*
X71713000Y-103765892D01*
X71713000Y-103634108D01*
X71705718Y-103606931D01*
X71707379Y-103537085D01*
X71737807Y-103487162D01*
X71987153Y-103237816D01*
X72048475Y-103204334D01*
X72074833Y-103201500D01*
X72288503Y-103201500D01*
X72288505Y-103201500D01*
X72364932Y-103181021D01*
X72433454Y-103141460D01*
X72438095Y-103136819D01*
X72499418Y-103103334D01*
X72525776Y-103100500D01*
X74413625Y-103100500D01*
X74480664Y-103120185D01*
X74526419Y-103172989D01*
X74533401Y-103192412D01*
X74533608Y-103193187D01*
X74537253Y-103199500D01*
X74599500Y-103307314D01*
X74692686Y-103400500D01*
X74806814Y-103466392D01*
X74934108Y-103500500D01*
X74934110Y-103500500D01*
X75065890Y-103500500D01*
X75065892Y-103500500D01*
X75193186Y-103466392D01*
X75307314Y-103400500D01*
X75400500Y-103307314D01*
X75466392Y-103193186D01*
X75500500Y-103065892D01*
X75500500Y-102934108D01*
X75466392Y-102806814D01*
X75400500Y-102692686D01*
X75307314Y-102599500D01*
X75238105Y-102559542D01*
X75193187Y-102533608D01*
X75129539Y-102516554D01*
X75065892Y-102499500D01*
X74934108Y-102499500D01*
X74934102Y-102499500D01*
X74918922Y-102503568D01*
X74854745Y-102503568D01*
X74839562Y-102499500D01*
X72389505Y-102499500D01*
X72310381Y-102499500D01*
X72233953Y-102519978D01*
X72165432Y-102559540D01*
X72165429Y-102559542D01*
X72160791Y-102564181D01*
X72099468Y-102597666D01*
X72073110Y-102600500D01*
X71859438Y-102600500D01*
X71783010Y-102620978D01*
X71714489Y-102660540D01*
X71714486Y-102660542D01*
X71209608Y-103165420D01*
X71154021Y-103197514D01*
X71146609Y-103199500D01*
X71146608Y-103199500D01*
X71019314Y-103233608D01*
X71019312Y-103233608D01*
X71019312Y-103233609D01*
X70905186Y-103299500D01*
X70905183Y-103299502D01*
X70812002Y-103392683D01*
X70812000Y-103392686D01*
X70746108Y-103506812D01*
X70712000Y-103634108D01*
X64564507Y-103634108D01*
X64570936Y-103601790D01*
X64575499Y-103578846D01*
X64575500Y-103578844D01*
X64575500Y-103421155D01*
X64575499Y-103421153D01*
X64571390Y-103400497D01*
X64544737Y-103266503D01*
X64544735Y-103266498D01*
X64484397Y-103120827D01*
X64484390Y-103120814D01*
X64396789Y-102989711D01*
X64396786Y-102989707D01*
X64285292Y-102878213D01*
X64285288Y-102878210D01*
X64154185Y-102790609D01*
X64154172Y-102790602D01*
X64008501Y-102730264D01*
X64008489Y-102730261D01*
X63853845Y-102699500D01*
X63853842Y-102699500D01*
X63146158Y-102699500D01*
X63146155Y-102699500D01*
X62991510Y-102730261D01*
X62991498Y-102730264D01*
X62845827Y-102790602D01*
X62845814Y-102790609D01*
X62714711Y-102878210D01*
X62714707Y-102878213D01*
X62603213Y-102989707D01*
X62603210Y-102989711D01*
X62515609Y-103120814D01*
X62515602Y-103120827D01*
X62455264Y-103266498D01*
X62455261Y-103266510D01*
X62424500Y-103421153D01*
X59500000Y-103421153D01*
X59500000Y-101421153D01*
X62424500Y-101421153D01*
X62424500Y-101578846D01*
X62455261Y-101733489D01*
X62455264Y-101733501D01*
X62515602Y-101879172D01*
X62515609Y-101879185D01*
X62603210Y-102010288D01*
X62603213Y-102010292D01*
X62714707Y-102121786D01*
X62714711Y-102121789D01*
X62845814Y-102209390D01*
X62845827Y-102209397D01*
X62991498Y-102269735D01*
X62991503Y-102269737D01*
X63146153Y-102300499D01*
X63146156Y-102300500D01*
X63146158Y-102300500D01*
X63853844Y-102300500D01*
X63853845Y-102300499D01*
X64008497Y-102269737D01*
X64154179Y-102209394D01*
X64285289Y-102121789D01*
X64396789Y-102010289D01*
X64484394Y-101879179D01*
X64509030Y-101819702D01*
X101725000Y-101819702D01*
X101736602Y-101878033D01*
X101736603Y-101878034D01*
X101780808Y-101944191D01*
X101846965Y-101988396D01*
X101846966Y-101988397D01*
X101905297Y-101999999D01*
X101905301Y-102000000D01*
X103200000Y-102000000D01*
X103600000Y-102000000D01*
X104894699Y-102000000D01*
X104894702Y-101999999D01*
X104953033Y-101988397D01*
X104953034Y-101988396D01*
X105019191Y-101944191D01*
X105063396Y-101878034D01*
X105063397Y-101878033D01*
X105074999Y-101819702D01*
X105075000Y-101819699D01*
X105075000Y-99750000D01*
X103600000Y-99750000D01*
X103600000Y-102000000D01*
X103200000Y-102000000D01*
X103200000Y-99750000D01*
X101725000Y-99750000D01*
X101725000Y-101819702D01*
X64509030Y-101819702D01*
X64544737Y-101733497D01*
X64575500Y-101578842D01*
X64575500Y-101421158D01*
X64575500Y-101421155D01*
X64575499Y-101421153D01*
X64567281Y-101379837D01*
X64544737Y-101266503D01*
X64517398Y-101200500D01*
X64484397Y-101120827D01*
X64484390Y-101120814D01*
X64396789Y-100989711D01*
X64396786Y-100989707D01*
X64285292Y-100878213D01*
X64285288Y-100878210D01*
X64154185Y-100790609D01*
X64154172Y-100790602D01*
X64008501Y-100730264D01*
X64008489Y-100730261D01*
X63853845Y-100699500D01*
X63853842Y-100699500D01*
X63146158Y-100699500D01*
X63146155Y-100699500D01*
X62991510Y-100730261D01*
X62991498Y-100730264D01*
X62845827Y-100790602D01*
X62845814Y-100790609D01*
X62714711Y-100878210D01*
X62714707Y-100878213D01*
X62603213Y-100989707D01*
X62603210Y-100989711D01*
X62515609Y-101120814D01*
X62515602Y-101120827D01*
X62455264Y-101266498D01*
X62455261Y-101266510D01*
X62424500Y-101421153D01*
X59500000Y-101421153D01*
X59500000Y-99421153D01*
X62424500Y-99421153D01*
X62424500Y-99578846D01*
X62455261Y-99733489D01*
X62455264Y-99733501D01*
X62515602Y-99879172D01*
X62515609Y-99879185D01*
X62603210Y-100010288D01*
X62603213Y-100010292D01*
X62714707Y-100121786D01*
X62714711Y-100121789D01*
X62845814Y-100209390D01*
X62845827Y-100209397D01*
X62991498Y-100269735D01*
X62991503Y-100269737D01*
X63141131Y-100299500D01*
X63146153Y-100300499D01*
X63146156Y-100300500D01*
X63146158Y-100300500D01*
X63853844Y-100300500D01*
X63853845Y-100300499D01*
X64008497Y-100269737D01*
X64154179Y-100209394D01*
X64285289Y-100121789D01*
X64396789Y-100010289D01*
X64484394Y-99879179D01*
X64544737Y-99733497D01*
X64575500Y-99578842D01*
X64575500Y-99421158D01*
X64575500Y-99421155D01*
X64575499Y-99421153D01*
X64561346Y-99350000D01*
X64544737Y-99266503D01*
X64489898Y-99134108D01*
X64484397Y-99120827D01*
X64484390Y-99120814D01*
X64396789Y-98989711D01*
X64396786Y-98989707D01*
X64285292Y-98878213D01*
X64285288Y-98878210D01*
X64154185Y-98790609D01*
X64154172Y-98790602D01*
X64008501Y-98730264D01*
X64008489Y-98730261D01*
X63853845Y-98699500D01*
X63853842Y-98699500D01*
X63146158Y-98699500D01*
X63146155Y-98699500D01*
X62991510Y-98730261D01*
X62991498Y-98730264D01*
X62845827Y-98790602D01*
X62845814Y-98790609D01*
X62714711Y-98878210D01*
X62714707Y-98878213D01*
X62603213Y-98989707D01*
X62603210Y-98989711D01*
X62515609Y-99120814D01*
X62515602Y-99120827D01*
X62455264Y-99266498D01*
X62455261Y-99266510D01*
X62424500Y-99421153D01*
X59500000Y-99421153D01*
X59500000Y-97421153D01*
X62424500Y-97421153D01*
X62424500Y-97578846D01*
X62455261Y-97733489D01*
X62455264Y-97733501D01*
X62515602Y-97879172D01*
X62515609Y-97879185D01*
X62603210Y-98010288D01*
X62603213Y-98010292D01*
X62714707Y-98121786D01*
X62714711Y-98121789D01*
X62845814Y-98209390D01*
X62845827Y-98209397D01*
X62991498Y-98269735D01*
X62991503Y-98269737D01*
X63146153Y-98300499D01*
X63146156Y-98300500D01*
X63146158Y-98300500D01*
X63853844Y-98300500D01*
X63853845Y-98300499D01*
X64008497Y-98269737D01*
X64154179Y-98209394D01*
X64285289Y-98121789D01*
X64396789Y-98010289D01*
X64484394Y-97879179D01*
X64544737Y-97733497D01*
X64575500Y-97578842D01*
X64575500Y-97421158D01*
X64575500Y-97421155D01*
X64575499Y-97421153D01*
X64544738Y-97266510D01*
X64544737Y-97266503D01*
X64517398Y-97200500D01*
X64484397Y-97120827D01*
X64484390Y-97120814D01*
X64396789Y-96989711D01*
X64396786Y-96989707D01*
X64285292Y-96878213D01*
X64285288Y-96878210D01*
X64154185Y-96790609D01*
X64154172Y-96790602D01*
X64008501Y-96730264D01*
X64008489Y-96730261D01*
X63853845Y-96699500D01*
X63853842Y-96699500D01*
X63146158Y-96699500D01*
X63146155Y-96699500D01*
X62991510Y-96730261D01*
X62991498Y-96730264D01*
X62845827Y-96790602D01*
X62845814Y-96790609D01*
X62714711Y-96878210D01*
X62714707Y-96878213D01*
X62603213Y-96989707D01*
X62603210Y-96989711D01*
X62515609Y-97120814D01*
X62515602Y-97120827D01*
X62455264Y-97266498D01*
X62455261Y-97266510D01*
X62424500Y-97421153D01*
X59500000Y-97421153D01*
X59500000Y-95421153D01*
X62424500Y-95421153D01*
X62424500Y-95578846D01*
X62455261Y-95733489D01*
X62455264Y-95733501D01*
X62515602Y-95879172D01*
X62515609Y-95879185D01*
X62603210Y-96010288D01*
X62603213Y-96010292D01*
X62714707Y-96121786D01*
X62714711Y-96121789D01*
X62845814Y-96209390D01*
X62845827Y-96209397D01*
X62991498Y-96269735D01*
X62991503Y-96269737D01*
X63141131Y-96299500D01*
X63146153Y-96300499D01*
X63146156Y-96300500D01*
X63146158Y-96300500D01*
X63853844Y-96300500D01*
X63853845Y-96300499D01*
X64008497Y-96269737D01*
X64154179Y-96209394D01*
X64285289Y-96121789D01*
X64396789Y-96010289D01*
X64484394Y-95879179D01*
X64544737Y-95733497D01*
X64575500Y-95578842D01*
X64575500Y-95421158D01*
X64575500Y-95421155D01*
X64575499Y-95421153D01*
X64544738Y-95266510D01*
X64544737Y-95266503D01*
X64544735Y-95266498D01*
X64484397Y-95120827D01*
X64484390Y-95120814D01*
X64396789Y-94989711D01*
X64396786Y-94989707D01*
X64285292Y-94878213D01*
X64285288Y-94878210D01*
X64154185Y-94790609D01*
X64154172Y-94790602D01*
X64008501Y-94730264D01*
X64008489Y-94730261D01*
X63853845Y-94699500D01*
X63853842Y-94699500D01*
X63146158Y-94699500D01*
X63146155Y-94699500D01*
X62991510Y-94730261D01*
X62991498Y-94730264D01*
X62845827Y-94790602D01*
X62845814Y-94790609D01*
X62714711Y-94878210D01*
X62714707Y-94878213D01*
X62603213Y-94989707D01*
X62603210Y-94989711D01*
X62515609Y-95120814D01*
X62515602Y-95120827D01*
X62455264Y-95266498D01*
X62455261Y-95266510D01*
X62424500Y-95421153D01*
X59500000Y-95421153D01*
X59500000Y-93421153D01*
X62424500Y-93421153D01*
X62424500Y-93578846D01*
X62455261Y-93733489D01*
X62455264Y-93733501D01*
X62515602Y-93879172D01*
X62515609Y-93879185D01*
X62603210Y-94010288D01*
X62603213Y-94010292D01*
X62714707Y-94121786D01*
X62714711Y-94121789D01*
X62845814Y-94209390D01*
X62845827Y-94209397D01*
X62991498Y-94269735D01*
X62991503Y-94269737D01*
X63146153Y-94300499D01*
X63146156Y-94300500D01*
X63146158Y-94300500D01*
X63853844Y-94300500D01*
X63853845Y-94300499D01*
X64008497Y-94269737D01*
X64154179Y-94209394D01*
X64285289Y-94121789D01*
X64396789Y-94010289D01*
X64484394Y-93879179D01*
X64544737Y-93733497D01*
X64575500Y-93578842D01*
X64575500Y-93421158D01*
X64575500Y-93421155D01*
X64575499Y-93421153D01*
X64544738Y-93266510D01*
X64544737Y-93266503D01*
X64544735Y-93266498D01*
X64484397Y-93120827D01*
X64484390Y-93120814D01*
X64396789Y-92989711D01*
X64396786Y-92989707D01*
X64285292Y-92878213D01*
X64285288Y-92878210D01*
X64154185Y-92790609D01*
X64154172Y-92790602D01*
X64008501Y-92730264D01*
X64008489Y-92730261D01*
X63853845Y-92699500D01*
X63853842Y-92699500D01*
X63146158Y-92699500D01*
X63146155Y-92699500D01*
X62991510Y-92730261D01*
X62991498Y-92730264D01*
X62845827Y-92790602D01*
X62845814Y-92790609D01*
X62714711Y-92878210D01*
X62714707Y-92878213D01*
X62603213Y-92989707D01*
X62603210Y-92989711D01*
X62515609Y-93120814D01*
X62515602Y-93120827D01*
X62455264Y-93266498D01*
X62455261Y-93266510D01*
X62424500Y-93421153D01*
X59500000Y-93421153D01*
X59500000Y-92234108D01*
X95999500Y-92234108D01*
X95999500Y-99734108D01*
X95999500Y-99865892D01*
X96003060Y-99879179D01*
X96033608Y-99993187D01*
X96043482Y-100010289D01*
X96099500Y-100107314D01*
X96099501Y-100107315D01*
X96099502Y-100107316D01*
X96995159Y-101002972D01*
X96995169Y-101002983D01*
X96999499Y-101007313D01*
X96999500Y-101007314D01*
X97092686Y-101100500D01*
X97206814Y-101166392D01*
X97334107Y-101200500D01*
X97334108Y-101200500D01*
X97334109Y-101200500D01*
X98665890Y-101200500D01*
X98665892Y-101200500D01*
X98793186Y-101166392D01*
X98907314Y-101100500D01*
X99000500Y-101007314D01*
X99066392Y-100893186D01*
X99100500Y-100765892D01*
X99100500Y-100634108D01*
X99066392Y-100506814D01*
X99000500Y-100392686D01*
X98907314Y-100299500D01*
X98850250Y-100266554D01*
X98793187Y-100233608D01*
X98702802Y-100209390D01*
X98665892Y-100199500D01*
X98665891Y-100199500D01*
X97658675Y-100199500D01*
X97591636Y-100179815D01*
X97570994Y-100163181D01*
X97036819Y-99629005D01*
X97003334Y-99567682D01*
X97000500Y-99541324D01*
X97000500Y-99452206D01*
X97020185Y-99385167D01*
X97072989Y-99339412D01*
X97142147Y-99329468D01*
X97205703Y-99358493D01*
X97231887Y-99390206D01*
X97299497Y-99507310D01*
X97299499Y-99507312D01*
X97299500Y-99507314D01*
X97392686Y-99600500D01*
X97491521Y-99657563D01*
X97506810Y-99666390D01*
X97506814Y-99666392D01*
X97634108Y-99700500D01*
X97634110Y-99700500D01*
X97765890Y-99700500D01*
X97765892Y-99700500D01*
X97893186Y-99666392D01*
X97978540Y-99617113D01*
X98040540Y-99600500D01*
X99252725Y-99600500D01*
X99252727Y-99600500D01*
X99354588Y-99573207D01*
X99445913Y-99520480D01*
X101513321Y-97453071D01*
X101574642Y-97419588D01*
X101644334Y-97424572D01*
X101700267Y-97466444D01*
X101724684Y-97531908D01*
X101725000Y-97540754D01*
X101725000Y-99350000D01*
X105075000Y-99350000D01*
X105075000Y-97280303D01*
X105068712Y-97248690D01*
X105074941Y-97179099D01*
X105117804Y-97123922D01*
X105183694Y-97100678D01*
X105190330Y-97100500D01*
X105659460Y-97100500D01*
X105721460Y-97117113D01*
X105727893Y-97120827D01*
X105806814Y-97166392D01*
X105934108Y-97200500D01*
X105934110Y-97200500D01*
X106065890Y-97200500D01*
X106065892Y-97200500D01*
X106193186Y-97166392D01*
X106307314Y-97100500D01*
X106400500Y-97007314D01*
X106466392Y-96893186D01*
X106500500Y-96765892D01*
X106500500Y-96634108D01*
X106466392Y-96506814D01*
X106400500Y-96392686D01*
X106307314Y-96299500D01*
X106250250Y-96266554D01*
X106193187Y-96233608D01*
X106102802Y-96209390D01*
X106065892Y-96199500D01*
X105934108Y-96199500D01*
X105806814Y-96233608D01*
X105806813Y-96233608D01*
X105806811Y-96233609D01*
X105806810Y-96233609D01*
X105721460Y-96282887D01*
X105659460Y-96299500D01*
X101647273Y-96299500D01*
X101545410Y-96326793D01*
X101454087Y-96379520D01*
X101454084Y-96379522D01*
X99070426Y-98763181D01*
X99009103Y-98796666D01*
X98982745Y-98799500D01*
X98040540Y-98799500D01*
X97978540Y-98782887D01*
X97893188Y-98733609D01*
X97893187Y-98733608D01*
X97893186Y-98733608D01*
X97765892Y-98699500D01*
X97634108Y-98699500D01*
X97506812Y-98733608D01*
X97392686Y-98799500D01*
X97392683Y-98799502D01*
X97299502Y-98892683D01*
X97299500Y-98892686D01*
X97231887Y-99009794D01*
X97181319Y-99058009D01*
X97112712Y-99071231D01*
X97047848Y-99045263D01*
X97007320Y-98988349D01*
X97000500Y-98947793D01*
X97000500Y-92558676D01*
X97020185Y-92491637D01*
X97036819Y-92470995D01*
X100170995Y-89336819D01*
X100232318Y-89303334D01*
X100258676Y-89300500D01*
X104742737Y-89300500D01*
X104809776Y-89320185D01*
X104811520Y-89321326D01*
X105039284Y-89473168D01*
X105084144Y-89526732D01*
X105094500Y-89576341D01*
X105094500Y-91576007D01*
X105099197Y-91619686D01*
X105110397Y-91671174D01*
X105112890Y-91681372D01*
X105112891Y-91681375D01*
X105155899Y-91762083D01*
X105155901Y-91762086D01*
X105201660Y-91814895D01*
X105219242Y-91832839D01*
X105219246Y-91832843D01*
X105219247Y-91832844D01*
X105219249Y-91832845D01*
X105244896Y-91847191D01*
X105299063Y-91877490D01*
X105366102Y-91897175D01*
X105424000Y-91905500D01*
X105424004Y-91905500D01*
X107433638Y-91905500D01*
X107439920Y-91904851D01*
X107475630Y-91901164D01*
X107525239Y-91890808D01*
X107533768Y-91888837D01*
X107615191Y-91847190D01*
X107668756Y-91802329D01*
X107707797Y-91758774D01*
X107850160Y-91545230D01*
X107851140Y-91543747D01*
X107852281Y-91542003D01*
X107877490Y-91487393D01*
X107897175Y-91420354D01*
X107905500Y-91362456D01*
X107905500Y-87324000D01*
X107900803Y-87280316D01*
X107896897Y-87262364D01*
X107889602Y-87228825D01*
X107889348Y-87227789D01*
X107887110Y-87218627D01*
X107844100Y-87137915D01*
X107798345Y-87085111D01*
X107798339Y-87085104D01*
X107780757Y-87067160D01*
X107780756Y-87067159D01*
X107780754Y-87067157D01*
X107780752Y-87067156D01*
X107780750Y-87067154D01*
X107700940Y-87022511D01*
X107700935Y-87022509D01*
X107633903Y-87002826D01*
X107633899Y-87002825D01*
X107633898Y-87002825D01*
X107576000Y-86994500D01*
X104824000Y-86994500D01*
X104823992Y-86994500D01*
X104780313Y-86999197D01*
X104728825Y-87010397D01*
X104718627Y-87012890D01*
X104718624Y-87012891D01*
X104637916Y-87055899D01*
X104637913Y-87055901D01*
X104585104Y-87101660D01*
X104567160Y-87119242D01*
X104567154Y-87119249D01*
X104522511Y-87199059D01*
X104522509Y-87199064D01*
X104502826Y-87266096D01*
X104502825Y-87266101D01*
X104502825Y-87266102D01*
X104494502Y-87323992D01*
X104494500Y-87324003D01*
X104494500Y-88175500D01*
X104474815Y-88242539D01*
X104422011Y-88288294D01*
X104370500Y-88299500D01*
X99934107Y-88299500D01*
X99806812Y-88333608D01*
X99692686Y-88399500D01*
X99692683Y-88399502D01*
X96099502Y-91992683D01*
X96099500Y-91992686D01*
X96033608Y-92106812D01*
X95999500Y-92234108D01*
X59500000Y-92234108D01*
X59500000Y-87595730D01*
X62424500Y-87595730D01*
X62424500Y-88404269D01*
X62427353Y-88434699D01*
X62427353Y-88434701D01*
X62472206Y-88562880D01*
X62472207Y-88562882D01*
X62552850Y-88672150D01*
X62662118Y-88752793D01*
X62704845Y-88767744D01*
X62790299Y-88797646D01*
X62820730Y-88800500D01*
X62820734Y-88800500D01*
X64179270Y-88800500D01*
X64209699Y-88797646D01*
X64209701Y-88797646D01*
X64273790Y-88775219D01*
X64337882Y-88752793D01*
X64447150Y-88672150D01*
X64527793Y-88562882D01*
X64550219Y-88498790D01*
X64572646Y-88434701D01*
X64572646Y-88434699D01*
X64575500Y-88404269D01*
X64575500Y-87595730D01*
X64572646Y-87565300D01*
X64572646Y-87565298D01*
X64538227Y-87466936D01*
X64527793Y-87437119D01*
X64527793Y-87437118D01*
X64525572Y-87434108D01*
X70574500Y-87434108D01*
X70574500Y-87565891D01*
X70608608Y-87693187D01*
X70641554Y-87750250D01*
X70674500Y-87807314D01*
X70767686Y-87900500D01*
X70881814Y-87966392D01*
X71009108Y-88000500D01*
X71009110Y-88000500D01*
X71099167Y-88000500D01*
X71166206Y-88020185D01*
X71186848Y-88036819D01*
X71191489Y-88041460D01*
X71191491Y-88041461D01*
X71191495Y-88041464D01*
X71260004Y-88081017D01*
X71260011Y-88081021D01*
X71336438Y-88101500D01*
X71336440Y-88101500D01*
X73188617Y-88101500D01*
X73188619Y-88101500D01*
X73265046Y-88081021D01*
X73333568Y-88041460D01*
X73389517Y-87985511D01*
X74038209Y-87336819D01*
X74099532Y-87303334D01*
X74125890Y-87300500D01*
X74741324Y-87300500D01*
X74808363Y-87320185D01*
X74829005Y-87336819D01*
X74892686Y-87400500D01*
X75006814Y-87466392D01*
X75134108Y-87500500D01*
X75134110Y-87500500D01*
X75265890Y-87500500D01*
X75265892Y-87500500D01*
X75393186Y-87466392D01*
X75507314Y-87400500D01*
X75600500Y-87307314D01*
X75666392Y-87193186D01*
X75700500Y-87065892D01*
X75700500Y-86934108D01*
X75666392Y-86806814D01*
X75600500Y-86692686D01*
X75507314Y-86599500D01*
X75450250Y-86566554D01*
X75393187Y-86533608D01*
X75329539Y-86516554D01*
X75265892Y-86499500D01*
X75134108Y-86499500D01*
X75006812Y-86533608D01*
X74892686Y-86599500D01*
X74892683Y-86599502D01*
X74829005Y-86663181D01*
X74767682Y-86696666D01*
X74741324Y-86699500D01*
X73910495Y-86699500D01*
X73873586Y-86709390D01*
X73834067Y-86719979D01*
X73774991Y-86754087D01*
X73774990Y-86754086D01*
X73765549Y-86759537D01*
X73765544Y-86759541D01*
X73060905Y-87464181D01*
X72999582Y-87497666D01*
X72973224Y-87500500D01*
X71688438Y-87500500D01*
X71621399Y-87480815D01*
X71575644Y-87428011D01*
X71568663Y-87408593D01*
X71541392Y-87306814D01*
X71475500Y-87192686D01*
X71382314Y-87099500D01*
X71290585Y-87046540D01*
X71268187Y-87033608D01*
X71190868Y-87012891D01*
X71140892Y-86999500D01*
X71009108Y-86999500D01*
X70881812Y-87033608D01*
X70767686Y-87099500D01*
X70767683Y-87099502D01*
X70674502Y-87192683D01*
X70674500Y-87192686D01*
X70608608Y-87306812D01*
X70574500Y-87434108D01*
X64525572Y-87434108D01*
X64447150Y-87327850D01*
X64337882Y-87247207D01*
X64337880Y-87247206D01*
X64209700Y-87202353D01*
X64179270Y-87199500D01*
X64179266Y-87199500D01*
X62820734Y-87199500D01*
X62820730Y-87199500D01*
X62790300Y-87202353D01*
X62790298Y-87202353D01*
X62662119Y-87247206D01*
X62662117Y-87247207D01*
X62552850Y-87327850D01*
X62472207Y-87437117D01*
X62472206Y-87437119D01*
X62427353Y-87565298D01*
X62427353Y-87565300D01*
X62424500Y-87595730D01*
X59500000Y-87595730D01*
X59500000Y-85921153D01*
X62424500Y-85921153D01*
X62424500Y-86078846D01*
X62455261Y-86233489D01*
X62455264Y-86233501D01*
X62515602Y-86379172D01*
X62515609Y-86379185D01*
X62603210Y-86510288D01*
X62603213Y-86510292D01*
X62714707Y-86621786D01*
X62714711Y-86621789D01*
X62845814Y-86709390D01*
X62845827Y-86709397D01*
X62966885Y-86759540D01*
X62991503Y-86769737D01*
X63146153Y-86800499D01*
X63146156Y-86800500D01*
X63146158Y-86800500D01*
X63853844Y-86800500D01*
X63853845Y-86800499D01*
X64008497Y-86769737D01*
X64154179Y-86709394D01*
X64285289Y-86621789D01*
X64396789Y-86510289D01*
X64484394Y-86379179D01*
X64544737Y-86233497D01*
X64575500Y-86078842D01*
X64575500Y-85921158D01*
X64575500Y-85921155D01*
X64575499Y-85921153D01*
X64544738Y-85766510D01*
X64544737Y-85766503D01*
X64544735Y-85766498D01*
X64484397Y-85620827D01*
X64484390Y-85620814D01*
X64396789Y-85489711D01*
X64396786Y-85489707D01*
X64285292Y-85378213D01*
X64285288Y-85378210D01*
X64154185Y-85290609D01*
X64154172Y-85290602D01*
X64008501Y-85230264D01*
X64008489Y-85230261D01*
X63853845Y-85199500D01*
X63853842Y-85199500D01*
X63146158Y-85199500D01*
X63146155Y-85199500D01*
X62991510Y-85230261D01*
X62991498Y-85230264D01*
X62845827Y-85290602D01*
X62845814Y-85290609D01*
X62714711Y-85378210D01*
X62714707Y-85378213D01*
X62603213Y-85489707D01*
X62603210Y-85489711D01*
X62515609Y-85620814D01*
X62515602Y-85620827D01*
X62455264Y-85766498D01*
X62455261Y-85766510D01*
X62424500Y-85921153D01*
X59500000Y-85921153D01*
X59500000Y-83921153D01*
X62424500Y-83921153D01*
X62424500Y-84078846D01*
X62455261Y-84233489D01*
X62455264Y-84233501D01*
X62515602Y-84379172D01*
X62515609Y-84379185D01*
X62603210Y-84510288D01*
X62603213Y-84510292D01*
X62714707Y-84621786D01*
X62714711Y-84621789D01*
X62845814Y-84709390D01*
X62845827Y-84709397D01*
X62991498Y-84769735D01*
X62991503Y-84769737D01*
X63146153Y-84800499D01*
X63146156Y-84800500D01*
X63146158Y-84800500D01*
X63853844Y-84800500D01*
X63853845Y-84800499D01*
X64008497Y-84769737D01*
X64154179Y-84709394D01*
X64285289Y-84621789D01*
X64396789Y-84510289D01*
X64484394Y-84379179D01*
X64544737Y-84233497D01*
X64575500Y-84078842D01*
X64575500Y-83921158D01*
X64575500Y-83921155D01*
X64575499Y-83921153D01*
X64544738Y-83766510D01*
X64544737Y-83766503D01*
X64544735Y-83766498D01*
X64484397Y-83620827D01*
X64484390Y-83620814D01*
X64396789Y-83489711D01*
X64396786Y-83489707D01*
X64285292Y-83378213D01*
X64285288Y-83378210D01*
X64154185Y-83290609D01*
X64154172Y-83290602D01*
X64008501Y-83230264D01*
X64008489Y-83230261D01*
X63853845Y-83199500D01*
X63853842Y-83199500D01*
X63146158Y-83199500D01*
X63146155Y-83199500D01*
X62991510Y-83230261D01*
X62991498Y-83230264D01*
X62845827Y-83290602D01*
X62845814Y-83290609D01*
X62714711Y-83378210D01*
X62714707Y-83378213D01*
X62603213Y-83489707D01*
X62603210Y-83489711D01*
X62515609Y-83620814D01*
X62515602Y-83620827D01*
X62455264Y-83766498D01*
X62455261Y-83766510D01*
X62424500Y-83921153D01*
X59500000Y-83921153D01*
X59500000Y-81921153D01*
X62424500Y-81921153D01*
X62424500Y-82078846D01*
X62455261Y-82233489D01*
X62455264Y-82233501D01*
X62515602Y-82379172D01*
X62515609Y-82379185D01*
X62603210Y-82510288D01*
X62603213Y-82510292D01*
X62714707Y-82621786D01*
X62714711Y-82621789D01*
X62845814Y-82709390D01*
X62845827Y-82709397D01*
X62991498Y-82769735D01*
X62991503Y-82769737D01*
X63146153Y-82800499D01*
X63146156Y-82800500D01*
X63146158Y-82800500D01*
X63853844Y-82800500D01*
X63853845Y-82800499D01*
X64008497Y-82769737D01*
X64154179Y-82709394D01*
X64285289Y-82621789D01*
X64396789Y-82510289D01*
X64484394Y-82379179D01*
X64544737Y-82233497D01*
X64575500Y-82078842D01*
X64575500Y-81921158D01*
X64575500Y-81921155D01*
X64575499Y-81921153D01*
X64544738Y-81766510D01*
X64544737Y-81766503D01*
X64544735Y-81766498D01*
X64484397Y-81620827D01*
X64484390Y-81620814D01*
X64396789Y-81489711D01*
X64396786Y-81489707D01*
X64285292Y-81378213D01*
X64285288Y-81378210D01*
X64154185Y-81290609D01*
X64154172Y-81290602D01*
X64008501Y-81230264D01*
X64008489Y-81230261D01*
X63853845Y-81199500D01*
X63853842Y-81199500D01*
X63146158Y-81199500D01*
X63146155Y-81199500D01*
X62991510Y-81230261D01*
X62991498Y-81230264D01*
X62845827Y-81290602D01*
X62845814Y-81290609D01*
X62714711Y-81378210D01*
X62714707Y-81378213D01*
X62603213Y-81489707D01*
X62603210Y-81489711D01*
X62515609Y-81620814D01*
X62515602Y-81620827D01*
X62455264Y-81766498D01*
X62455261Y-81766510D01*
X62424500Y-81921153D01*
X59500000Y-81921153D01*
X59500000Y-79921153D01*
X62424500Y-79921153D01*
X62424500Y-80078846D01*
X62455261Y-80233489D01*
X62455264Y-80233501D01*
X62515602Y-80379172D01*
X62515609Y-80379185D01*
X62603210Y-80510288D01*
X62603213Y-80510292D01*
X62714707Y-80621786D01*
X62714711Y-80621789D01*
X62845814Y-80709390D01*
X62845827Y-80709397D01*
X62991498Y-80769735D01*
X62991503Y-80769737D01*
X63146153Y-80800499D01*
X63146156Y-80800500D01*
X63146158Y-80800500D01*
X63853844Y-80800500D01*
X63853845Y-80800499D01*
X64008497Y-80769737D01*
X64154179Y-80709394D01*
X64285289Y-80621789D01*
X64396789Y-80510289D01*
X64484394Y-80379179D01*
X64544737Y-80233497D01*
X64575500Y-80078842D01*
X64575500Y-79921158D01*
X64575500Y-79921155D01*
X64575499Y-79921153D01*
X64544738Y-79766510D01*
X64544737Y-79766503D01*
X64544735Y-79766498D01*
X64484397Y-79620827D01*
X64484390Y-79620814D01*
X64396789Y-79489711D01*
X64396786Y-79489707D01*
X64285292Y-79378213D01*
X64285288Y-79378210D01*
X64154185Y-79290609D01*
X64154172Y-79290602D01*
X64008501Y-79230264D01*
X64008489Y-79230261D01*
X63853845Y-79199500D01*
X63853842Y-79199500D01*
X63146158Y-79199500D01*
X63146155Y-79199500D01*
X62991510Y-79230261D01*
X62991498Y-79230264D01*
X62845827Y-79290602D01*
X62845814Y-79290609D01*
X62714711Y-79378210D01*
X62714707Y-79378213D01*
X62603213Y-79489707D01*
X62603210Y-79489711D01*
X62515609Y-79620814D01*
X62515602Y-79620827D01*
X62455264Y-79766498D01*
X62455261Y-79766510D01*
X62424500Y-79921153D01*
X59500000Y-79921153D01*
X59500000Y-77921153D01*
X62424500Y-77921153D01*
X62424500Y-78078846D01*
X62455261Y-78233489D01*
X62455264Y-78233501D01*
X62515602Y-78379172D01*
X62515609Y-78379185D01*
X62603210Y-78510288D01*
X62603213Y-78510292D01*
X62714707Y-78621786D01*
X62714711Y-78621789D01*
X62845814Y-78709390D01*
X62845827Y-78709397D01*
X62991498Y-78769735D01*
X62991503Y-78769737D01*
X63146153Y-78800499D01*
X63146156Y-78800500D01*
X63146158Y-78800500D01*
X63853844Y-78800500D01*
X63853845Y-78800499D01*
X64008497Y-78769737D01*
X64154179Y-78709394D01*
X64285289Y-78621789D01*
X64396789Y-78510289D01*
X64484394Y-78379179D01*
X64544737Y-78233497D01*
X64575500Y-78078842D01*
X64575500Y-77921158D01*
X64575500Y-77921155D01*
X64575499Y-77921153D01*
X64544738Y-77766510D01*
X64544737Y-77766503D01*
X64513417Y-77690889D01*
X64484397Y-77620827D01*
X64484390Y-77620814D01*
X64396789Y-77489711D01*
X64396786Y-77489707D01*
X64285292Y-77378213D01*
X64285288Y-77378210D01*
X64237084Y-77346001D01*
X64154185Y-77290609D01*
X64154172Y-77290602D01*
X64045994Y-77245794D01*
X109850000Y-77245794D01*
X109850000Y-78050000D01*
X110682424Y-78050000D01*
X110650000Y-78171009D01*
X110650000Y-78328991D01*
X110682424Y-78450000D01*
X109850000Y-78450000D01*
X109850000Y-79254205D01*
X109852850Y-79284599D01*
X109852850Y-79284603D01*
X109897653Y-79412644D01*
X109978208Y-79521791D01*
X110087355Y-79602346D01*
X110215398Y-79647149D01*
X110245794Y-79650000D01*
X111050000Y-79650000D01*
X111050000Y-78817575D01*
X111171009Y-78850000D01*
X111328991Y-78850000D01*
X111450000Y-78817575D01*
X111450000Y-79650000D01*
X112254206Y-79650000D01*
X112284599Y-79647149D01*
X112284603Y-79647149D01*
X112412644Y-79602346D01*
X112521791Y-79521791D01*
X112602346Y-79412644D01*
X112647149Y-79284603D01*
X112647149Y-79284599D01*
X112650000Y-79254205D01*
X112650000Y-78450000D01*
X111817576Y-78450000D01*
X111850000Y-78328991D01*
X111850000Y-78171009D01*
X111817576Y-78050000D01*
X112650000Y-78050000D01*
X112650000Y-77245794D01*
X112647149Y-77215400D01*
X112647149Y-77215396D01*
X112602346Y-77087355D01*
X112521791Y-76978208D01*
X112412644Y-76897653D01*
X112284601Y-76852850D01*
X112254206Y-76850000D01*
X111450000Y-76850000D01*
X111450000Y-77682424D01*
X111328991Y-77650000D01*
X111171009Y-77650000D01*
X111050000Y-77682424D01*
X111050000Y-76850000D01*
X110245794Y-76850000D01*
X110215400Y-76852850D01*
X110215396Y-76852850D01*
X110087355Y-76897653D01*
X109978208Y-76978208D01*
X109897653Y-77087355D01*
X109852850Y-77215396D01*
X109852850Y-77215400D01*
X109850000Y-77245794D01*
X64045994Y-77245794D01*
X64008501Y-77230264D01*
X64008489Y-77230261D01*
X63853845Y-77199500D01*
X63853842Y-77199500D01*
X63146158Y-77199500D01*
X63146155Y-77199500D01*
X62991510Y-77230261D01*
X62991498Y-77230264D01*
X62845827Y-77290602D01*
X62845814Y-77290609D01*
X62714711Y-77378210D01*
X62714707Y-77378213D01*
X62603213Y-77489707D01*
X62603210Y-77489711D01*
X62515609Y-77620814D01*
X62515602Y-77620827D01*
X62455264Y-77766498D01*
X62455261Y-77766510D01*
X62424500Y-77921153D01*
X59500000Y-77921153D01*
X59500000Y-75921153D01*
X62424500Y-75921153D01*
X62424500Y-76078846D01*
X62455261Y-76233489D01*
X62455264Y-76233501D01*
X62515602Y-76379172D01*
X62515609Y-76379185D01*
X62603210Y-76510288D01*
X62603213Y-76510292D01*
X62714707Y-76621786D01*
X62714711Y-76621789D01*
X62845814Y-76709390D01*
X62845827Y-76709397D01*
X62991498Y-76769735D01*
X62991503Y-76769737D01*
X63146143Y-76800497D01*
X63146153Y-76800499D01*
X63146156Y-76800500D01*
X63146158Y-76800500D01*
X63853844Y-76800500D01*
X63853845Y-76800499D01*
X64008497Y-76769737D01*
X64154179Y-76709394D01*
X64285289Y-76621789D01*
X64396789Y-76510289D01*
X64484394Y-76379179D01*
X64544737Y-76233497D01*
X64575500Y-76078842D01*
X64575500Y-75921158D01*
X64575500Y-75921155D01*
X64575499Y-75921153D01*
X64544738Y-75766510D01*
X64544737Y-75766503D01*
X64544735Y-75766498D01*
X64484397Y-75620827D01*
X64484390Y-75620814D01*
X64396789Y-75489711D01*
X64396786Y-75489707D01*
X64285292Y-75378213D01*
X64285288Y-75378210D01*
X64154185Y-75290609D01*
X64154172Y-75290602D01*
X64008501Y-75230264D01*
X64008489Y-75230261D01*
X63853845Y-75199500D01*
X63853842Y-75199500D01*
X63146158Y-75199500D01*
X63146155Y-75199500D01*
X62991510Y-75230261D01*
X62991498Y-75230264D01*
X62845827Y-75290602D01*
X62845814Y-75290609D01*
X62714711Y-75378210D01*
X62714707Y-75378213D01*
X62603213Y-75489707D01*
X62603210Y-75489711D01*
X62515609Y-75620814D01*
X62515602Y-75620827D01*
X62455264Y-75766498D01*
X62455261Y-75766510D01*
X62424500Y-75921153D01*
X59500000Y-75921153D01*
X59500000Y-73921153D01*
X62424500Y-73921153D01*
X62424500Y-74078846D01*
X62455261Y-74233489D01*
X62455264Y-74233501D01*
X62515602Y-74379172D01*
X62515609Y-74379185D01*
X62603210Y-74510288D01*
X62603213Y-74510292D01*
X62714707Y-74621786D01*
X62714711Y-74621789D01*
X62845814Y-74709390D01*
X62845827Y-74709397D01*
X62991498Y-74769735D01*
X62991503Y-74769737D01*
X63146153Y-74800499D01*
X63146156Y-74800500D01*
X63146158Y-74800500D01*
X63853844Y-74800500D01*
X63853845Y-74800499D01*
X64008497Y-74769737D01*
X64154179Y-74709394D01*
X64285289Y-74621789D01*
X64396789Y-74510289D01*
X64484394Y-74379179D01*
X64544737Y-74233497D01*
X64575500Y-74078842D01*
X64575500Y-73921158D01*
X64575500Y-73921155D01*
X64575499Y-73921153D01*
X64544738Y-73766510D01*
X64544737Y-73766503D01*
X64498394Y-73654620D01*
X64484397Y-73620827D01*
X64484390Y-73620814D01*
X64396789Y-73489711D01*
X64396786Y-73489707D01*
X64285292Y-73378213D01*
X64285288Y-73378210D01*
X64154185Y-73290609D01*
X64154172Y-73290602D01*
X64008501Y-73230264D01*
X64008489Y-73230261D01*
X63853845Y-73199500D01*
X63853842Y-73199500D01*
X63146158Y-73199500D01*
X63146155Y-73199500D01*
X62991510Y-73230261D01*
X62991498Y-73230264D01*
X62845827Y-73290602D01*
X62845814Y-73290609D01*
X62714711Y-73378210D01*
X62714707Y-73378213D01*
X62603213Y-73489707D01*
X62603210Y-73489711D01*
X62515609Y-73620814D01*
X62515602Y-73620827D01*
X62455264Y-73766498D01*
X62455261Y-73766510D01*
X62424500Y-73921153D01*
X59500000Y-73921153D01*
X59500000Y-72424000D01*
X59519685Y-72356961D01*
X59572489Y-72311206D01*
X59624000Y-72300000D01*
X67476000Y-72300000D01*
X67543039Y-72319685D01*
X67588794Y-72372489D01*
X67600000Y-72424000D01*
X67600000Y-76600000D01*
X78700000Y-76600000D01*
X78609442Y-51334108D01*
X84099500Y-51334108D01*
X84099500Y-51465892D01*
X84133608Y-51593186D01*
X84182887Y-51678540D01*
X84199500Y-51740539D01*
X84199500Y-55609460D01*
X84182887Y-55671460D01*
X84133609Y-55756810D01*
X84133609Y-55756811D01*
X84133608Y-55756813D01*
X84133608Y-55756814D01*
X84099500Y-55884108D01*
X84099500Y-56015892D01*
X84133608Y-56143186D01*
X84182887Y-56228540D01*
X84199500Y-56290539D01*
X84199500Y-62259460D01*
X84182887Y-62321460D01*
X84133609Y-62406810D01*
X84133609Y-62406811D01*
X84133608Y-62406813D01*
X84133608Y-62406814D01*
X84099500Y-62534108D01*
X84099500Y-62665892D01*
X84133608Y-62793186D01*
X84182887Y-62878540D01*
X84199500Y-62940539D01*
X84199500Y-69252726D01*
X84226793Y-69354589D01*
X84253156Y-69400250D01*
X84279520Y-69445913D01*
X84279522Y-69445915D01*
X84463181Y-69629574D01*
X84496666Y-69690897D01*
X84499500Y-69717255D01*
X84499500Y-76059460D01*
X84482887Y-76121460D01*
X84433609Y-76206810D01*
X84433609Y-76206811D01*
X84433608Y-76206813D01*
X84433608Y-76206814D01*
X84426457Y-76233501D01*
X84399500Y-76334108D01*
X84399500Y-76465891D01*
X84433608Y-76593187D01*
X84437542Y-76600000D01*
X84499500Y-76707314D01*
X84592686Y-76800500D01*
X84706814Y-76866392D01*
X84834108Y-76900500D01*
X84834110Y-76900500D01*
X84965890Y-76900500D01*
X84965892Y-76900500D01*
X85093186Y-76866392D01*
X85207314Y-76800500D01*
X85300500Y-76707314D01*
X85366392Y-76593186D01*
X85400500Y-76465892D01*
X85400500Y-76334108D01*
X85366392Y-76206814D01*
X85317113Y-76121460D01*
X85300500Y-76059460D01*
X85300500Y-72393753D01*
X110400000Y-72393753D01*
X110400000Y-72606246D01*
X110433242Y-72816127D01*
X110433242Y-72816130D01*
X110498904Y-73018217D01*
X110595375Y-73207550D01*
X110664484Y-73302672D01*
X111207242Y-72759915D01*
X111269881Y-72868408D01*
X111381592Y-72980119D01*
X111490083Y-73042757D01*
X110947326Y-73585513D01*
X110947326Y-73585515D01*
X111042442Y-73654620D01*
X111231782Y-73751095D01*
X111433870Y-73816757D01*
X111643754Y-73850000D01*
X111856246Y-73850000D01*
X112066127Y-73816757D01*
X112066130Y-73816757D01*
X112268217Y-73751095D01*
X112457554Y-73654622D01*
X112552672Y-73585514D01*
X112552673Y-73585514D01*
X112009915Y-73042757D01*
X112118408Y-72980119D01*
X112230119Y-72868408D01*
X112292757Y-72759915D01*
X112835514Y-73302673D01*
X112835514Y-73302672D01*
X112904622Y-73207554D01*
X113001095Y-73018217D01*
X113066757Y-72816130D01*
X113066757Y-72816127D01*
X113100000Y-72606246D01*
X113100000Y-72393753D01*
X113066757Y-72183872D01*
X113066757Y-72183869D01*
X113001095Y-71981782D01*
X112904620Y-71792442D01*
X112835515Y-71697326D01*
X112835513Y-71697326D01*
X112292757Y-72240083D01*
X112230119Y-72131592D01*
X112118408Y-72019881D01*
X112009915Y-71957242D01*
X112552672Y-71414484D01*
X112457550Y-71345375D01*
X112268217Y-71248904D01*
X112066129Y-71183242D01*
X111856246Y-71150000D01*
X111643754Y-71150000D01*
X111433872Y-71183242D01*
X111433869Y-71183242D01*
X111231782Y-71248904D01*
X111042447Y-71345376D01*
X111042445Y-71345377D01*
X110947326Y-71414483D01*
X110947326Y-71414484D01*
X111490084Y-71957242D01*
X111381592Y-72019881D01*
X111269881Y-72131592D01*
X111207242Y-72240084D01*
X110664484Y-71697326D01*
X110664483Y-71697326D01*
X110595377Y-71792445D01*
X110595376Y-71792447D01*
X110498904Y-71981782D01*
X110433242Y-72183869D01*
X110433242Y-72183872D01*
X110400000Y-72393753D01*
X85300500Y-72393753D01*
X85300500Y-70058676D01*
X85320185Y-69991637D01*
X85336819Y-69970995D01*
X85353556Y-69954258D01*
X85400500Y-69907314D01*
X85466392Y-69793186D01*
X85500500Y-69665892D01*
X85500500Y-69534108D01*
X85466392Y-69406814D01*
X85400500Y-69292686D01*
X85307314Y-69199500D01*
X85193186Y-69133608D01*
X85097985Y-69108099D01*
X85084097Y-69100080D01*
X85070652Y-69097156D01*
X85042398Y-69076005D01*
X85036819Y-69070426D01*
X85003334Y-69009103D01*
X85000500Y-68982745D01*
X85000500Y-68045731D01*
X110399500Y-68045731D01*
X110399500Y-69954258D01*
X110402354Y-69984698D01*
X110402354Y-69984699D01*
X110447206Y-70112881D01*
X110447207Y-70112882D01*
X110527850Y-70222150D01*
X110637118Y-70302793D01*
X110765302Y-70347646D01*
X110765301Y-70347646D01*
X110769271Y-70348018D01*
X110795735Y-70350500D01*
X112704264Y-70350499D01*
X112734698Y-70347646D01*
X112862882Y-70302793D01*
X112972150Y-70222150D01*
X113052793Y-70112882D01*
X113097646Y-69984698D01*
X113100500Y-69954265D01*
X113100499Y-68045736D01*
X113097646Y-68015302D01*
X113052793Y-67887118D01*
X112972150Y-67777850D01*
X112862882Y-67697207D01*
X112862881Y-67697206D01*
X112734695Y-67652353D01*
X112734698Y-67652353D01*
X112704268Y-67649500D01*
X110795741Y-67649500D01*
X110765301Y-67652354D01*
X110765300Y-67652354D01*
X110637118Y-67697206D01*
X110527850Y-67777850D01*
X110447206Y-67887118D01*
X110402353Y-68015302D01*
X110399500Y-68045731D01*
X85000500Y-68045731D01*
X85000500Y-62940539D01*
X85017112Y-62878540D01*
X85066392Y-62793186D01*
X85100500Y-62665892D01*
X85100500Y-62534108D01*
X85066392Y-62406814D01*
X85017113Y-62321460D01*
X85000500Y-62259460D01*
X85000500Y-56290539D01*
X85017112Y-56228540D01*
X85066392Y-56143186D01*
X85100500Y-56015892D01*
X85100500Y-55884108D01*
X85066392Y-55756814D01*
X85017113Y-55671460D01*
X85000500Y-55609460D01*
X85000500Y-51740539D01*
X85017112Y-51678540D01*
X85066392Y-51593186D01*
X85100500Y-51465892D01*
X85100500Y-51463231D01*
X88899500Y-51463231D01*
X88899500Y-53371758D01*
X88902354Y-53402198D01*
X88902354Y-53402199D01*
X88947206Y-53530381D01*
X88947207Y-53530382D01*
X89027850Y-53639650D01*
X89137118Y-53720293D01*
X89265302Y-53765146D01*
X89265301Y-53765146D01*
X89269271Y-53765518D01*
X89295735Y-53768000D01*
X91204264Y-53767999D01*
X91234698Y-53765146D01*
X91362882Y-53720293D01*
X91472150Y-53639650D01*
X91552793Y-53530382D01*
X91597646Y-53402198D01*
X91600500Y-53371765D01*
X91600499Y-52311213D01*
X92399500Y-52311213D01*
X92399500Y-52523786D01*
X92432753Y-52733739D01*
X92498444Y-52935914D01*
X92594951Y-53125320D01*
X92719890Y-53297286D01*
X92870213Y-53447609D01*
X93042179Y-53572548D01*
X93042181Y-53572549D01*
X93042184Y-53572551D01*
X93231588Y-53669057D01*
X93433757Y-53734746D01*
X93643713Y-53768000D01*
X93643714Y-53768000D01*
X93856286Y-53768000D01*
X93856287Y-53768000D01*
X94066243Y-53734746D01*
X94268412Y-53669057D01*
X94457816Y-53572551D01*
X94515857Y-53530382D01*
X94629786Y-53447609D01*
X94629788Y-53447606D01*
X94629792Y-53447604D01*
X94780104Y-53297292D01*
X94780106Y-53297288D01*
X94780109Y-53297286D01*
X94905048Y-53125320D01*
X94905047Y-53125320D01*
X94905051Y-53125316D01*
X95001557Y-52935912D01*
X95067246Y-52733743D01*
X95100500Y-52523787D01*
X95100500Y-52311213D01*
X95067246Y-52101257D01*
X95001557Y-51899088D01*
X94905051Y-51709684D01*
X94905049Y-51709681D01*
X94905048Y-51709679D01*
X94780108Y-51537712D01*
X94705627Y-51463231D01*
X97399500Y-51463231D01*
X97399500Y-53371758D01*
X97402354Y-53402198D01*
X97402354Y-53402199D01*
X97447206Y-53530381D01*
X97447207Y-53530382D01*
X97527850Y-53639650D01*
X97637118Y-53720293D01*
X97765302Y-53765146D01*
X97765301Y-53765146D01*
X97769271Y-53765518D01*
X97795735Y-53768000D01*
X99704264Y-53767999D01*
X99734698Y-53765146D01*
X99862882Y-53720293D01*
X99972150Y-53639650D01*
X100052793Y-53530382D01*
X100097646Y-53402198D01*
X100100500Y-53371765D01*
X100100499Y-52311213D01*
X100899500Y-52311213D01*
X100899500Y-52523786D01*
X100932753Y-52733739D01*
X100998444Y-52935914D01*
X101094951Y-53125320D01*
X101219890Y-53297286D01*
X101370213Y-53447609D01*
X101542179Y-53572548D01*
X101542181Y-53572549D01*
X101542184Y-53572551D01*
X101731588Y-53669057D01*
X101933757Y-53734746D01*
X102143713Y-53768000D01*
X102143714Y-53768000D01*
X102356286Y-53768000D01*
X102356287Y-53768000D01*
X102566243Y-53734746D01*
X102768412Y-53669057D01*
X102957816Y-53572551D01*
X103015857Y-53530382D01*
X103129786Y-53447609D01*
X103129788Y-53447606D01*
X103129792Y-53447604D01*
X103280104Y-53297292D01*
X103280106Y-53297288D01*
X103280109Y-53297286D01*
X103405048Y-53125320D01*
X103405047Y-53125320D01*
X103405051Y-53125316D01*
X103501557Y-52935912D01*
X103567246Y-52733743D01*
X103600500Y-52523787D01*
X103600500Y-52311213D01*
X103567246Y-52101257D01*
X103501557Y-51899088D01*
X103405051Y-51709684D01*
X103405049Y-51709681D01*
X103405048Y-51709679D01*
X103280108Y-51537712D01*
X103205627Y-51463231D01*
X106399500Y-51463231D01*
X106399500Y-53371758D01*
X106402354Y-53402198D01*
X106402354Y-53402199D01*
X106447206Y-53530381D01*
X106447207Y-53530382D01*
X106527850Y-53639650D01*
X106637118Y-53720293D01*
X106765302Y-53765146D01*
X106765301Y-53765146D01*
X106769271Y-53765518D01*
X106795735Y-53768000D01*
X108704264Y-53767999D01*
X108734698Y-53765146D01*
X108862882Y-53720293D01*
X108972150Y-53639650D01*
X109052793Y-53530382D01*
X109097646Y-53402198D01*
X109100500Y-53371765D01*
X109100499Y-52311213D01*
X109899500Y-52311213D01*
X109899500Y-52523786D01*
X109932753Y-52733739D01*
X109998444Y-52935914D01*
X110094951Y-53125320D01*
X110219890Y-53297286D01*
X110370213Y-53447609D01*
X110542179Y-53572548D01*
X110542181Y-53572549D01*
X110542184Y-53572551D01*
X110731588Y-53669057D01*
X110933757Y-53734746D01*
X111143713Y-53768000D01*
X111143714Y-53768000D01*
X111356286Y-53768000D01*
X111356287Y-53768000D01*
X111566243Y-53734746D01*
X111768412Y-53669057D01*
X111957816Y-53572551D01*
X112015857Y-53530382D01*
X112129786Y-53447609D01*
X112129788Y-53447606D01*
X112129792Y-53447604D01*
X112280104Y-53297292D01*
X112280106Y-53297288D01*
X112280109Y-53297286D01*
X112405048Y-53125320D01*
X112405047Y-53125320D01*
X112405051Y-53125316D01*
X112501557Y-52935912D01*
X112567246Y-52733743D01*
X112600500Y-52523787D01*
X112600500Y-52311213D01*
X112567246Y-52101257D01*
X112501557Y-51899088D01*
X112405051Y-51709684D01*
X112405049Y-51709681D01*
X112405048Y-51709679D01*
X112280109Y-51537713D01*
X112129786Y-51387390D01*
X111957820Y-51262451D01*
X111768414Y-51165944D01*
X111768413Y-51165943D01*
X111768412Y-51165943D01*
X111566243Y-51100254D01*
X111566241Y-51100253D01*
X111566240Y-51100253D01*
X111374306Y-51069854D01*
X111356287Y-51067000D01*
X111143713Y-51067000D01*
X111125694Y-51069854D01*
X110933760Y-51100253D01*
X110731585Y-51165944D01*
X110542179Y-51262451D01*
X110370213Y-51387390D01*
X110219890Y-51537713D01*
X110094951Y-51709679D01*
X109998444Y-51899085D01*
X109932753Y-52101260D01*
X109899500Y-52311213D01*
X109100499Y-52311213D01*
X109100499Y-51463236D01*
X109097646Y-51432802D01*
X109052793Y-51304618D01*
X108972150Y-51195350D01*
X108862882Y-51114707D01*
X108862881Y-51114706D01*
X108734695Y-51069853D01*
X108734698Y-51069853D01*
X108704268Y-51067000D01*
X106795741Y-51067000D01*
X106765301Y-51069854D01*
X106765300Y-51069854D01*
X106637118Y-51114706D01*
X106527850Y-51195350D01*
X106447206Y-51304618D01*
X106402353Y-51432802D01*
X106399500Y-51463231D01*
X103205627Y-51463231D01*
X103129786Y-51387390D01*
X102957820Y-51262451D01*
X102768414Y-51165944D01*
X102768413Y-51165943D01*
X102768412Y-51165943D01*
X102566243Y-51100254D01*
X102566241Y-51100253D01*
X102566240Y-51100253D01*
X102374306Y-51069854D01*
X102356287Y-51067000D01*
X102143713Y-51067000D01*
X102125694Y-51069854D01*
X101933760Y-51100253D01*
X101731585Y-51165944D01*
X101542179Y-51262451D01*
X101370213Y-51387390D01*
X101219890Y-51537713D01*
X101094951Y-51709679D01*
X100998444Y-51899085D01*
X100932753Y-52101260D01*
X100899500Y-52311213D01*
X100100499Y-52311213D01*
X100100499Y-51463236D01*
X100097646Y-51432802D01*
X100052793Y-51304618D01*
X99972150Y-51195350D01*
X99862882Y-51114707D01*
X99862881Y-51114706D01*
X99734695Y-51069853D01*
X99734698Y-51069853D01*
X99704268Y-51067000D01*
X97795741Y-51067000D01*
X97765301Y-51069854D01*
X97765300Y-51069854D01*
X97637118Y-51114706D01*
X97527850Y-51195350D01*
X97447206Y-51304618D01*
X97402353Y-51432802D01*
X97399500Y-51463231D01*
X94705627Y-51463231D01*
X94629786Y-51387390D01*
X94457820Y-51262451D01*
X94268414Y-51165944D01*
X94268413Y-51165943D01*
X94268412Y-51165943D01*
X94066243Y-51100254D01*
X94066241Y-51100253D01*
X94066240Y-51100253D01*
X93874306Y-51069854D01*
X93856287Y-51067000D01*
X93643713Y-51067000D01*
X93625694Y-51069854D01*
X93433760Y-51100253D01*
X93231585Y-51165944D01*
X93042179Y-51262451D01*
X92870213Y-51387390D01*
X92719890Y-51537713D01*
X92594951Y-51709679D01*
X92498444Y-51899085D01*
X92432753Y-52101260D01*
X92399500Y-52311213D01*
X91600499Y-52311213D01*
X91600499Y-51463236D01*
X91597646Y-51432802D01*
X91552793Y-51304618D01*
X91472150Y-51195350D01*
X91362882Y-51114707D01*
X91362881Y-51114706D01*
X91234695Y-51069853D01*
X91234698Y-51069853D01*
X91204268Y-51067000D01*
X89295741Y-51067000D01*
X89265301Y-51069854D01*
X89265300Y-51069854D01*
X89137118Y-51114706D01*
X89027850Y-51195350D01*
X88947206Y-51304618D01*
X88902353Y-51432802D01*
X88899500Y-51463231D01*
X85100500Y-51463231D01*
X85100500Y-51334108D01*
X85066392Y-51206814D01*
X85000500Y-51092686D01*
X84907314Y-50999500D01*
X84850250Y-50966554D01*
X84793187Y-50933608D01*
X84729539Y-50916554D01*
X84665892Y-50899500D01*
X84534108Y-50899500D01*
X84406812Y-50933608D01*
X84292686Y-50999500D01*
X84292683Y-50999502D01*
X84199502Y-51092683D01*
X84199500Y-51092686D01*
X84133608Y-51206812D01*
X84118700Y-51262451D01*
X84099500Y-51334108D01*
X78609442Y-51334108D01*
X78609414Y-51326425D01*
X78594355Y-47124944D01*
X78613799Y-47057835D01*
X78666439Y-47011891D01*
X78718354Y-47000500D01*
X114875500Y-47000500D01*
X114942539Y-47020185D01*
G37*
%TD.AperFunction*%
%TD*%
M02*
