%TF.GenerationSoftware,KiCad,Pcbnew,9.0.3*%
%TF.CreationDate,2026-03-01T13:08:57+01:00*%
%TF.ProjectId,HAT_RPI_PnP,4841545f-5250-4495-9f50-6e502e6b6963,rev?*%
%TF.SameCoordinates,Original*%
%TF.FileFunction,Soldermask,Bot*%
%TF.FilePolarity,Negative*%
%FSLAX46Y46*%
G04 Gerber Fmt 4.6, Leading zero omitted, Abs format (unit mm)*
G04 Created by KiCad (PCBNEW 9.0.3) date 2026-03-01 13:08:57*
%MOMM*%
%LPD*%
G01*
G04 APERTURE LIST*
G04 Aperture macros list*
%AMRoundRect*
0 Rectangle with rounded corners*
0 $1 Rounding radius*
0 $2 $3 $4 $5 $6 $7 $8 $9 X,Y pos of 4 corners*
0 Add a 4 corners polygon primitive as box body*
4,1,4,$2,$3,$4,$5,$6,$7,$8,$9,$2,$3,0*
0 Add four circle primitives for the rounded corners*
1,1,$1+$1,$2,$3*
1,1,$1+$1,$4,$5*
1,1,$1+$1,$6,$7*
1,1,$1+$1,$8,$9*
0 Add four rect primitives between the rounded corners*
20,1,$1+$1,$2,$3,$4,$5,0*
20,1,$1+$1,$4,$5,$6,$7,0*
20,1,$1+$1,$6,$7,$8,$9,0*
20,1,$1+$1,$8,$9,$2,$3,0*%
G04 Aperture macros list end*
%ADD10C,3.200000*%
%ADD11RoundRect,0.250001X0.949999X-0.949999X0.949999X0.949999X-0.949999X0.949999X-0.949999X-0.949999X0*%
%ADD12C,2.400000*%
%ADD13RoundRect,0.250000X0.625000X-0.350000X0.625000X0.350000X-0.625000X0.350000X-0.625000X-0.350000X0*%
%ADD14O,1.750000X1.200000*%
%ADD15C,2.300000*%
%ADD16RoundRect,0.250001X-0.899999X0.899999X-0.899999X-0.899999X0.899999X-0.899999X0.899999X0.899999X0*%
%ADD17RoundRect,0.250001X-0.899999X-0.899999X0.899999X-0.899999X0.899999X0.899999X-0.899999X0.899999X0*%
%ADD18RoundRect,0.250001X-0.949999X0.949999X-0.949999X-0.949999X0.949999X-0.949999X0.949999X0.949999X0*%
%ADD19C,1.700000*%
%ADD20R,1.700000X1.700000*%
G04 APERTURE END LIST*
D10*
%TO.C,H4*%
X138800000Y-186400000D03*
%TD*%
%TO.C,H3*%
X63250000Y-164000000D03*
%TD*%
%TO.C,H2*%
X112250000Y-106000000D03*
%TD*%
%TO.C,H1*%
X112250000Y-164000000D03*
%TD*%
D11*
%TO.C,J5*%
X65267500Y-133500000D03*
D12*
X65267500Y-130000000D03*
X65267500Y-126500000D03*
%TD*%
D11*
%TO.C,J2*%
X65267500Y-146500000D03*
D12*
X65267500Y-143000000D03*
X65267500Y-139500000D03*
%TD*%
D13*
%TO.C,J10*%
X63500000Y-88000000D03*
D14*
X63500000Y-86000000D03*
X63500000Y-84000000D03*
X63500000Y-82000000D03*
X63500000Y-80000000D03*
X63500000Y-78000000D03*
X63500000Y-76000000D03*
X63500000Y-74000000D03*
%TD*%
D13*
%TO.C,J6*%
X63500000Y-68500000D03*
D14*
X63500000Y-66500000D03*
X63500000Y-64500000D03*
X63500000Y-62500000D03*
X63500000Y-60500000D03*
X63500000Y-58500000D03*
X63500000Y-56500000D03*
X63500000Y-54500000D03*
%TD*%
D11*
%TO.C,J4*%
X65267500Y-120500000D03*
D12*
X65267500Y-117000000D03*
X65267500Y-113500000D03*
%TD*%
D15*
%TO.C,J9*%
X111750000Y-72500000D03*
D16*
X111750000Y-69000000D03*
%TD*%
D17*
%TO.C,J8*%
X98750000Y-52417500D03*
D15*
X102250000Y-52417500D03*
%TD*%
D13*
%TO.C,J11*%
X63500000Y-107500000D03*
D14*
X63500000Y-105500000D03*
X63500000Y-103500000D03*
X63500000Y-101500000D03*
X63500000Y-99500000D03*
X63500000Y-97500000D03*
X63500000Y-95500000D03*
X63500000Y-93500000D03*
%TD*%
D17*
%TO.C,J7*%
X90250000Y-52417500D03*
D15*
X93750000Y-52417500D03*
%TD*%
D17*
%TO.C,J13*%
X107750000Y-52417500D03*
D15*
X111250000Y-52417500D03*
%TD*%
D11*
%TO.C,J3*%
X65217500Y-159500000D03*
D12*
X65217500Y-156000000D03*
X65217500Y-152500000D03*
%TD*%
%TO.C,J12*%
X111250000Y-85250000D03*
X111250000Y-81750000D03*
D18*
X111250000Y-78250000D03*
%TD*%
D19*
%TO.C,J14*%
X113540000Y-159000000D03*
X111000000Y-159000000D03*
X113540000Y-156460000D03*
X111000000Y-156460000D03*
X113540000Y-153920000D03*
X111000000Y-153920000D03*
X113540000Y-151380000D03*
X111000000Y-151380000D03*
X113540000Y-148840000D03*
X111000000Y-148840000D03*
X113540000Y-146300000D03*
X111000000Y-146300000D03*
X113540000Y-143760000D03*
X111000000Y-143760000D03*
X113540000Y-141220000D03*
X111000000Y-141220000D03*
X113540000Y-138680000D03*
X111000000Y-138680000D03*
X113540000Y-136140000D03*
X111000000Y-136140000D03*
X113540000Y-133600000D03*
X111000000Y-133600000D03*
X113540000Y-131060000D03*
X111000000Y-131060000D03*
X113540000Y-128520000D03*
X111000000Y-128520000D03*
X113540000Y-125980000D03*
X111000000Y-125980000D03*
X113540000Y-123440000D03*
X111000000Y-123440000D03*
X113540000Y-120900000D03*
X111000000Y-120900000D03*
X113540000Y-118360000D03*
X111000000Y-118360000D03*
X113540000Y-115820000D03*
X111000000Y-115820000D03*
X113540000Y-113280000D03*
X111000000Y-113280000D03*
X113540000Y-110740000D03*
D20*
X111000000Y-110740000D03*
%TD*%
M02*
