M48
; DRILL file {KiCad 9.0.3} date 2026-03-01T13:08:52+0100
; FORMAT={-:-/ absolute / metric / decimal}
; #@! TF.CreationDate,2026-03-01T13:08:52+01:00
; #@! TF.GenerationSoftware,Kicad,Pcbnew,9.0.3
; #@! TF.FileFunction,Plated,1,2,PTH
FMAT,2
METRIC
; #@! TA.AperFunction,Plated,PTH,ViaDrill
T1C0.300
; #@! TA.AperFunction,Plated,PTH,ComponentDrill
T2C0.300
; #@! TA.AperFunction,Plated,PTH,ComponentDrill
T3C0.750
; #@! TA.AperFunction,Plated,PTH,ComponentDrill
T4C1.000
; #@! TA.AperFunction,Plated,PTH,ComponentDrill
T5C1.200
%
G90
G05
T1
X66.6Y-111.4
X66.6Y-114.6
X66.6Y-125.0
X66.6Y-128.2
X66.6Y-137.4
X66.6Y-140.6
X66.6Y-150.8
X66.6Y-154.0
X68.0Y-113.0
X68.0Y-126.6
X68.0Y-139.0
X68.0Y-152.4
X69.4Y-111.4
X69.4Y-114.6
X69.4Y-125.0
X69.4Y-128.2
X69.4Y-137.4
X69.4Y-140.6
X69.4Y-150.8
X69.4Y-154.0
X69.7Y-103.9
X69.7Y-106.6
X69.8Y-95.4
X69.8Y-105.3
X70.0Y-79.2
X70.0Y-87.8
X70.0Y-90.4
X70.6Y-113.0
X70.6Y-126.6
X70.6Y-139.0
X70.6Y-152.4
X70.8Y-114.6
X70.8Y-128.2
X70.8Y-140.6
X70.8Y-154.0
X71.075Y-87.5
X71.212Y-103.7
X72.0Y-86.2
X72.0Y-102.3
X72.0Y-113.2
X72.0Y-126.8
X72.0Y-139.2
X72.0Y-152.6
X72.3Y-85.0
X72.3Y-98.5
X72.3Y-100.7
X72.4Y-81.8
X72.6Y-87.2
X72.6Y-111.4
X72.6Y-125.0
X72.6Y-137.4
X72.6Y-150.8
X72.8Y-103.4
X73.4Y-79.2
X73.4Y-95.4
X73.6Y-88.2
X73.7Y-83.8
X73.9Y-104.5
X74.0Y-90.3
X74.0Y-113.2
X74.0Y-126.8
X74.0Y-139.2
X74.0Y-152.6
X74.3Y-85.0
X74.4Y-100.8
X74.5Y-98.5
X74.7Y-81.9
X74.8Y-105.7
X75.0Y-97.1
X75.0Y-103.0
X75.0Y-114.6
X75.0Y-128.2
X75.0Y-140.6
X75.0Y-154.0
X75.2Y-81.0
X75.2Y-87.0
X75.4Y-88.9
X75.6Y-111.4
X75.6Y-125.0
X75.6Y-137.4
X75.6Y-150.8
X76.4Y-80.2
X76.4Y-96.4
X76.8Y-115.2
X76.8Y-128.8
X76.8Y-141.2
X76.8Y-154.6
X76.9Y-106.5
X77.0Y-95.4
X77.0Y-103.8
X77.2Y-79.2
X77.2Y-87.8
X77.2Y-90.4
X77.2Y-113.4
X77.2Y-127.0
X77.2Y-139.4
X77.2Y-152.8
X79.1Y-58.8
X79.1Y-61.4
X79.2Y-55.0
X79.2Y-65.3
X79.2Y-68.0
X79.3Y-52.0
X79.3Y-72.0
X79.3Y-76.1
X80.0Y-56.0
X80.0Y-58.0
X80.2Y-62.4
X80.2Y-64.6
X80.4Y-54.8
X80.4Y-69.6
X80.4Y-71.6
X80.6Y-61.2
X80.6Y-67.8
X80.8Y-74.8
X80.825Y-155.175
X81.2Y-131.325
X81.55Y-116.8
X81.6Y-142.825
X81.8Y-154.2
X82.0Y-132.6
X82.545Y-117.775
X82.595Y-143.8
X82.8Y-54.8
X82.8Y-61.2
X82.8Y-67.8
X82.8Y-74.8
X83.3Y-58.5
X83.3Y-65.1
X83.6Y-55.6
X83.6Y-69.4
X83.7Y-62.2
X83.7Y-76.3
X84.6Y-51.4
X84.6Y-55.95
X84.6Y-62.6
X84.9Y-76.4
X85.0Y-69.6
X91.387Y-128.627
X91.4Y-153.775
X92.8Y-62.825
X93.7Y-62.825
X93.842Y-128.307
X93.855Y-153.455
X94.487Y-123.252
X94.487Y-126.452
X94.5Y-148.4
X94.5Y-151.6
X96.8Y-126.2
X97.7Y-99.2
X97.975Y-150.175
X98.0Y-118.6
X98.0Y-122.3
X98.1Y-83.0
X98.2Y-75.2
X98.2Y-77.9
X98.2Y-80.6
X98.2Y-85.6
X98.2Y-88.0
X98.2Y-89.2
X98.2Y-92.0
X98.2Y-94.2
X98.2Y-142.8
X98.2Y-145.0
X98.3Y-71.0
X98.3Y-72.8
X98.4Y-96.0
X98.6Y-100.7
X99.3Y-76.0
X99.3Y-142.8
X99.4Y-79.0
X99.4Y-87.6
X99.5Y-84.5
X100.3Y-76.0
X100.4Y-79.0
X100.4Y-84.5
X100.5Y-96.6
X100.6Y-72.7
X100.6Y-73.7
X100.6Y-87.6
X101.3Y-62.825
X101.3Y-76.0
X101.3Y-93.7
X101.3Y-94.5
X101.3Y-95.3
X101.3Y-96.1
X101.4Y-84.5
X101.5Y-79.0
X101.6Y-87.6
X101.7Y-72.0
X101.7Y-74.6
X101.8Y-70.8
X102.2Y-62.825
X102.6Y-102.5
X102.9Y-89.7
X102.9Y-90.6
X102.9Y-91.5
X102.9Y-92.4
X103.5Y-103.6
X103.7Y-92.9
X104.0Y-102.5
X105.3Y-88.8
X105.4Y-103.6
X105.7Y-88.0
X106.0Y-96.7
X106.2Y-88.8
X106.6Y-88.0
X107.0Y-88.8
X107.0Y-89.6
X107.0Y-90.4
X107.0Y-91.3
X107.3Y-130.2
X107.3Y-134.3
X107.3Y-135.5
X107.4Y-103.5
X107.4Y-108.7
X107.4Y-131.7
X107.4Y-132.9
X107.4Y-137.3
X107.4Y-139.4
X107.4Y-143.1
X107.8Y-102.0
X108.7Y-102.0
X109.0Y-79.2
X109.1Y-71.7
X109.6Y-76.2
X109.7Y-74.5
X109.7Y-102.0
X109.8Y-114.6
X109.8Y-129.8
X109.8Y-137.4
X109.8Y-139.9
X109.9Y-132.3
X109.9Y-134.9
X109.9Y-142.6
X110.0Y-109.0
X110.4Y-62.635
X110.6Y-102.0
X111.0Y-89.3
X111.2Y-62.635
X111.3Y-75.4
X111.3Y-90.9
X111.5Y-90.1
X111.5Y-102.0
X112.3Y-153.1
X113.0Y-76.2
X113.1Y-74.7
X114.4Y-119.6
X114.4Y-122.2
X114.4Y-124.7
X114.4Y-127.3
X114.4Y-129.8
X114.4Y-132.3
X114.4Y-134.9
X114.4Y-137.4
X114.4Y-140.0
X114.4Y-142.4
X114.4Y-150.2
X114.4Y-152.7
X114.4Y-155.1
X114.5Y-157.8
X114.6Y-71.6
X114.6Y-79.5
X114.6Y-160.1
T2
X102.8Y-97.75
X102.8Y-98.95
X102.8Y-100.25
X102.8Y-101.35
X104.0Y-97.75
X104.0Y-98.95
X104.0Y-100.25
X104.0Y-101.35
T3
X63.5Y-54.5
X63.5Y-56.5
X63.5Y-58.5
X63.5Y-60.5
X63.5Y-62.5
X63.5Y-64.5
X63.5Y-66.5
X63.5Y-68.5
X63.5Y-74.0
X63.5Y-76.0
X63.5Y-78.0
X63.5Y-80.0
X63.5Y-82.0
X63.5Y-84.0
X63.5Y-86.0
X63.5Y-88.0
X63.5Y-93.5
X63.5Y-95.5
X63.5Y-97.5
X63.5Y-99.5
X63.5Y-101.5
X63.5Y-103.5
X63.5Y-105.5
X63.5Y-107.5
T4
X111.0Y-110.74
X111.0Y-113.28
X111.0Y-115.82
X111.0Y-118.36
X111.0Y-120.9
X111.0Y-123.44
X111.0Y-125.98
X111.0Y-128.52
X111.0Y-131.06
X111.0Y-133.6
X111.0Y-136.14
X111.0Y-138.68
X111.0Y-141.22
X111.0Y-143.76
X111.0Y-146.3
X111.0Y-148.84
X111.0Y-151.38
X111.0Y-153.92
X111.0Y-156.46
X111.0Y-159.0
X113.54Y-110.74
X113.54Y-113.28
X113.54Y-115.82
X113.54Y-118.36
X113.54Y-120.9
X113.54Y-123.44
X113.54Y-125.98
X113.54Y-128.52
X113.54Y-131.06
X113.54Y-133.6
X113.54Y-136.14
X113.54Y-138.68
X113.54Y-141.22
X113.54Y-143.76
X113.54Y-146.3
X113.54Y-148.84
X113.54Y-151.38
X113.54Y-153.92
X113.54Y-156.46
X113.54Y-159.0
T5
X65.218Y-152.5
X65.218Y-156.0
X65.218Y-159.5
X65.267Y-113.5
X65.267Y-117.0
X65.267Y-120.5
X65.267Y-126.5
X65.267Y-130.0
X65.267Y-133.5
X65.267Y-139.5
X65.267Y-143.0
X65.267Y-146.5
X90.25Y-52.417
X93.75Y-52.417
X98.75Y-52.417
X102.25Y-52.417
X107.75Y-52.417
X111.25Y-52.417
X111.25Y-78.25
X111.25Y-81.75
X111.25Y-85.25
X111.75Y-69.0
X111.75Y-72.5
M30
